<?xml version="1.0" encoding="utf-8"?>
<!-- Generator: Adobe Illustrator 23.0.3, SVG Export Plug-In . SVG Version: 6.00 Build 0)  -->
<svg version="1.1" id="Layer_1" xmlns="http://www.w3.org/2000/svg" xmlns:xlink="http://www.w3.org/1999/xlink" x="0px" y="0px"
	 viewBox="0 0 1078 864" style="enable-background:new 0 0 1078 864;" xml:space="preserve">
<g id="box">
	<path id="frontRight" class="st0" d="M977.7,627.7v126h-117c0.3-4.3,2-26.8,19-41.2c2.5-2.1,8.8-7.5,18.4-10.2
		c7.3-2.1,18.2-2.4,18.4-2.4c3.7,0.1,4.6,0,4.6,0c0-0.2-25.4,3.4-48.1-7.9c-2.5-1.3-10.5-5.5-18.3-13.3
		c-18.2-18.5-20.6-42.4-21.1-50.9L977.7,627.7L977.7,627.7z"/>
	<rect id="bottomLeft" x="545.7" y="51.7" class="st0" width="288" height="144"/>
	<rect id="bottom" x="545.7" y="195.7" class="st0" width="288" height="432"/>
	<rect id="front" x="833.7" y="195.7" class="st0" width="144" height="432"/>
	<rect id="bottomRight" x="545.7" y="627.7" class="st0" width="288" height="144"/>
	<path id="frontLeft" class="st0" d="M977.7,195.7v-126h-117c0.3,4.3,2,26.8,19,41.2c2.5,2.1,8.8,7.5,18.4,10.2
		c7.3,2.1,18.2,2.4,18.4,2.4c3.7-0.1,4.6,0,4.6,0c0,0.2-25.4-3.4-48.1,7.9c-2.5,1.3-10.5,5.5-18.3,13.3
		c-18.2,18.5-20.6,42.4-21.1,50.9L977.7,195.7L977.7,195.7z"/>
	<path id="backRight" class="st0" d="M401.7,627.7v126h117c-0.3-4.3-2-26.8-19-41.2c-2.5-2.1-8.8-7.5-18.4-10.2
		c-7.3-2.1-18.2-2.4-18.4-2.4c-3.7,0.1-4.6,0-4.6,0c0-0.2,25.4,3.4,48.1-7.9c2.5-1.3,10.5-5.5,18.3-13.3
		c18.2-18.5,20.6-42.4,21.1-50.9L401.7,627.7L401.7,627.7z"/>
	<rect id="back" x="401.7" y="195.7" class="st0" width="144" height="432"/>
	<path id="backLeft" class="st0" d="M401.7,195.7v-126h117c-0.3,4.3-2,26.8-19,41.2c-2.5,2.1-8.8,7.5-18.4,10.2
		c-7.3,2.1-18.2,2.4-18.4,2.4c-3.7-0.1-4.6,0-4.6,0c0,0.2,25.4-3.4,48.1,7.9c2.5,1.3,10.5,5.5,18.3,13.3
		c18.2,18.5,20.6,42.4,21.1,50.9L401.7,195.7L401.7,195.7z"/>
	<rect id="top" x="116" y="195.7" class="st0" width="285.7" height="432"/>
	<path id="topLeft" class="st0" d="M401.7,195.7l-3.5-0.6c-0.7-0.1-1.3-0.4-1.9-0.8l0,0c-1.2-0.9-3.7-3.9-3.7-5.4
		c0.1-7.4,1.4-39.8-18.8-53.7c-14.4-9.9-29-12.2-36.9-12.6c-1.9-0.1-3.5-1.5-3.9-3.3c-1.6-7.8-7-25.6-24.3-38.4
		c-19.9-14.7-39-15.7-45.3-15.2c-1,0.1-2,0.1-3,0c-7.1-0.5-33.7,0.2-54,17.2c-15.4,12.9-20,29.7-21.3,37.5c-0.3,1.9-1.9,3.3-3.7,3.5
		c-8.6,0.8-27.9,4.4-44.3,20.7c-20.6,20.5-21.2,46.2-21.2,51.1L401.7,195.7L401.7,195.7z"/>
	<path id="topFrontFlap" class="st0" d="M116,195.7c-2.6-0.4-15.7,0.6-31.2,5.5c-6.3,2-13,4.7-19.6,8.1
		C44.9,220,44.6,244,44,248.8V584c1.8,5,4.7,23.2,29.2,35.3c19.7,9.7,37.3,9.1,42.8,8.3C116,483.7,116,339.7,116,195.7z"/>
	<path id="topLeft" class="st0" d="M401.7,628.1l-3.5,0.6c-0.7,0.1-1.3,0.4-1.9,0.8l0,0c-1.2,0.9-3.7,3.9-3.7,5.4
		c0.1,7.4,1.4,39.8-18.8,53.7c-14.4,9.9-29,12.2-36.9,12.6c-1.9,0.1-3.5,1.5-3.9,3.3c-1.6,7.8-7,25.6-24.3,38.4
		c-19.9,14.7-39,15.7-45.3,15.2c-1-0.1-2-0.1-3,0c-7.1,0.5-33.7-0.2-54-17.2c-15.4-12.9-20-29.7-21.3-37.5c-0.3-1.9-1.9-3.3-3.7-3.5
		c-8.6-0.8-27.9-4.4-44.3-20.7C116.6,658.6,116,633,116,628.1H401.7z"/>
</g>
</svg>
