<?xml version="1.0" encoding="utf-8"?>
<!-- Generator: Adobe Illustrator 23.0.3, SVG Export Plug-In . SVG Version: 6.00 Build 0)  -->
<svg version="1.1" id="Layer_1" xmlns="http://www.w3.org/2000/svg" xmlns:xlink="http://www.w3.org/1999/xlink" x="0px" y="0px"
	 viewBox="0 0 1078 864" style="enable-background:new 0 0 1078 864;" xml:space="preserve">
<style type="text/css">
	.st0{fill:#3953A4;}
	.st1{fill:#ED1F24;}
	.st2{display:none;}
	.st3{display:inline;}
	.st4{fill:#00AEEF;}
	.st5{font-family:'ArialMT';}
	.st6{font-size:9px;}
</style>
<g id="Non-Print_Area">
</g>
<g id="Die_Lines">
</g>
<g id="Legend">
</g>
<g id="Bleed">
	<path class="st0" d="M116,628.2c-0.3,0-0.5-0.2-0.5-0.5v-2.3c0-0.3,0.2-0.5,0.5-0.5s0.5,0.2,0.5,0.5v2.3
		C116.5,628,116.3,628.2,116,628.2z"/>
	<path class="st0" d="M116,198.5c-0.3,0-0.5-0.2-0.5-0.5v-2.3c0-0.3,0.2-0.5,0.5-0.5s0.5,0.2,0.5,0.5v2.3
		C116.5,198.3,116.3,198.5,116,198.5z"/>
	<g>
		<path class="st1" d="M116,204.5c-0.3,0-0.5-0.2-0.5-0.5v-6c0-0.3,0.2-0.5,0.5-0.5s0.5,0.2,0.5,0.5v6
			C116.5,204.3,116.3,204.5,116,204.5z"/>
		<path class="st1" d="M116,608c-0.3,0-0.5-0.2-0.5-0.5v-11.9c0-0.3,0.2-0.5,0.5-0.5s0.5,0.2,0.5,0.5v11.9
			C116.5,607.8,116.3,608,116,608z M116,584.3c-0.3,0-0.5-0.2-0.5-0.5v-11.9c0-0.3,0.2-0.5,0.5-0.5s0.5,0.2,0.5,0.5v11.9
			C116.5,584.1,116.3,584.3,116,584.3z M116,560.5c-0.3,0-0.5-0.2-0.5-0.5v-11.9c0-0.3,0.2-0.5,0.5-0.5s0.5,0.2,0.5,0.5v11.9
			C116.5,560.3,116.3,560.5,116,560.5z M116,536.8c-0.3,0-0.5-0.2-0.5-0.5v-11.9c0-0.3,0.2-0.5,0.5-0.5s0.5,0.2,0.5,0.5v11.9
			C116.5,536.6,116.3,536.8,116,536.8z M116,513.1c-0.3,0-0.5-0.2-0.5-0.5v-11.9c0-0.3,0.2-0.5,0.5-0.5s0.5,0.2,0.5,0.5v11.9
			C116.5,512.8,116.3,513.1,116,513.1z M116,489.3c-0.3,0-0.5-0.2-0.5-0.5V477c0-0.3,0.2-0.5,0.5-0.5s0.5,0.2,0.5,0.5v11.9
			C116.5,489.1,116.3,489.3,116,489.3z M116,465.6c-0.3,0-0.5-0.2-0.5-0.5v-11.9c0-0.3,0.2-0.5,0.5-0.5s0.5,0.2,0.5,0.5v11.9
			C116.5,465.4,116.3,465.6,116,465.6z M116,441.9c-0.3,0-0.5-0.2-0.5-0.5v-11.9c0-0.3,0.2-0.5,0.5-0.5s0.5,0.2,0.5,0.5v11.9
			C116.5,441.6,116.3,441.9,116,441.9z M116,418.1c-0.3,0-0.5-0.2-0.5-0.5v-11.9c0-0.3,0.2-0.5,0.5-0.5s0.5,0.2,0.5,0.5v11.9
			C116.5,417.9,116.3,418.1,116,418.1z M116,394.4c-0.3,0-0.5-0.2-0.5-0.5V382c0-0.3,0.2-0.5,0.5-0.5s0.5,0.2,0.5,0.5v11.9
			C116.5,394.2,116.3,394.4,116,394.4z M116,370.6c-0.3,0-0.5-0.2-0.5-0.5v-11.9c0-0.3,0.2-0.5,0.5-0.5s0.5,0.2,0.5,0.5v11.9
			C116.5,370.4,116.3,370.6,116,370.6z M116,346.9c-0.3,0-0.5-0.2-0.5-0.5v-11.9c0-0.3,0.2-0.5,0.5-0.5s0.5,0.2,0.5,0.5v11.9
			C116.5,346.7,116.3,346.9,116,346.9z M116,323.2c-0.3,0-0.5-0.2-0.5-0.5v-11.9c0-0.3,0.2-0.5,0.5-0.5s0.5,0.2,0.5,0.5v11.9
			C116.5,323,116.3,323.2,116,323.2z M116,299.4c-0.3,0-0.5-0.2-0.5-0.5v-11.9c0-0.3,0.2-0.5,0.5-0.5s0.5,0.2,0.5,0.5v11.9
			C116.5,299.2,116.3,299.4,116,299.4z M116,275.7c-0.3,0-0.5-0.2-0.5-0.5v-11.9c0-0.3,0.2-0.5,0.5-0.5s0.5,0.2,0.5,0.5v11.9
			C116.5,275.5,116.3,275.7,116,275.7z M116,252c-0.3,0-0.5-0.2-0.5-0.5v-11.9c0-0.3,0.2-0.5,0.5-0.5s0.5,0.2,0.5,0.5v11.9
			C116.5,251.7,116.3,252,116,252z M116,228.2c-0.3,0-0.5-0.2-0.5-0.5v-11.9c0-0.3,0.2-0.5,0.5-0.5s0.5,0.2,0.5,0.5v11.9
			C116.5,228,116.3,228.2,116,228.2z"/>
		<path class="st1" d="M116,625.9c-0.3,0-0.5-0.2-0.5-0.5v-6c0-0.3,0.2-0.5,0.5-0.5s0.5,0.2,0.5,0.5v6
			C116.5,625.7,116.3,625.9,116,625.9z"/>
	</g>
	<g>
		<path class="st1" d="M122,628.2h-6c-0.3,0-0.5-0.2-0.5-0.5s0.2-0.5,0.5-0.5h6c0.3,0,0.5,0.2,0.5,0.5S122.3,628.2,122,628.2z"/>
		<path class="st1" d="M383.8,628.2h-11.9c-0.3,0-0.5-0.2-0.5-0.5s0.2-0.5,0.5-0.5h11.9c0.3,0,0.5,0.2,0.5,0.5
			S384.1,628.2,383.8,628.2z M360,628.2h-11.9c-0.3,0-0.5-0.2-0.5-0.5s0.2-0.5,0.5-0.5H360c0.3,0,0.5,0.2,0.5,0.5
			S360.3,628.2,360,628.2z M336.2,628.2h-11.9c-0.3,0-0.5-0.2-0.5-0.5s0.2-0.5,0.5-0.5h11.9c0.3,0,0.5,0.2,0.5,0.5
			S336.5,628.2,336.2,628.2z M312.4,628.2h-11.9c-0.3,0-0.5-0.2-0.5-0.5s0.2-0.5,0.5-0.5h11.9c0.3,0,0.5,0.2,0.5,0.5
			S312.7,628.2,312.4,628.2z M288.6,628.2h-11.9c-0.3,0-0.5-0.2-0.5-0.5s0.2-0.5,0.5-0.5h11.9c0.3,0,0.5,0.2,0.5,0.5
			S288.9,628.2,288.6,628.2z M264.8,628.2h-11.9c-0.3,0-0.5-0.2-0.5-0.5s0.2-0.5,0.5-0.5h11.9c0.3,0,0.5,0.2,0.5,0.5
			S265.1,628.2,264.8,628.2z M241,628.2h-11.9c-0.3,0-0.5-0.2-0.5-0.5s0.2-0.5,0.5-0.5H241c0.3,0,0.5,0.2,0.5,0.5
			S241.3,628.2,241,628.2z M217.2,628.2h-11.9c-0.3,0-0.5-0.2-0.5-0.5s0.2-0.5,0.5-0.5h11.9c0.3,0,0.5,0.2,0.5,0.5
			S217.5,628.2,217.2,628.2z M193.4,628.2h-11.9c-0.3,0-0.5-0.2-0.5-0.5s0.2-0.5,0.5-0.5h11.9c0.3,0,0.5,0.2,0.5,0.5
			S193.7,628.2,193.4,628.2z M169.6,628.2h-11.9c-0.3,0-0.5-0.2-0.5-0.5s0.2-0.5,0.5-0.5h11.9c0.3,0,0.5,0.2,0.5,0.5
			S169.9,628.2,169.6,628.2z M145.8,628.2h-11.9c-0.3,0-0.5-0.2-0.5-0.5s0.2-0.5,0.5-0.5h11.9c0.3,0,0.5,0.2,0.5,0.5
			S146.1,628.2,145.8,628.2z"/>
		<path class="st1" d="M401.7,628.2h-6c-0.3,0-0.5-0.2-0.5-0.5s0.2-0.5,0.5-0.5h6c0.3,0,0.5,0.2,0.5,0.5S402,628.2,401.7,628.2z"/>
	</g>
	<g>
		<path class="st1" d="M401.7,628.2c-0.3,0-0.5-0.2-0.5-0.5v-6c0-0.3,0.2-0.5,0.5-0.5s0.5,0.2,0.5,0.5v6
			C402.2,628,402,628.2,401.7,628.2z"/>
		<path class="st1" d="M401.7,610.2c-0.3,0-0.5-0.2-0.5-0.5v-12c0-0.3,0.2-0.5,0.5-0.5s0.5,0.2,0.5,0.5v12
			C402.2,610,402,610.2,401.7,610.2z M401.7,586.2c-0.3,0-0.5-0.2-0.5-0.5v-12c0-0.3,0.2-0.5,0.5-0.5s0.5,0.2,0.5,0.5v12
			C402.2,586,402,586.2,401.7,586.2z M401.7,562.2c-0.3,0-0.5-0.2-0.5-0.5v-12c0-0.3,0.2-0.5,0.5-0.5s0.5,0.2,0.5,0.5v12
			C402.2,562,402,562.2,401.7,562.2z M401.7,538.2c-0.3,0-0.5-0.2-0.5-0.5v-12c0-0.3,0.2-0.5,0.5-0.5s0.5,0.2,0.5,0.5v12
			C402.2,538,402,538.2,401.7,538.2z M401.7,514.2c-0.3,0-0.5-0.2-0.5-0.5v-12c0-0.3,0.2-0.5,0.5-0.5s0.5,0.2,0.5,0.5v12
			C402.2,514,402,514.2,401.7,514.2z M401.7,490.2c-0.3,0-0.5-0.2-0.5-0.5v-12c0-0.3,0.2-0.5,0.5-0.5s0.5,0.2,0.5,0.5v12
			C402.2,490,402,490.2,401.7,490.2z M401.7,466.2c-0.3,0-0.5-0.2-0.5-0.5v-12c0-0.3,0.2-0.5,0.5-0.5s0.5,0.2,0.5,0.5v12
			C402.2,466,402,466.2,401.7,466.2z M401.7,442.2c-0.3,0-0.5-0.2-0.5-0.5v-12c0-0.3,0.2-0.5,0.5-0.5s0.5,0.2,0.5,0.5v12
			C402.2,442,402,442.2,401.7,442.2z M401.7,418.2c-0.3,0-0.5-0.2-0.5-0.5v-12c0-0.3,0.2-0.5,0.5-0.5s0.5,0.2,0.5,0.5v12
			C402.2,418,402,418.2,401.7,418.2z M401.7,394.2c-0.3,0-0.5-0.2-0.5-0.5v-12c0-0.3,0.2-0.5,0.5-0.5s0.5,0.2,0.5,0.5v12
			C402.2,394,402,394.2,401.7,394.2z M401.7,370.2c-0.3,0-0.5-0.2-0.5-0.5v-12c0-0.3,0.2-0.5,0.5-0.5s0.5,0.2,0.5,0.5v12
			C402.2,370,402,370.2,401.7,370.2z M401.7,346.2c-0.3,0-0.5-0.2-0.5-0.5v-12c0-0.3,0.2-0.5,0.5-0.5s0.5,0.2,0.5,0.5v12
			C402.2,346,402,346.2,401.7,346.2z M401.7,322.2c-0.3,0-0.5-0.2-0.5-0.5v-12c0-0.3,0.2-0.5,0.5-0.5s0.5,0.2,0.5,0.5v12
			C402.2,322,402,322.2,401.7,322.2z M401.7,298.2c-0.3,0-0.5-0.2-0.5-0.5v-12c0-0.3,0.2-0.5,0.5-0.5s0.5,0.2,0.5,0.5v12
			C402.2,298,402,298.2,401.7,298.2z M401.7,274.2c-0.3,0-0.5-0.2-0.5-0.5v-12c0-0.3,0.2-0.5,0.5-0.5s0.5,0.2,0.5,0.5v12
			C402.2,274,402,274.2,401.7,274.2z M401.7,250.2c-0.3,0-0.5-0.2-0.5-0.5v-12c0-0.3,0.2-0.5,0.5-0.5s0.5,0.2,0.5,0.5v12
			C402.2,250,402,250.2,401.7,250.2z M401.7,226.2c-0.3,0-0.5-0.2-0.5-0.5v-12c0-0.3,0.2-0.5,0.5-0.5s0.5,0.2,0.5,0.5v12
			C402.2,226,402,226.2,401.7,226.2z"/>
		<path class="st1" d="M401.7,202.2c-0.3,0-0.5-0.2-0.5-0.5v-6c0-0.3,0.2-0.5,0.5-0.5s0.5,0.2,0.5,0.5v6
			C402.2,202,402,202.2,401.7,202.2z"/>
	</g>
	<g>
		<path class="st1" d="M122,196.2h-6c-0.3,0-0.5-0.2-0.5-0.5s0.2-0.5,0.5-0.5h6c0.3,0,0.5,0.2,0.5,0.5S122.3,196.2,122,196.2z"/>
		<path class="st1" d="M383.8,196.2h-11.9c-0.3,0-0.5-0.2-0.5-0.5s0.2-0.5,0.5-0.5h11.9c0.3,0,0.5,0.2,0.5,0.5
			S384.1,196.2,383.8,196.2z M360,196.2h-11.9c-0.3,0-0.5-0.2-0.5-0.5s0.2-0.5,0.5-0.5H360c0.3,0,0.5,0.2,0.5,0.5
			S360.3,196.2,360,196.2z M336.2,196.2h-11.9c-0.3,0-0.5-0.2-0.5-0.5s0.2-0.5,0.5-0.5h11.9c0.3,0,0.5,0.2,0.5,0.5
			S336.5,196.2,336.2,196.2z M312.4,196.2h-11.9c-0.3,0-0.5-0.2-0.5-0.5s0.2-0.5,0.5-0.5h11.9c0.3,0,0.5,0.2,0.5,0.5
			S312.7,196.2,312.4,196.2z M288.6,196.2h-11.9c-0.3,0-0.5-0.2-0.5-0.5s0.2-0.5,0.5-0.5h11.9c0.3,0,0.5,0.2,0.5,0.5
			S288.9,196.2,288.6,196.2z M264.8,196.2h-11.9c-0.3,0-0.5-0.2-0.5-0.5s0.2-0.5,0.5-0.5h11.9c0.3,0,0.5,0.2,0.5,0.5
			S265.1,196.2,264.8,196.2z M241,196.2h-11.9c-0.3,0-0.5-0.2-0.5-0.5s0.2-0.5,0.5-0.5H241c0.3,0,0.5,0.2,0.5,0.5
			S241.3,196.2,241,196.2z M217.2,196.2h-11.9c-0.3,0-0.5-0.2-0.5-0.5s0.2-0.5,0.5-0.5h11.9c0.3,0,0.5,0.2,0.5,0.5
			S217.5,196.2,217.2,196.2z M193.4,196.2h-11.9c-0.3,0-0.5-0.2-0.5-0.5s0.2-0.5,0.5-0.5h11.9c0.3,0,0.5,0.2,0.5,0.5
			S193.7,196.2,193.4,196.2z M169.6,196.2h-11.9c-0.3,0-0.5-0.2-0.5-0.5s0.2-0.5,0.5-0.5h11.9c0.3,0,0.5,0.2,0.5,0.5
			S169.9,196.2,169.6,196.2z M145.8,196.2h-11.9c-0.3,0-0.5-0.2-0.5-0.5s0.2-0.5,0.5-0.5h11.9c0.3,0,0.5,0.2,0.5,0.5
			S146.1,196.2,145.8,196.2z"/>
		<path class="st1" d="M401.7,196.2h-6c-0.3,0-0.5-0.2-0.5-0.5s0.2-0.5,0.5-0.5h6c0.3,0,0.5,0.2,0.5,0.5S402,196.2,401.7,196.2z"/>
	</g>
	<g>
		<path class="st1" d="M407.7,196.2h-6c-0.3,0-0.5-0.2-0.5-0.5s0.2-0.5,0.5-0.5h6c0.3,0,0.5,0.2,0.5,0.5S408,196.2,407.7,196.2z"/>
		<path class="st1" d="M527.7,196.2h-12c-0.3,0-0.5-0.2-0.5-0.5s0.2-0.5,0.5-0.5h12c0.3,0,0.5,0.2,0.5,0.5S528,196.2,527.7,196.2z
			 M503.7,196.2h-12c-0.3,0-0.5-0.2-0.5-0.5s0.2-0.5,0.5-0.5h12c0.3,0,0.5,0.2,0.5,0.5S504,196.2,503.7,196.2z M479.7,196.2h-12
			c-0.3,0-0.5-0.2-0.5-0.5s0.2-0.5,0.5-0.5h12c0.3,0,0.5,0.2,0.5,0.5S480,196.2,479.7,196.2z M455.7,196.2h-12
			c-0.3,0-0.5-0.2-0.5-0.5s0.2-0.5,0.5-0.5h12c0.3,0,0.5,0.2,0.5,0.5S456,196.2,455.7,196.2z M431.7,196.2h-12
			c-0.3,0-0.5-0.2-0.5-0.5s0.2-0.5,0.5-0.5h12c0.3,0,0.5,0.2,0.5,0.5S432,196.2,431.7,196.2z"/>
		<path class="st1" d="M545.7,196.2h-6c-0.3,0-0.5-0.2-0.5-0.5s0.2-0.5,0.5-0.5h6c0.3,0,0.5,0.2,0.5,0.5S546,196.2,545.7,196.2z"/>
	</g>
	<g>
		<path class="st1" d="M545.7,202.2c-0.3,0-0.5-0.2-0.5-0.5v-6c0-0.3,0.2-0.5,0.5-0.5s0.5,0.2,0.5,0.5v6
			C546.2,202,546,202.2,545.7,202.2z"/>
		<path class="st1" d="M545.7,610.2c-0.3,0-0.5-0.2-0.5-0.5v-12c0-0.3,0.2-0.5,0.5-0.5s0.5,0.2,0.5,0.5v12
			C546.2,610,546,610.2,545.7,610.2z M545.7,586.2c-0.3,0-0.5-0.2-0.5-0.5v-12c0-0.3,0.2-0.5,0.5-0.5s0.5,0.2,0.5,0.5v12
			C546.2,586,546,586.2,545.7,586.2z M545.7,562.2c-0.3,0-0.5-0.2-0.5-0.5v-12c0-0.3,0.2-0.5,0.5-0.5s0.5,0.2,0.5,0.5v12
			C546.2,562,546,562.2,545.7,562.2z M545.7,538.2c-0.3,0-0.5-0.2-0.5-0.5v-12c0-0.3,0.2-0.5,0.5-0.5s0.5,0.2,0.5,0.5v12
			C546.2,538,546,538.2,545.7,538.2z M545.7,514.2c-0.3,0-0.5-0.2-0.5-0.5v-12c0-0.3,0.2-0.5,0.5-0.5s0.5,0.2,0.5,0.5v12
			C546.2,514,546,514.2,545.7,514.2z M545.7,490.2c-0.3,0-0.5-0.2-0.5-0.5v-12c0-0.3,0.2-0.5,0.5-0.5s0.5,0.2,0.5,0.5v12
			C546.2,490,546,490.2,545.7,490.2z M545.7,466.2c-0.3,0-0.5-0.2-0.5-0.5v-12c0-0.3,0.2-0.5,0.5-0.5s0.5,0.2,0.5,0.5v12
			C546.2,466,546,466.2,545.7,466.2z M545.7,442.2c-0.3,0-0.5-0.2-0.5-0.5v-12c0-0.3,0.2-0.5,0.5-0.5s0.5,0.2,0.5,0.5v12
			C546.2,442,546,442.2,545.7,442.2z M545.7,418.2c-0.3,0-0.5-0.2-0.5-0.5v-12c0-0.3,0.2-0.5,0.5-0.5s0.5,0.2,0.5,0.5v12
			C546.2,418,546,418.2,545.7,418.2z M545.7,394.2c-0.3,0-0.5-0.2-0.5-0.5v-12c0-0.3,0.2-0.5,0.5-0.5s0.5,0.2,0.5,0.5v12
			C546.2,394,546,394.2,545.7,394.2z M545.7,370.2c-0.3,0-0.5-0.2-0.5-0.5v-12c0-0.3,0.2-0.5,0.5-0.5s0.5,0.2,0.5,0.5v12
			C546.2,370,546,370.2,545.7,370.2z M545.7,346.2c-0.3,0-0.5-0.2-0.5-0.5v-12c0-0.3,0.2-0.5,0.5-0.5s0.5,0.2,0.5,0.5v12
			C546.2,346,546,346.2,545.7,346.2z M545.7,322.2c-0.3,0-0.5-0.2-0.5-0.5v-12c0-0.3,0.2-0.5,0.5-0.5s0.5,0.2,0.5,0.5v12
			C546.2,322,546,322.2,545.7,322.2z M545.7,298.2c-0.3,0-0.5-0.2-0.5-0.5v-12c0-0.3,0.2-0.5,0.5-0.5s0.5,0.2,0.5,0.5v12
			C546.2,298,546,298.2,545.7,298.2z M545.7,274.2c-0.3,0-0.5-0.2-0.5-0.5v-12c0-0.3,0.2-0.5,0.5-0.5s0.5,0.2,0.5,0.5v12
			C546.2,274,546,274.2,545.7,274.2z M545.7,250.2c-0.3,0-0.5-0.2-0.5-0.5v-12c0-0.3,0.2-0.5,0.5-0.5s0.5,0.2,0.5,0.5v12
			C546.2,250,546,250.2,545.7,250.2z M545.7,226.2c-0.3,0-0.5-0.2-0.5-0.5v-12c0-0.3,0.2-0.5,0.5-0.5s0.5,0.2,0.5,0.5v12
			C546.2,226,546,226.2,545.7,226.2z"/>
		<path class="st1" d="M545.7,628.2c-0.3,0-0.5-0.2-0.5-0.5v-6c0-0.3,0.2-0.5,0.5-0.5s0.5,0.2,0.5,0.5v6
			C546.2,628,546,628.2,545.7,628.2z"/>
	</g>
	<g>
		<path class="st1" d="M407.7,628.2h-6c-0.3,0-0.5-0.2-0.5-0.5s0.2-0.5,0.5-0.5h6c0.3,0,0.5,0.2,0.5,0.5S408,628.2,407.7,628.2z"/>
		<path class="st1" d="M527.7,628.2h-12c-0.3,0-0.5-0.2-0.5-0.5s0.2-0.5,0.5-0.5h12c0.3,0,0.5,0.2,0.5,0.5S528,628.2,527.7,628.2z
			 M503.7,628.2h-12c-0.3,0-0.5-0.2-0.5-0.5s0.2-0.5,0.5-0.5h12c0.3,0,0.5,0.2,0.5,0.5S504,628.2,503.7,628.2z M479.7,628.2h-12
			c-0.3,0-0.5-0.2-0.5-0.5s0.2-0.5,0.5-0.5h12c0.3,0,0.5,0.2,0.5,0.5S480,628.2,479.7,628.2z M455.7,628.2h-12
			c-0.3,0-0.5-0.2-0.5-0.5s0.2-0.5,0.5-0.5h12c0.3,0,0.5,0.2,0.5,0.5S456,628.2,455.7,628.2z M431.7,628.2h-12
			c-0.3,0-0.5-0.2-0.5-0.5s0.2-0.5,0.5-0.5h12c0.3,0,0.5,0.2,0.5,0.5S432,628.2,431.7,628.2z"/>
		<path class="st1" d="M545.7,628.2h-6c-0.3,0-0.5-0.2-0.5-0.5s0.2-0.5,0.5-0.5h6c0.3,0,0.5,0.2,0.5,0.5S546,628.2,545.7,628.2z"/>
	</g>
	<g>
		<path class="st1" d="M551.7,628.2h-6c-0.3,0-0.5-0.2-0.5-0.5s0.2-0.5,0.5-0.5h6c0.3,0,0.5,0.2,0.5,0.5S552,628.2,551.7,628.2z"/>
		<path class="st1" d="M815.7,628.2h-12c-0.3,0-0.5-0.2-0.5-0.5s0.2-0.5,0.5-0.5h12c0.3,0,0.5,0.2,0.5,0.5S816,628.2,815.7,628.2z
			 M791.7,628.2h-12c-0.3,0-0.5-0.2-0.5-0.5s0.2-0.5,0.5-0.5h12c0.3,0,0.5,0.2,0.5,0.5S792,628.2,791.7,628.2z M767.7,628.2h-12
			c-0.3,0-0.5-0.2-0.5-0.5s0.2-0.5,0.5-0.5h12c0.3,0,0.5,0.2,0.5,0.5S768,628.2,767.7,628.2z M743.7,628.2h-12
			c-0.3,0-0.5-0.2-0.5-0.5s0.2-0.5,0.5-0.5h12c0.3,0,0.5,0.2,0.5,0.5S744,628.2,743.7,628.2z M719.7,628.2h-12
			c-0.3,0-0.5-0.2-0.5-0.5s0.2-0.5,0.5-0.5h12c0.3,0,0.5,0.2,0.5,0.5S720,628.2,719.7,628.2z M695.7,628.2h-12
			c-0.3,0-0.5-0.2-0.5-0.5s0.2-0.5,0.5-0.5h12c0.3,0,0.5,0.2,0.5,0.5S696,628.2,695.7,628.2z M671.7,628.2h-12
			c-0.3,0-0.5-0.2-0.5-0.5s0.2-0.5,0.5-0.5h12c0.3,0,0.5,0.2,0.5,0.5S672,628.2,671.7,628.2z M647.7,628.2h-12
			c-0.3,0-0.5-0.2-0.5-0.5s0.2-0.5,0.5-0.5h12c0.3,0,0.5,0.2,0.5,0.5S648,628.2,647.7,628.2z M623.7,628.2h-12
			c-0.3,0-0.5-0.2-0.5-0.5s0.2-0.5,0.5-0.5h12c0.3,0,0.5,0.2,0.5,0.5S624,628.2,623.7,628.2z M599.7,628.2h-12
			c-0.3,0-0.5-0.2-0.5-0.5s0.2-0.5,0.5-0.5h12c0.3,0,0.5,0.2,0.5,0.5S600,628.2,599.7,628.2z M575.7,628.2h-12
			c-0.3,0-0.5-0.2-0.5-0.5s0.2-0.5,0.5-0.5h12c0.3,0,0.5,0.2,0.5,0.5S576,628.2,575.7,628.2z"/>
		<path class="st1" d="M833.7,628.2h-6c-0.3,0-0.5-0.2-0.5-0.5s0.2-0.5,0.5-0.5h6c0.3,0,0.5,0.2,0.5,0.5S834,628.2,833.7,628.2z"/>
	</g>
	<g>
		<path class="st1" d="M551.7,196.2h-6c-0.3,0-0.5-0.2-0.5-0.5s0.2-0.5,0.5-0.5h6c0.3,0,0.5,0.2,0.5,0.5S552,196.2,551.7,196.2z"/>
		<path class="st1" d="M815.7,196.2h-12c-0.3,0-0.5-0.2-0.5-0.5s0.2-0.5,0.5-0.5h12c0.3,0,0.5,0.2,0.5,0.5S816,196.2,815.7,196.2z
			 M791.7,196.2h-12c-0.3,0-0.5-0.2-0.5-0.5s0.2-0.5,0.5-0.5h12c0.3,0,0.5,0.2,0.5,0.5S792,196.2,791.7,196.2z M767.7,196.2h-12
			c-0.3,0-0.5-0.2-0.5-0.5s0.2-0.5,0.5-0.5h12c0.3,0,0.5,0.2,0.5,0.5S768,196.2,767.7,196.2z M743.7,196.2h-12
			c-0.3,0-0.5-0.2-0.5-0.5s0.2-0.5,0.5-0.5h12c0.3,0,0.5,0.2,0.5,0.5S744,196.2,743.7,196.2z M719.7,196.2h-12
			c-0.3,0-0.5-0.2-0.5-0.5s0.2-0.5,0.5-0.5h12c0.3,0,0.5,0.2,0.5,0.5S720,196.2,719.7,196.2z M695.7,196.2h-12
			c-0.3,0-0.5-0.2-0.5-0.5s0.2-0.5,0.5-0.5h12c0.3,0,0.5,0.2,0.5,0.5S696,196.2,695.7,196.2z M671.7,196.2h-12
			c-0.3,0-0.5-0.2-0.5-0.5s0.2-0.5,0.5-0.5h12c0.3,0,0.5,0.2,0.5,0.5S672,196.2,671.7,196.2z M647.7,196.2h-12
			c-0.3,0-0.5-0.2-0.5-0.5s0.2-0.5,0.5-0.5h12c0.3,0,0.5,0.2,0.5,0.5S648,196.2,647.7,196.2z M623.7,196.2h-12
			c-0.3,0-0.5-0.2-0.5-0.5s0.2-0.5,0.5-0.5h12c0.3,0,0.5,0.2,0.5,0.5S624,196.2,623.7,196.2z M599.7,196.2h-12
			c-0.3,0-0.5-0.2-0.5-0.5s0.2-0.5,0.5-0.5h12c0.3,0,0.5,0.2,0.5,0.5S600,196.2,599.7,196.2z M575.7,196.2h-12
			c-0.3,0-0.5-0.2-0.5-0.5s0.2-0.5,0.5-0.5h12c0.3,0,0.5,0.2,0.5,0.5S576,196.2,575.7,196.2z"/>
		<path class="st1" d="M833.7,196.2h-6c-0.3,0-0.5-0.2-0.5-0.5s0.2-0.5,0.5-0.5h6c0.3,0,0.5,0.2,0.5,0.5S834,196.2,833.7,196.2z"/>
	</g>
	<g id="frontLeft">
		<g>
			<path class="st0" d="M977.7,196.2c-0.3,0-0.5-0.2-0.5-0.5v-6c0-0.3,0.2-0.5,0.5-0.5s0.5,0.2,0.5,0.5v6
				C978.2,196,978,196.2,977.7,196.2z"/>
			<path class="st0" d="M977.7,177.5c-0.3,0-0.5-0.2-0.5-0.5v-12.7c0-0.3,0.2-0.5,0.5-0.5s0.5,0.2,0.5,0.5V177
				C978.2,177.3,978,177.5,977.7,177.5z M977.7,152.2c-0.3,0-0.5-0.2-0.5-0.5V139c0-0.3,0.2-0.5,0.5-0.5s0.5,0.2,0.5,0.5v12.7
				C978.2,152,978,152.2,977.7,152.2z M977.7,126.8c-0.3,0-0.5-0.2-0.5-0.5v-12.7c0-0.3,0.2-0.5,0.5-0.5s0.5,0.2,0.5,0.5v12.7
				C978.2,126.6,978,126.8,977.7,126.8z M977.7,101.5c-0.3,0-0.5-0.2-0.5-0.5V88.4c0-0.3,0.2-0.5,0.5-0.5s0.5,0.2,0.5,0.5V101
				C978.2,101.3,978,101.5,977.7,101.5z"/>
			<path class="st0" d="M977.7,76.2c-0.3,0-0.5-0.2-0.5-0.5v-6c0-0.3,0.2-0.5,0.5-0.5s0.5,0.2,0.5,0.5v6
				C978.2,76,978,76.2,977.7,76.2z"/>
		</g>
		<g>
			<path class="st0" d="M977.7,70.2h-6c-0.3,0-0.5-0.2-0.5-0.5s0.2-0.5,0.5-0.5h6c0.3,0,0.5,0.2,0.5,0.5S978,70.2,977.7,70.2z"/>
			<path class="st0" d="M960,70.2h-11.7c-0.3,0-0.5-0.2-0.5-0.5s0.2-0.5,0.5-0.5H960c0.3,0,0.5,0.2,0.5,0.5S960.3,70.2,960,70.2z
				 M936.7,70.2H925c-0.3,0-0.5-0.2-0.5-0.5s0.2-0.5,0.5-0.5h11.7c0.3,0,0.5,0.2,0.5,0.5S937,70.2,936.7,70.2z M913.4,70.2h-11.7
				c-0.3,0-0.5-0.2-0.5-0.5s0.2-0.5,0.5-0.5h11.7c0.3,0,0.5,0.2,0.5,0.5S913.6,70.2,913.4,70.2z M890,70.2h-11.7
				c-0.3,0-0.5-0.2-0.5-0.5s0.2-0.5,0.5-0.5H890c0.3,0,0.5,0.2,0.5,0.5S890.3,70.2,890,70.2z"/>
			<path class="st0" d="M866.7,70.2h-6c-0.3,0-0.5-0.2-0.5-0.5s0.2-0.5,0.5-0.5h6c0.3,0,0.5,0.2,0.5,0.5S867,70.2,866.7,70.2z"/>
		</g>
		<g>
			<path class="st0" d="M861,76.2c-0.2,0-0.4-0.2-0.5-0.4c-0.2-2-0.3-4-0.3-6c0-0.3,0.2-0.5,0.5-0.5s0.5,0.2,0.5,0.5
				c0,2,0.1,4,0.3,5.9C861.5,75.9,861.4,76.1,861,76.2C861.1,76.2,861.1,76.2,861,76.2z"/>
			<path class="st0" d="M898.5,121.7c0,0-0.1,0-0.1,0c-3.3-1-6.6-2.4-9.7-4.1c-0.2-0.1-0.3-0.4-0.2-0.7c0.1-0.2,0.4-0.3,0.7-0.2
				c3,1.6,6.2,3,9.5,4c0.3,0.1,0.4,0.3,0.3,0.6C898.9,121.6,898.7,121.7,898.5,121.7z M880.3,111.9c-0.1,0-0.2,0-0.3-0.1
				c-1.3-1.1-2.6-2.3-3.9-3.5c-1.2-1.2-2.4-2.5-3.5-3.9c-0.2-0.2-0.1-0.5,0.1-0.7c0.2-0.2,0.5-0.1,0.7,0.1c1.1,1.3,2.2,2.6,3.4,3.8
				c1.2,1.2,2.5,2.4,3.8,3.5c0.2,0.2,0.2,0.5,0.1,0.7C880.6,111.8,880.5,111.9,880.3,111.9z M867.3,95.9c-0.2,0-0.3-0.1-0.4-0.3
				c-1.7-3.1-3-6.3-4.1-9.6c-0.1-0.3,0.1-0.5,0.3-0.6c0.3-0.1,0.5,0.1,0.6,0.3c1,3.3,2.4,6.5,4,9.5c0.1,0.2,0,0.5-0.2,0.7
				C867.4,95.9,867.3,95.9,867.3,95.9z"/>
			<path class="st0" d="M914.7,124.2c-2,0-4-0.1-6-0.3c-0.3,0-0.5-0.3-0.4-0.5c0-0.3,0.3-0.5,0.5-0.4c2,0.2,4,0.3,5.9,0.3
				c0.3,0,0.5,0.2,0.5,0.5S915,124.2,914.7,124.2z"/>
		</g>
		<g>
			<path class="st0" d="M923.7,124.2h-6c-0.3,0-0.5-0.2-0.5-0.5s0.2-0.5,0.5-0.5h6c0.3,0,0.5,0.2,0.5,0.5S924,124.2,923.7,124.2z"/>
			<path class="st0" d="M911.7,124.2h-6c-0.3,0-0.5-0.2-0.5-0.5s0.2-0.5,0.5-0.5h6c0.3,0,0.5,0.2,0.5,0.5S912,124.2,911.7,124.2z"/>
		</g>
		<g>
			<path class="st0" d="M899.7,124.4c-0.2,0-0.5-0.2-0.5-0.4c0-0.3,0.2-0.5,0.4-0.5c2-0.2,4-0.3,6-0.3c0.3,0,0.5,0.2,0.5,0.5
				s-0.2,0.5-0.5,0.5C903.7,124.2,901.7,124.3,899.7,124.4C899.7,124.4,899.7,124.4,899.7,124.4z"/>
			<path class="st0" d="M835.7,179.1c0,0-0.1,0-0.1,0c-0.3-0.1-0.4-0.3-0.4-0.6c0.9-3.7,2.1-7.3,3.5-10.7c0.1-0.2,0.4-0.4,0.6-0.3
				c0.2,0.1,0.4,0.4,0.3,0.6c-1.4,3.4-2.6,7-3.5,10.6C836.1,179,836,179.1,835.7,179.1z M844.3,158.4c-0.1,0-0.2,0-0.3-0.1
				c-0.2-0.1-0.3-0.4-0.2-0.7c2-3.2,4.2-6.3,6.7-9.1c0.2-0.2,0.5-0.2,0.7,0s0.2,0.5,0,0.7c-2.4,2.8-4.6,5.8-6.6,9
				C844.6,158.4,844.5,158.4,844.3,158.4z M858.9,141.5c-0.1,0-0.3-0.1-0.4-0.2c-0.2-0.2-0.1-0.5,0.1-0.7c2.9-2.4,5.9-4.7,9.1-6.7
				c0.2-0.1,0.5-0.1,0.7,0.2c0.1,0.2,0.1,0.5-0.2,0.7c-3.2,1.9-6.2,4.2-9,6.6C859.1,141.4,859,141.5,858.9,141.5z M878,129.7
				c-0.2,0-0.4-0.1-0.4-0.3c-0.1-0.2,0-0.5,0.3-0.6c3.5-1.4,7.1-2.6,10.7-3.5c0.3-0.1,0.5,0.1,0.6,0.4c0.1,0.3-0.1,0.5-0.4,0.6
				c-3.6,0.9-7.2,2.1-10.6,3.5C878.1,129.7,878,129.7,878,129.7z"/>
			<path class="st0" d="M833.7,196.2c-0.3,0-0.5-0.2-0.5-0.5c0-2,0.1-4,0.2-6c0-0.3,0.3-0.5,0.5-0.4c0.3,0,0.5,0.3,0.4,0.5
				c-0.2,2-0.2,4-0.2,6C834.2,196,834,196.2,833.7,196.2z"/>
		</g>
		<g>
			<path class="st1" d="M839.7,196.2h-6c-0.3,0-0.5-0.2-0.5-0.5s0.2-0.5,0.5-0.5h6c0.3,0,0.5,0.2,0.5,0.5S840,196.2,839.7,196.2z"/>
			<path class="st1" d="M959.7,196.2h-12c-0.3,0-0.5-0.2-0.5-0.5s0.2-0.5,0.5-0.5h12c0.3,0,0.5,0.2,0.5,0.5S960,196.2,959.7,196.2z
				 M935.7,196.2h-12c-0.3,0-0.5-0.2-0.5-0.5s0.2-0.5,0.5-0.5h12c0.3,0,0.5,0.2,0.5,0.5S936,196.2,935.7,196.2z M911.7,196.2h-12
				c-0.3,0-0.5-0.2-0.5-0.5s0.2-0.5,0.5-0.5h12c0.3,0,0.5,0.2,0.5,0.5S912,196.2,911.7,196.2z M887.7,196.2h-12
				c-0.3,0-0.5-0.2-0.5-0.5s0.2-0.5,0.5-0.5h12c0.3,0,0.5,0.2,0.5,0.5S888,196.2,887.7,196.2z M863.7,196.2h-12
				c-0.3,0-0.5-0.2-0.5-0.5s0.2-0.5,0.5-0.5h12c0.3,0,0.5,0.2,0.5,0.5S864,196.2,863.7,196.2z"/>
			<path class="st1" d="M977.7,196.2h-6c-0.3,0-0.5-0.2-0.5-0.5s0.2-0.5,0.5-0.5h6c0.3,0,0.5,0.2,0.5,0.5S978,196.2,977.7,196.2z"/>
		</g>
	</g>
	<g id="front">
		<g>
			<path class="st1" d="M833.7,628.2c-0.3,0-0.5-0.2-0.5-0.5v-6c0-0.3,0.2-0.5,0.5-0.5s0.5,0.2,0.5,0.5v6
				C834.2,628,834,628.2,833.7,628.2z"/>
			<path class="st1" d="M833.7,610.2c-0.3,0-0.5-0.2-0.5-0.5v-12c0-0.3,0.2-0.5,0.5-0.5s0.5,0.2,0.5,0.5v12
				C834.2,610,834,610.2,833.7,610.2z M833.7,586.2c-0.3,0-0.5-0.2-0.5-0.5v-12c0-0.3,0.2-0.5,0.5-0.5s0.5,0.2,0.5,0.5v12
				C834.2,586,834,586.2,833.7,586.2z M833.7,562.2c-0.3,0-0.5-0.2-0.5-0.5v-12c0-0.3,0.2-0.5,0.5-0.5s0.5,0.2,0.5,0.5v12
				C834.2,562,834,562.2,833.7,562.2z M833.7,538.2c-0.3,0-0.5-0.2-0.5-0.5v-12c0-0.3,0.2-0.5,0.5-0.5s0.5,0.2,0.5,0.5v12
				C834.2,538,834,538.2,833.7,538.2z M833.7,514.2c-0.3,0-0.5-0.2-0.5-0.5v-12c0-0.3,0.2-0.5,0.5-0.5s0.5,0.2,0.5,0.5v12
				C834.2,514,834,514.2,833.7,514.2z M833.7,490.2c-0.3,0-0.5-0.2-0.5-0.5v-12c0-0.3,0.2-0.5,0.5-0.5s0.5,0.2,0.5,0.5v12
				C834.2,490,834,490.2,833.7,490.2z M833.7,466.2c-0.3,0-0.5-0.2-0.5-0.5v-12c0-0.3,0.2-0.5,0.5-0.5s0.5,0.2,0.5,0.5v12
				C834.2,466,834,466.2,833.7,466.2z M833.7,442.2c-0.3,0-0.5-0.2-0.5-0.5v-12c0-0.3,0.2-0.5,0.5-0.5s0.5,0.2,0.5,0.5v12
				C834.2,442,834,442.2,833.7,442.2z M833.7,418.2c-0.3,0-0.5-0.2-0.5-0.5v-12c0-0.3,0.2-0.5,0.5-0.5s0.5,0.2,0.5,0.5v12
				C834.2,418,834,418.2,833.7,418.2z M833.7,394.2c-0.3,0-0.5-0.2-0.5-0.5v-12c0-0.3,0.2-0.5,0.5-0.5s0.5,0.2,0.5,0.5v12
				C834.2,394,834,394.2,833.7,394.2z M833.7,370.2c-0.3,0-0.5-0.2-0.5-0.5v-12c0-0.3,0.2-0.5,0.5-0.5s0.5,0.2,0.5,0.5v12
				C834.2,370,834,370.2,833.7,370.2z M833.7,346.2c-0.3,0-0.5-0.2-0.5-0.5v-12c0-0.3,0.2-0.5,0.5-0.5s0.5,0.2,0.5,0.5v12
				C834.2,346,834,346.2,833.7,346.2z M833.7,322.2c-0.3,0-0.5-0.2-0.5-0.5v-12c0-0.3,0.2-0.5,0.5-0.5s0.5,0.2,0.5,0.5v12
				C834.2,322,834,322.2,833.7,322.2z M833.7,298.2c-0.3,0-0.5-0.2-0.5-0.5v-12c0-0.3,0.2-0.5,0.5-0.5s0.5,0.2,0.5,0.5v12
				C834.2,298,834,298.2,833.7,298.2z M833.7,274.2c-0.3,0-0.5-0.2-0.5-0.5v-12c0-0.3,0.2-0.5,0.5-0.5s0.5,0.2,0.5,0.5v12
				C834.2,274,834,274.2,833.7,274.2z M833.7,250.2c-0.3,0-0.5-0.2-0.5-0.5v-12c0-0.3,0.2-0.5,0.5-0.5s0.5,0.2,0.5,0.5v12
				C834.2,250,834,250.2,833.7,250.2z M833.7,226.2c-0.3,0-0.5-0.2-0.5-0.5v-12c0-0.3,0.2-0.5,0.5-0.5s0.5,0.2,0.5,0.5v12
				C834.2,226,834,226.2,833.7,226.2z"/>
			<path class="st1" d="M833.7,202.2c-0.3,0-0.5-0.2-0.5-0.5v-6c0-0.3,0.2-0.5,0.5-0.5s0.5,0.2,0.5,0.5v6
				C834.2,202,834,202.2,833.7,202.2z"/>
		</g>
		<g>
			<path class="st1" d="M839.7,196.2h-6c-0.3,0-0.5-0.2-0.5-0.5s0.2-0.5,0.5-0.5h6c0.3,0,0.5,0.2,0.5,0.5S840,196.2,839.7,196.2z"/>
			<path class="st1" d="M959.7,196.2h-12c-0.3,0-0.5-0.2-0.5-0.5s0.2-0.5,0.5-0.5h12c0.3,0,0.5,0.2,0.5,0.5S960,196.2,959.7,196.2z
				 M935.7,196.2h-12c-0.3,0-0.5-0.2-0.5-0.5s0.2-0.5,0.5-0.5h12c0.3,0,0.5,0.2,0.5,0.5S936,196.2,935.7,196.2z M911.7,196.2h-12
				c-0.3,0-0.5-0.2-0.5-0.5s0.2-0.5,0.5-0.5h12c0.3,0,0.5,0.2,0.5,0.5S912,196.2,911.7,196.2z M887.7,196.2h-12
				c-0.3,0-0.5-0.2-0.5-0.5s0.2-0.5,0.5-0.5h12c0.3,0,0.5,0.2,0.5,0.5S888,196.2,887.7,196.2z M863.7,196.2h-12
				c-0.3,0-0.5-0.2-0.5-0.5s0.2-0.5,0.5-0.5h12c0.3,0,0.5,0.2,0.5,0.5S864,196.2,863.7,196.2z"/>
			<path class="st1" d="M977.7,196.2h-6c-0.3,0-0.5-0.2-0.5-0.5s0.2-0.5,0.5-0.5h6c0.3,0,0.5,0.2,0.5,0.5S978,196.2,977.7,196.2z"/>
		</g>
		<g>
			<path class="st0" d="M977.7,202.2c-0.3,0-0.5-0.2-0.5-0.5v-6c0-0.3,0.2-0.5,0.5-0.5s0.5,0.2,0.5,0.5v6
				C978.2,202,978,202.2,977.7,202.2z"/>
			<path class="st0" d="M977.7,610.2c-0.3,0-0.5-0.2-0.5-0.5v-12c0-0.3,0.2-0.5,0.5-0.5s0.5,0.2,0.5,0.5v12
				C978.2,610,978,610.2,977.7,610.2z M977.7,586.2c-0.3,0-0.5-0.2-0.5-0.5v-12c0-0.3,0.2-0.5,0.5-0.5s0.5,0.2,0.5,0.5v12
				C978.2,586,978,586.2,977.7,586.2z M977.7,562.2c-0.3,0-0.5-0.2-0.5-0.5v-12c0-0.3,0.2-0.5,0.5-0.5s0.5,0.2,0.5,0.5v12
				C978.2,562,978,562.2,977.7,562.2z M977.7,538.2c-0.3,0-0.5-0.2-0.5-0.5v-12c0-0.3,0.2-0.5,0.5-0.5s0.5,0.2,0.5,0.5v12
				C978.2,538,978,538.2,977.7,538.2z M977.7,514.2c-0.3,0-0.5-0.2-0.5-0.5v-12c0-0.3,0.2-0.5,0.5-0.5s0.5,0.2,0.5,0.5v12
				C978.2,514,978,514.2,977.7,514.2z M977.7,490.2c-0.3,0-0.5-0.2-0.5-0.5v-12c0-0.3,0.2-0.5,0.5-0.5s0.5,0.2,0.5,0.5v12
				C978.2,490,978,490.2,977.7,490.2z M977.7,466.2c-0.3,0-0.5-0.2-0.5-0.5v-12c0-0.3,0.2-0.5,0.5-0.5s0.5,0.2,0.5,0.5v12
				C978.2,466,978,466.2,977.7,466.2z M977.7,442.2c-0.3,0-0.5-0.2-0.5-0.5v-12c0-0.3,0.2-0.5,0.5-0.5s0.5,0.2,0.5,0.5v12
				C978.2,442,978,442.2,977.7,442.2z M977.7,418.2c-0.3,0-0.5-0.2-0.5-0.5v-12c0-0.3,0.2-0.5,0.5-0.5s0.5,0.2,0.5,0.5v12
				C978.2,418,978,418.2,977.7,418.2z M977.7,394.2c-0.3,0-0.5-0.2-0.5-0.5v-12c0-0.3,0.2-0.5,0.5-0.5s0.5,0.2,0.5,0.5v12
				C978.2,394,978,394.2,977.7,394.2z M977.7,370.2c-0.3,0-0.5-0.2-0.5-0.5v-12c0-0.3,0.2-0.5,0.5-0.5s0.5,0.2,0.5,0.5v12
				C978.2,370,978,370.2,977.7,370.2z M977.7,346.2c-0.3,0-0.5-0.2-0.5-0.5v-12c0-0.3,0.2-0.5,0.5-0.5s0.5,0.2,0.5,0.5v12
				C978.2,346,978,346.2,977.7,346.2z M977.7,322.2c-0.3,0-0.5-0.2-0.5-0.5v-12c0-0.3,0.2-0.5,0.5-0.5s0.5,0.2,0.5,0.5v12
				C978.2,322,978,322.2,977.7,322.2z M977.7,298.2c-0.3,0-0.5-0.2-0.5-0.5v-12c0-0.3,0.2-0.5,0.5-0.5s0.5,0.2,0.5,0.5v12
				C978.2,298,978,298.2,977.7,298.2z M977.7,274.2c-0.3,0-0.5-0.2-0.5-0.5v-12c0-0.3,0.2-0.5,0.5-0.5s0.5,0.2,0.5,0.5v12
				C978.2,274,978,274.2,977.7,274.2z M977.7,250.2c-0.3,0-0.5-0.2-0.5-0.5v-12c0-0.3,0.2-0.5,0.5-0.5s0.5,0.2,0.5,0.5v12
				C978.2,250,978,250.2,977.7,250.2z M977.7,226.2c-0.3,0-0.5-0.2-0.5-0.5v-12c0-0.3,0.2-0.5,0.5-0.5s0.5,0.2,0.5,0.5v12
				C978.2,226,978,226.2,977.7,226.2z"/>
			<path class="st0" d="M977.7,628.2c-0.3,0-0.5-0.2-0.5-0.5v-6c0-0.3,0.2-0.5,0.5-0.5s0.5,0.2,0.5,0.5v6
				C978.2,628,978,628.2,977.7,628.2z"/>
		</g>
		<g>
			<path class="st1" d="M977.7,628.2h-6c-0.3,0-0.5-0.2-0.5-0.5s0.2-0.5,0.5-0.5h6c0.3,0,0.5,0.2,0.5,0.5S978,628.2,977.7,628.2z"/>
			<path class="st1" d="M959.7,628.2h-12c-0.3,0-0.5-0.2-0.5-0.5s0.2-0.5,0.5-0.5h12c0.3,0,0.5,0.2,0.5,0.5S960,628.2,959.7,628.2z
				 M935.7,628.2h-12c-0.3,0-0.5-0.2-0.5-0.5s0.2-0.5,0.5-0.5h12c0.3,0,0.5,0.2,0.5,0.5S936,628.2,935.7,628.2z M911.7,628.2h-12
				c-0.3,0-0.5-0.2-0.5-0.5s0.2-0.5,0.5-0.5h12c0.3,0,0.5,0.2,0.5,0.5S912,628.2,911.7,628.2z M887.7,628.2h-12
				c-0.3,0-0.5-0.2-0.5-0.5s0.2-0.5,0.5-0.5h12c0.3,0,0.5,0.2,0.5,0.5S888,628.2,887.7,628.2z M863.7,628.2h-12
				c-0.3,0-0.5-0.2-0.5-0.5s0.2-0.5,0.5-0.5h12c0.3,0,0.5,0.2,0.5,0.5S864,628.2,863.7,628.2z"/>
			<path class="st1" d="M839.7,628.2h-6c-0.3,0-0.5-0.2-0.5-0.5s0.2-0.5,0.5-0.5h6c0.3,0,0.5,0.2,0.5,0.5S840,628.2,839.7,628.2z"/>
		</g>
	</g>
	<g id="front2" class="st2">
		<g class="st3">
			<path class="st1" d="M833.7,628.2c-0.3,0-0.5-0.2-0.5-0.5v-6c0-0.3,0.2-0.5,0.5-0.5s0.5,0.2,0.5,0.5v6
				C834.2,628,834,628.2,833.7,628.2z"/>
			<path class="st1" d="M833.7,610.2c-0.3,0-0.5-0.2-0.5-0.5v-12c0-0.3,0.2-0.5,0.5-0.5s0.5,0.2,0.5,0.5v12
				C834.2,610,834,610.2,833.7,610.2z M833.7,586.2c-0.3,0-0.5-0.2-0.5-0.5v-12c0-0.3,0.2-0.5,0.5-0.5s0.5,0.2,0.5,0.5v12
				C834.2,586,834,586.2,833.7,586.2z M833.7,562.2c-0.3,0-0.5-0.2-0.5-0.5v-12c0-0.3,0.2-0.5,0.5-0.5s0.5,0.2,0.5,0.5v12
				C834.2,562,834,562.2,833.7,562.2z M833.7,538.2c-0.3,0-0.5-0.2-0.5-0.5v-12c0-0.3,0.2-0.5,0.5-0.5s0.5,0.2,0.5,0.5v12
				C834.2,538,834,538.2,833.7,538.2z M833.7,514.2c-0.3,0-0.5-0.2-0.5-0.5v-12c0-0.3,0.2-0.5,0.5-0.5s0.5,0.2,0.5,0.5v12
				C834.2,514,834,514.2,833.7,514.2z M833.7,490.2c-0.3,0-0.5-0.2-0.5-0.5v-12c0-0.3,0.2-0.5,0.5-0.5s0.5,0.2,0.5,0.5v12
				C834.2,490,834,490.2,833.7,490.2z M833.7,466.2c-0.3,0-0.5-0.2-0.5-0.5v-12c0-0.3,0.2-0.5,0.5-0.5s0.5,0.2,0.5,0.5v12
				C834.2,466,834,466.2,833.7,466.2z M833.7,442.2c-0.3,0-0.5-0.2-0.5-0.5v-12c0-0.3,0.2-0.5,0.5-0.5s0.5,0.2,0.5,0.5v12
				C834.2,442,834,442.2,833.7,442.2z M833.7,418.2c-0.3,0-0.5-0.2-0.5-0.5v-12c0-0.3,0.2-0.5,0.5-0.5s0.5,0.2,0.5,0.5v12
				C834.2,418,834,418.2,833.7,418.2z M833.7,394.2c-0.3,0-0.5-0.2-0.5-0.5v-12c0-0.3,0.2-0.5,0.5-0.5s0.5,0.2,0.5,0.5v12
				C834.2,394,834,394.2,833.7,394.2z M833.7,370.2c-0.3,0-0.5-0.2-0.5-0.5v-12c0-0.3,0.2-0.5,0.5-0.5s0.5,0.2,0.5,0.5v12
				C834.2,370,834,370.2,833.7,370.2z M833.7,346.2c-0.3,0-0.5-0.2-0.5-0.5v-12c0-0.3,0.2-0.5,0.5-0.5s0.5,0.2,0.5,0.5v12
				C834.2,346,834,346.2,833.7,346.2z M833.7,322.2c-0.3,0-0.5-0.2-0.5-0.5v-12c0-0.3,0.2-0.5,0.5-0.5s0.5,0.2,0.5,0.5v12
				C834.2,322,834,322.2,833.7,322.2z M833.7,298.2c-0.3,0-0.5-0.2-0.5-0.5v-12c0-0.3,0.2-0.5,0.5-0.5s0.5,0.2,0.5,0.5v12
				C834.2,298,834,298.2,833.7,298.2z M833.7,274.2c-0.3,0-0.5-0.2-0.5-0.5v-12c0-0.3,0.2-0.5,0.5-0.5s0.5,0.2,0.5,0.5v12
				C834.2,274,834,274.2,833.7,274.2z M833.7,250.2c-0.3,0-0.5-0.2-0.5-0.5v-12c0-0.3,0.2-0.5,0.5-0.5s0.5,0.2,0.5,0.5v12
				C834.2,250,834,250.2,833.7,250.2z M833.7,226.2c-0.3,0-0.5-0.2-0.5-0.5v-12c0-0.3,0.2-0.5,0.5-0.5s0.5,0.2,0.5,0.5v12
				C834.2,226,834,226.2,833.7,226.2z"/>
			<path class="st1" d="M833.7,202.2c-0.3,0-0.5-0.2-0.5-0.5v-6c0-0.3,0.2-0.5,0.5-0.5s0.5,0.2,0.5,0.5v6
				C834.2,202,834,202.2,833.7,202.2z"/>
		</g>
		<g class="st3">
			<path class="st0" d="M977.7,202.2c-0.3,0-0.5-0.2-0.5-0.5v-6c0-0.3,0.2-0.5,0.5-0.5s0.5,0.2,0.5,0.5v6
				C978.2,202,978,202.2,977.7,202.2z"/>
			<path class="st0" d="M977.7,610.2c-0.3,0-0.5-0.2-0.5-0.5v-12c0-0.3,0.2-0.5,0.5-0.5s0.5,0.2,0.5,0.5v12
				C978.2,610,978,610.2,977.7,610.2z M977.7,586.2c-0.3,0-0.5-0.2-0.5-0.5v-12c0-0.3,0.2-0.5,0.5-0.5s0.5,0.2,0.5,0.5v12
				C978.2,586,978,586.2,977.7,586.2z M977.7,562.2c-0.3,0-0.5-0.2-0.5-0.5v-12c0-0.3,0.2-0.5,0.5-0.5s0.5,0.2,0.5,0.5v12
				C978.2,562,978,562.2,977.7,562.2z M977.7,538.2c-0.3,0-0.5-0.2-0.5-0.5v-12c0-0.3,0.2-0.5,0.5-0.5s0.5,0.2,0.5,0.5v12
				C978.2,538,978,538.2,977.7,538.2z M977.7,514.2c-0.3,0-0.5-0.2-0.5-0.5v-12c0-0.3,0.2-0.5,0.5-0.5s0.5,0.2,0.5,0.5v12
				C978.2,514,978,514.2,977.7,514.2z M977.7,490.2c-0.3,0-0.5-0.2-0.5-0.5v-12c0-0.3,0.2-0.5,0.5-0.5s0.5,0.2,0.5,0.5v12
				C978.2,490,978,490.2,977.7,490.2z M977.7,466.2c-0.3,0-0.5-0.2-0.5-0.5v-12c0-0.3,0.2-0.5,0.5-0.5s0.5,0.2,0.5,0.5v12
				C978.2,466,978,466.2,977.7,466.2z M977.7,442.2c-0.3,0-0.5-0.2-0.5-0.5v-12c0-0.3,0.2-0.5,0.5-0.5s0.5,0.2,0.5,0.5v12
				C978.2,442,978,442.2,977.7,442.2z M977.7,418.2c-0.3,0-0.5-0.2-0.5-0.5v-12c0-0.3,0.2-0.5,0.5-0.5s0.5,0.2,0.5,0.5v12
				C978.2,418,978,418.2,977.7,418.2z M977.7,394.2c-0.3,0-0.5-0.2-0.5-0.5v-12c0-0.3,0.2-0.5,0.5-0.5s0.5,0.2,0.5,0.5v12
				C978.2,394,978,394.2,977.7,394.2z M977.7,370.2c-0.3,0-0.5-0.2-0.5-0.5v-12c0-0.3,0.2-0.5,0.5-0.5s0.5,0.2,0.5,0.5v12
				C978.2,370,978,370.2,977.7,370.2z M977.7,346.2c-0.3,0-0.5-0.2-0.5-0.5v-12c0-0.3,0.2-0.5,0.5-0.5s0.5,0.2,0.5,0.5v12
				C978.2,346,978,346.2,977.7,346.2z M977.7,322.2c-0.3,0-0.5-0.2-0.5-0.5v-12c0-0.3,0.2-0.5,0.5-0.5s0.5,0.2,0.5,0.5v12
				C978.2,322,978,322.2,977.7,322.2z M977.7,298.2c-0.3,0-0.5-0.2-0.5-0.5v-12c0-0.3,0.2-0.5,0.5-0.5s0.5,0.2,0.5,0.5v12
				C978.2,298,978,298.2,977.7,298.2z M977.7,274.2c-0.3,0-0.5-0.2-0.5-0.5v-12c0-0.3,0.2-0.5,0.5-0.5s0.5,0.2,0.5,0.5v12
				C978.2,274,978,274.2,977.7,274.2z M977.7,250.2c-0.3,0-0.5-0.2-0.5-0.5v-12c0-0.3,0.2-0.5,0.5-0.5s0.5,0.2,0.5,0.5v12
				C978.2,250,978,250.2,977.7,250.2z M977.7,226.2c-0.3,0-0.5-0.2-0.5-0.5v-12c0-0.3,0.2-0.5,0.5-0.5s0.5,0.2,0.5,0.5v12
				C978.2,226,978,226.2,977.7,226.2z"/>
			<path class="st0" d="M977.7,628.2c-0.3,0-0.5-0.2-0.5-0.5v-6c0-0.3,0.2-0.5,0.5-0.5s0.5,0.2,0.5,0.5v6
				C978.2,628,978,628.2,977.7,628.2z"/>
		</g>
		<g class="st3">
			<path class="st1" d="M977.7,628.2h-6c-0.3,0-0.5-0.2-0.5-0.5s0.2-0.5,0.5-0.5h6c0.3,0,0.5,0.2,0.5,0.5S978,628.2,977.7,628.2z"/>
			<path class="st1" d="M959.7,628.2h-12c-0.3,0-0.5-0.2-0.5-0.5s0.2-0.5,0.5-0.5h12c0.3,0,0.5,0.2,0.5,0.5S960,628.2,959.7,628.2z
				 M935.7,628.2h-12c-0.3,0-0.5-0.2-0.5-0.5s0.2-0.5,0.5-0.5h12c0.3,0,0.5,0.2,0.5,0.5S936,628.2,935.7,628.2z M911.7,628.2h-12
				c-0.3,0-0.5-0.2-0.5-0.5s0.2-0.5,0.5-0.5h12c0.3,0,0.5,0.2,0.5,0.5S912,628.2,911.7,628.2z M887.7,628.2h-12
				c-0.3,0-0.5-0.2-0.5-0.5s0.2-0.5,0.5-0.5h12c0.3,0,0.5,0.2,0.5,0.5S888,628.2,887.7,628.2z M863.7,628.2h-12
				c-0.3,0-0.5-0.2-0.5-0.5s0.2-0.5,0.5-0.5h12c0.3,0,0.5,0.2,0.5,0.5S864,628.2,863.7,628.2z"/>
			<path class="st1" d="M839.7,628.2h-6c-0.3,0-0.5-0.2-0.5-0.5s0.2-0.5,0.5-0.5h6c0.3,0,0.5,0.2,0.5,0.5S840,628.2,839.7,628.2z"/>
		</g>
	</g>
	<g id="asdfasdfadsfasdfasdfadfa">
	</g>
	<g id="asfasdfadsfasdfasdfasdfa">
	</g>
	<g id="asdfasdfadsfasdfasdasdfa">
	</g>
	<g id="asdfasdfasfasdfasdfasdfa">
	</g>
	<g id="asdfasdfadsfasdfasdfasda">
	</g>
	<g id="sdfasdfadsfasdfasdfasdfa">
	</g>
	<g id="bottomLeft">
		<path class="st0" d="M761.7,124.2c-0.3,0-0.5-0.2-0.5-0.5v-9c0-0.3,0.2-0.5,0.5-0.5s0.5,0.2,0.5,0.5v9
			C762.2,124,762,124.2,761.7,124.2z"/>
		<g>
			<path class="st0" d="M761.7,115.2c-0.3,0-0.5-0.2-0.5-0.5c0-1.9-0.7-3.8-1.8-5.3c-0.2-0.2-0.1-0.5,0.1-0.7
				c0.2-0.2,0.5-0.1,0.7,0.1c1.3,1.7,2,3.8,2,5.9C762.2,115,762,115.2,761.7,115.2z"/>
			<path class="st0" d="M758.3,108.1c-0.1,0-0.2,0-0.3-0.1c-1.5-1.2-3.3-1.8-5.3-1.8c-0.3,0-0.5-0.2-0.5-0.5s0.2-0.5,0.5-0.5
				c2.1,0,4.2,0.7,5.9,2c0.2,0.2,0.2,0.5,0.1,0.7C758.5,108.1,758.4,108.1,758.3,108.1z"/>
		</g>
		<g>
			<path class="st0" d="M752.7,106.2h-6c-0.3,0-0.5-0.2-0.5-0.5s0.2-0.5,0.5-0.5h6c0.3,0,0.5,0.2,0.5,0.5S753,106.2,752.7,106.2z"/>
			<path class="st0" d="M734,106.2h-12.7c-0.3,0-0.5-0.2-0.5-0.5s0.2-0.5,0.5-0.5H734c0.3,0,0.5,0.2,0.5,0.5S734.3,106.2,734,106.2z
				 M708.7,106.2H696c-0.3,0-0.5-0.2-0.5-0.5s0.2-0.5,0.5-0.5h12.7c0.3,0,0.5,0.2,0.5,0.5S709,106.2,708.7,106.2z M683.4,106.2
				h-12.7c-0.3,0-0.5-0.2-0.5-0.5s0.2-0.5,0.5-0.5h12.7c0.3,0,0.5,0.2,0.5,0.5S683.6,106.2,683.4,106.2z M658,106.2h-12.7
				c-0.3,0-0.5-0.2-0.5-0.5s0.2-0.5,0.5-0.5H658c0.3,0,0.5,0.2,0.5,0.5S658.3,106.2,658,106.2z"/>
			<path class="st0" d="M632.7,106.2h-6c-0.3,0-0.5-0.2-0.5-0.5s0.2-0.5,0.5-0.5h6c0.3,0,0.5,0.2,0.5,0.5S633,106.2,632.7,106.2z"/>
		</g>
		<g>
			<path class="st0" d="M621.1,108.1c-0.1,0-0.3-0.1-0.4-0.2c-0.2-0.2-0.1-0.5,0.1-0.7c1.7-1.3,3.8-2.1,5.9-2.1
				c0.3,0,0.5,0.2,0.5,0.5s-0.2,0.5-0.5,0.5c-1.9,0-3.8,0.7-5.3,1.9C621.4,108.1,621.2,108.1,621.1,108.1z"/>
			<path class="st0" d="M617.7,115.2c-0.3,0-0.5-0.2-0.5-0.5c0-2.1,0.7-4.2,2.1-5.9c0.2-0.2,0.5-0.2,0.7-0.1
				c0.2,0.2,0.2,0.5,0.1,0.7c-1.2,1.5-1.9,3.4-1.9,5.3C618.2,115,618,115.2,617.7,115.2z"/>
		</g>
		<path class="st0" d="M617.7,124.2c-0.3,0-0.5-0.2-0.5-0.5v-9c0-0.3,0.2-0.5,0.5-0.5s0.5,0.2,0.5,0.5v9
			C618.2,124,618,124.2,617.7,124.2z"/>
		<g>
			<path class="st0" d="M833.7,196.2c-0.3,0-0.5-0.2-0.5-0.5v-6c0-0.3,0.2-0.5,0.5-0.5s0.5,0.2,0.5,0.5v6
				C834.2,196,834,196.2,833.7,196.2z"/>
			<path class="st0" d="M833.7,178.2c-0.3,0-0.5-0.2-0.5-0.5v-12c0-0.3,0.2-0.5,0.5-0.5s0.5,0.2,0.5,0.5v12
				C834.2,178,834,178.2,833.7,178.2z M833.7,154.2c-0.3,0-0.5-0.2-0.5-0.5v-12c0-0.3,0.2-0.5,0.5-0.5s0.5,0.2,0.5,0.5v12
				C834.2,154,834,154.2,833.7,154.2z M833.7,130.2c-0.3,0-0.5-0.2-0.5-0.5v-12c0-0.3,0.2-0.5,0.5-0.5s0.5,0.2,0.5,0.5v12
				C834.2,130,834,130.2,833.7,130.2z M833.7,106.2c-0.3,0-0.5-0.2-0.5-0.5v-12c0-0.3,0.2-0.5,0.5-0.5s0.5,0.2,0.5,0.5v12
				C834.2,106,834,106.2,833.7,106.2z M833.7,82.2c-0.3,0-0.5-0.2-0.5-0.5v-12c0-0.3,0.2-0.5,0.5-0.5s0.5,0.2,0.5,0.5v12
				C834.2,82,834,82.2,833.7,82.2z"/>
			<path class="st0" d="M833.7,58.2c-0.3,0-0.5-0.2-0.5-0.5v-6c0-0.3,0.2-0.5,0.5-0.5s0.5,0.2,0.5,0.5v6
				C834.2,58,834,58.2,833.7,58.2z"/>
		</g>
		<g>
			<path class="st0" d="M833.7,52.2h-6c-0.3,0-0.5-0.2-0.5-0.5s0.2-0.5,0.5-0.5h6c0.3,0,0.5,0.2,0.5,0.5S834,52.2,833.7,52.2z"/>
			<path class="st0" d="M815.7,52.2h-12c-0.3,0-0.5-0.2-0.5-0.5s0.2-0.5,0.5-0.5h12c0.3,0,0.5,0.2,0.5,0.5S816,52.2,815.7,52.2z
				 M791.7,52.2h-12c-0.3,0-0.5-0.2-0.5-0.5s0.2-0.5,0.5-0.5h12c0.3,0,0.5,0.2,0.5,0.5S792,52.2,791.7,52.2z M767.7,52.2h-12
				c-0.3,0-0.5-0.2-0.5-0.5s0.2-0.5,0.5-0.5h12c0.3,0,0.5,0.2,0.5,0.5S768,52.2,767.7,52.2z M743.7,52.2h-12c-0.3,0-0.5-0.2-0.5-0.5
				s0.2-0.5,0.5-0.5h12c0.3,0,0.5,0.2,0.5,0.5S744,52.2,743.7,52.2z M719.7,52.2h-12c-0.3,0-0.5-0.2-0.5-0.5s0.2-0.5,0.5-0.5h12
				c0.3,0,0.5,0.2,0.5,0.5S720,52.2,719.7,52.2z M695.7,52.2h-12c-0.3,0-0.5-0.2-0.5-0.5s0.2-0.5,0.5-0.5h12c0.3,0,0.5,0.2,0.5,0.5
				S696,52.2,695.7,52.2z M671.7,52.2h-12c-0.3,0-0.5-0.2-0.5-0.5s0.2-0.5,0.5-0.5h12c0.3,0,0.5,0.2,0.5,0.5S672,52.2,671.7,52.2z
				 M647.7,52.2h-12c-0.3,0-0.5-0.2-0.5-0.5s0.2-0.5,0.5-0.5h12c0.3,0,0.5,0.2,0.5,0.5S648,52.2,647.7,52.2z M623.7,52.2h-12
				c-0.3,0-0.5-0.2-0.5-0.5s0.2-0.5,0.5-0.5h12c0.3,0,0.5,0.2,0.5,0.5S624,52.2,623.7,52.2z M599.7,52.2h-12c-0.3,0-0.5-0.2-0.5-0.5
				s0.2-0.5,0.5-0.5h12c0.3,0,0.5,0.2,0.5,0.5S600,52.2,599.7,52.2z M575.7,52.2h-12c-0.3,0-0.5-0.2-0.5-0.5s0.2-0.5,0.5-0.5h12
				c0.3,0,0.5,0.2,0.5,0.5S576,52.2,575.7,52.2z"/>
			<path class="st0" d="M551.7,52.2h-6c-0.3,0-0.5-0.2-0.5-0.5s0.2-0.5,0.5-0.5h6c0.3,0,0.5,0.2,0.5,0.5S552,52.2,551.7,52.2z"/>
		</g>
		<g>
			<path class="st0" d="M545.7,58.2c-0.3,0-0.5-0.2-0.5-0.5v-6c0-0.3,0.2-0.5,0.5-0.5s0.5,0.2,0.5,0.5v6
				C546.2,58,546,58.2,545.7,58.2z"/>
			<path class="st0" d="M545.7,178.2c-0.3,0-0.5-0.2-0.5-0.5v-12c0-0.3,0.2-0.5,0.5-0.5s0.5,0.2,0.5,0.5v12
				C546.2,178,546,178.2,545.7,178.2z M545.7,154.2c-0.3,0-0.5-0.2-0.5-0.5v-12c0-0.3,0.2-0.5,0.5-0.5s0.5,0.2,0.5,0.5v12
				C546.2,154,546,154.2,545.7,154.2z M545.7,130.2c-0.3,0-0.5-0.2-0.5-0.5v-12c0-0.3,0.2-0.5,0.5-0.5s0.5,0.2,0.5,0.5v12
				C546.2,130,546,130.2,545.7,130.2z M545.7,106.2c-0.3,0-0.5-0.2-0.5-0.5v-12c0-0.3,0.2-0.5,0.5-0.5s0.5,0.2,0.5,0.5v12
				C546.2,106,546,106.2,545.7,106.2z M545.7,82.2c-0.3,0-0.5-0.2-0.5-0.5v-12c0-0.3,0.2-0.5,0.5-0.5s0.5,0.2,0.5,0.5v12
				C546.2,82,546,82.2,545.7,82.2z"/>
			<path class="st0" d="M545.7,196.2c-0.3,0-0.5-0.2-0.5-0.5v-6c0-0.3,0.2-0.5,0.5-0.5s0.5,0.2,0.5,0.5v6
				C546.2,196,546,196.2,545.7,196.2z"/>
		</g>
	</g>
	<g id="backLeft">
		<g>
			<path class="st0" d="M545.7,196.2c-0.3,0-0.5-0.2-0.5-0.5c0-2-0.1-4-0.2-6c0-0.3,0.2-0.5,0.4-0.5c0.3,0,0.5,0.2,0.5,0.4
				c0.2,2,0.3,4,0.3,6C546.2,196,546,196.2,545.7,196.2z"/>
			<path class="st0" d="M543.6,179.1c-0.2,0-0.4-0.1-0.5-0.4c-0.9-3.6-2.1-7.2-3.5-10.6c-0.1-0.2,0-0.5,0.3-0.6
				c0.2-0.1,0.5,0,0.6,0.3c1.5,3.5,2.6,7.1,3.5,10.7c0.1,0.3-0.1,0.5-0.4,0.6C543.7,179.1,543.7,179.1,543.6,179.1z M535,158.5
				c-0.2,0-0.3-0.1-0.4-0.2c-1.9-3.2-4.2-6.2-6.6-9c-0.2-0.2-0.1-0.5,0.1-0.7c0.2-0.2,0.5-0.1,0.7,0.1c2.4,2.9,4.7,5.9,6.7,9.1
				c0.1,0.2,0.1,0.5-0.2,0.7C535.2,158.4,535.1,158.5,535,158.5z M520.5,141.4c-0.1,0-0.2,0-0.3-0.1c-2.8-2.4-5.8-4.6-9-6.6
				c-0.2-0.1-0.3-0.4-0.2-0.7c0.1-0.2,0.4-0.3,0.7-0.2c3.2,2,6.3,4.2,9.1,6.7c0.2,0.2,0.2,0.5,0,0.7
				C520.8,141.4,520.6,141.4,520.5,141.4z M501.4,129.7c-0.1,0-0.1,0-0.2,0c-3.4-1.4-7-2.6-10.6-3.5c-0.3-0.1-0.4-0.3-0.4-0.6
				c0.1-0.3,0.3-0.4,0.6-0.4c3.7,0.9,7.3,2.1,10.7,3.5c0.2,0.1,0.4,0.4,0.3,0.6C501.8,129.6,501.6,129.7,501.4,129.7z"/>
			<path class="st0" d="M479.7,124.4C479.7,124.4,479.7,124.4,479.7,124.4c-2-0.2-4-0.2-6-0.2c-0.3,0-0.5-0.2-0.5-0.5
				s0.2-0.5,0.5-0.5c2,0,4,0.1,6,0.2c0.3,0,0.5,0.3,0.4,0.5C480.2,124.2,479.9,124.4,479.7,124.4z"/>
		</g>
		<g>
			<path class="st0" d="M473.7,124.2h-6c-0.3,0-0.5-0.2-0.5-0.5s0.2-0.5,0.5-0.5h6c0.3,0,0.5,0.2,0.5,0.5S474,124.2,473.7,124.2z"/>
			<path class="st0" d="M461.7,124.2h-6c-0.3,0-0.5-0.2-0.5-0.5s0.2-0.5,0.5-0.5h6c0.3,0,0.5,0.2,0.5,0.5S462,124.2,461.7,124.2z"/>
		</g>
		<g>
			<path class="st0" d="M464.7,124.2c-0.3,0-0.5-0.2-0.5-0.5s0.2-0.5,0.5-0.5c2,0,4-0.1,5.9-0.3c0.3,0,0.5,0.2,0.5,0.4
				s-0.2,0.5-0.4,0.5C468.7,124.1,466.7,124.2,464.7,124.2z"/>
			<path class="st0" d="M480.9,121.7c-0.2,0-0.4-0.1-0.5-0.3c-0.1-0.3,0.1-0.5,0.3-0.6c3.3-1,6.5-2.4,9.5-4c0.2-0.1,0.5,0,0.7,0.2
				c0.1,0.2,0,0.5-0.2,0.7c-3.1,1.7-6.3,3-9.7,4.1C481,121.7,480.9,121.7,480.9,121.7z M499,111.9c-0.1,0-0.3-0.1-0.4-0.2
				c-0.2-0.2-0.1-0.5,0.1-0.7c1.3-1.1,2.6-2.3,3.8-3.5c1.2-1.2,2.4-2.5,3.4-3.8c0.2-0.2,0.5-0.2,0.7-0.1c0.2,0.2,0.2,0.5,0.1,0.7
				c-1.1,1.3-2.3,2.6-3.5,3.9c-1.2,1.2-2.5,2.4-3.9,3.6C499.3,111.9,499.2,111.9,499,111.9z M512.2,95.9c-0.1,0-0.2,0-0.2-0.1
				c-0.2-0.1-0.3-0.4-0.2-0.7c1.6-3,3-6.2,4-9.5c0.1-0.3,0.3-0.4,0.6-0.3c0.3,0.1,0.4,0.3,0.3,0.6c-1,3.3-2.4,6.6-4.1,9.7
				C512.5,95.8,512.3,95.9,512.2,95.9z"/>
			<path class="st0" d="M518.4,76.2C518.3,76.2,518.3,76.2,518.4,76.2c-0.3,0-0.5-0.3-0.5-0.5c0.2-2,0.3-4,0.3-5.9
				c0-0.3,0.2-0.5,0.5-0.5s0.5,0.2,0.5,0.5c0,2-0.1,4-0.3,6C518.8,76,518.6,76.2,518.4,76.2z"/>
		</g>
		<g>
			<path class="st0" d="M518.7,70.2h-6c-0.3,0-0.5-0.2-0.5-0.5s0.2-0.5,0.5-0.5h6c0.3,0,0.5,0.2,0.5,0.5S519,70.2,518.7,70.2z"/>
			<path class="st0" d="M501,70.2h-11.7c-0.3,0-0.5-0.2-0.5-0.5s0.2-0.5,0.5-0.5H501c0.3,0,0.5,0.2,0.5,0.5S501.3,70.2,501,70.2z
				 M477.7,70.2H466c-0.3,0-0.5-0.2-0.5-0.5s0.2-0.5,0.5-0.5h11.7c0.3,0,0.5,0.2,0.5,0.5S478,70.2,477.7,70.2z M454.4,70.2h-11.7
				c-0.3,0-0.5-0.2-0.5-0.5s0.2-0.5,0.5-0.5h11.7c0.3,0,0.5,0.2,0.5,0.5S454.6,70.2,454.4,70.2z M431,70.2h-11.7
				c-0.3,0-0.5-0.2-0.5-0.5s0.2-0.5,0.5-0.5H431c0.3,0,0.5,0.2,0.5,0.5S431.3,70.2,431,70.2z"/>
			<path class="st0" d="M407.7,70.2h-6c-0.3,0-0.5-0.2-0.5-0.5s0.2-0.5,0.5-0.5h6c0.3,0,0.5,0.2,0.5,0.5S408,70.2,407.7,70.2z"/>
		</g>
		<g>
			<path class="st0" d="M401.7,76.2c-0.3,0-0.5-0.2-0.5-0.5v-6c0-0.3,0.2-0.5,0.5-0.5s0.5,0.2,0.5,0.5v6
				C402.2,76,402,76.2,401.7,76.2z"/>
			<path class="st0" d="M401.7,177.5c-0.3,0-0.5-0.2-0.5-0.5v-12.7c0-0.3,0.2-0.5,0.5-0.5s0.5,0.2,0.5,0.5V177
				C402.2,177.3,402,177.5,401.7,177.5z M401.7,152.2c-0.3,0-0.5-0.2-0.5-0.5V139c0-0.3,0.2-0.5,0.5-0.5s0.5,0.2,0.5,0.5v12.7
				C402.2,152,402,152.2,401.7,152.2z M401.7,126.8c-0.3,0-0.5-0.2-0.5-0.5v-12.7c0-0.3,0.2-0.5,0.5-0.5s0.5,0.2,0.5,0.5v12.7
				C402.2,126.6,402,126.8,401.7,126.8z M401.7,101.5c-0.3,0-0.5-0.2-0.5-0.5V88.4c0-0.3,0.2-0.5,0.5-0.5s0.5,0.2,0.5,0.5V101
				C402.2,101.3,402,101.5,401.7,101.5z"/>
			<path class="st0" d="M401.7,196.2c-0.3,0-0.5-0.2-0.5-0.5v-6c0-0.3,0.2-0.5,0.5-0.5s0.5,0.2,0.5,0.5v6
				C402.2,196,402,196.2,401.7,196.2z"/>
		</g>
	</g>
	<g id="topLeft">
		<g>
			<path class="st0" d="M392.7,178.2c-0.3,0-0.5-0.2-0.5-0.5c0-2-0.1-4-0.3-5.9c0-0.3,0.2-0.5,0.4-0.5c0.3,0,0.5,0.2,0.5,0.4
				c0.2,2,0.3,4,0.3,6C393.2,178,393,178.2,392.7,178.2z"/>
			<path class="st0" d="M390.3,162c-0.2,0-0.4-0.1-0.5-0.3c-1-3.3-2.4-6.5-4-9.5c-0.1-0.2,0-0.5,0.2-0.7c0.2-0.1,0.5,0,0.7,0.2
				c1.7,3.1,3,6.3,4.1,9.7c0.1,0.3-0.1,0.5-0.3,0.6C390.3,162,390.3,162,390.3,162z M380.4,143.8c-0.1,0-0.3-0.1-0.4-0.2
				c-1.1-1.3-2.3-2.6-3.5-3.8c-1.2-1.2-2.5-2.4-3.8-3.5c-0.2-0.2-0.2-0.5-0.1-0.7c0.2-0.2,0.5-0.2,0.7-0.1c1.3,1.1,2.6,2.3,3.9,3.5
				c1.2,1.2,2.4,2.5,3.5,3.9c0.2,0.2,0.1,0.5-0.1,0.7C380.6,143.8,380.5,143.8,380.4,143.8z M364.5,130.7c-0.1,0-0.2,0-0.2-0.1
				c-3-1.6-6.2-3-9.5-4c-0.3-0.1-0.4-0.3-0.3-0.6c0.1-0.3,0.3-0.4,0.6-0.3c3.3,1,6.6,2.4,9.7,4.1c0.2,0.1,0.3,0.4,0.2,0.7
				C364.8,130.6,364.6,130.7,364.5,130.7z"/>
			<path class="st0" d="M344.7,124.5C344.7,124.5,344.7,124.5,344.7,124.5c-2-0.2-4-0.3-6-0.3c-0.3,0-0.5-0.2-0.5-0.5
				s0.2-0.5,0.5-0.5c2,0,4,0.1,6,0.3c0.3,0,0.5,0.3,0.4,0.5C345.1,124.3,344.9,124.5,344.7,124.5z"/>
		</g>
		<path class="st0" d="M338.7,124.2h-0.6c-0.3,0-0.5-0.2-0.5-0.5s0.2-0.5,0.5-0.5h0.6c0.3,0,0.5,0.2,0.5,0.5S339,124.2,338.7,124.2z
			"/>
		<g>
			<path class="st0" d="M338.1,124.2c-2.2,0-4.2-0.7-5.9-2c-0.2-0.2-0.2-0.5-0.1-0.7c0.2-0.2,0.5-0.2,0.7-0.1
				c1.5,1.2,3.3,1.8,5.3,1.8c0.3,0,0.5,0.2,0.5,0.5S338.4,124.2,338.1,124.2z"/>
			<path class="st0" d="M331.8,121.7c-0.1,0-0.2,0-0.3-0.1c-1.5-1.5-2.5-3.4-2.8-5.5c0-0.3,0.1-0.5,0.4-0.5c0.3,0,0.5,0.1,0.5,0.4
				c0.3,1.9,1.1,3.7,2.5,5c0.2,0.2,0.2,0.5,0,0.7C332.1,121.7,332,121.7,331.8,121.7z"/>
		</g>
		<g>
			<path class="st0" d="M329.2,116.5c-0.2,0-0.4-0.2-0.5-0.4c-0.3-2-0.7-3.9-1.2-5.8c-0.1-0.3,0.1-0.5,0.3-0.6
				c0.3-0.1,0.5,0.1,0.6,0.3c0.5,1.9,0.9,3.9,1.2,5.9C329.7,116.2,329.5,116.4,329.2,116.5C329.2,116.5,329.2,116.5,329.2,116.5z"/>
			<path class="st0" d="M323.2,98.5c-0.2,0-0.3-0.1-0.4-0.3c-2-3.8-4.5-7.3-7.4-10.5c-0.2-0.2-0.2-0.5,0-0.7c0.2-0.2,0.5-0.2,0.7,0
				c2.9,3.2,5.5,6.8,7.6,10.7c0.1,0.2,0,0.5-0.2,0.7C323.4,98.5,323.3,98.5,323.2,98.5z M305.9,79.4c-0.1,0-0.2,0-0.3-0.1
				c-3.6-2.4-7.4-4.4-11.5-5.9c-0.2-0.1-0.4-0.4-0.3-0.6c0.1-0.2,0.4-0.4,0.6-0.3c4.1,1.5,8,3.5,11.7,6c0.2,0.1,0.3,0.4,0.1,0.7
				C306.2,79.3,306.1,79.4,305.9,79.4z"/>
			<path class="st0" d="M281.7,70.5C281.7,70.5,281.7,70.5,281.7,70.5c-2-0.2-4-0.3-6-0.3c-0.3,0-0.5-0.2-0.5-0.5s0.2-0.5,0.5-0.5
				c2,0,4,0.1,6,0.3c0.3,0,0.5,0.3,0.4,0.5C282.1,70.3,281.9,70.5,281.7,70.5z"/>
		</g>
		<g>
			<path class="st0" d="M236,70.5c-0.2,0-0.4-0.2-0.5-0.4c0-0.3,0.2-0.5,0.4-0.5c2-0.2,4-0.3,6-0.3c0.3,0,0.5,0.2,0.5,0.5
				s-0.2,0.5-0.5,0.5C240,70.2,238,70.3,236,70.5C236,70.5,236,70.5,236,70.5z"/>
			<path class="st0" d="M194.3,98.8c-0.1,0-0.2,0-0.2-0.1c-0.2-0.1-0.3-0.4-0.2-0.6c2.1-3.9,4.6-7.5,7.6-10.8c0.2-0.2,0.5-0.2,0.7,0
				c0.2,0.2,0.2,0.5,0,0.7c-2.9,3.2-5.4,6.8-7.4,10.6C194.7,98.7,194.5,98.8,194.3,98.8z M211.7,79.5c-0.2,0-0.3-0.1-0.4-0.2
				c-0.1-0.2-0.1-0.5,0.1-0.7c3.6-2.5,7.6-4.5,11.7-6c0.2-0.1,0.5,0,0.6,0.3c0.1,0.2,0,0.5-0.3,0.6c-4.1,1.5-7.9,3.5-11.5,5.9
				C211.9,79.4,211.8,79.5,211.7,79.5z"/>
			<path class="st0" d="M188.5,116.9C188.5,116.9,188.5,116.9,188.5,116.9c-0.3,0-0.5-0.3-0.5-0.5c0.3-2,0.7-4,1.2-5.9
				c0.1-0.3,0.3-0.4,0.6-0.3c0.3,0.1,0.4,0.3,0.3,0.6c-0.5,1.9-0.9,3.9-1.1,5.8C188.9,116.7,188.7,116.9,188.5,116.9z"/>
		</g>
		<path class="st0" d="M180.5,124.6c-0.2,0-0.5-0.2-0.5-0.4c0-0.3,0.2-0.5,0.4-0.5c3.8-0.4,6.9-3.4,7.5-7.3c0-0.3,0.3-0.4,0.5-0.4
			c0.3,0,0.4,0.3,0.4,0.5C188.2,120.8,184.8,124.2,180.5,124.6C180.5,124.6,180.5,124.6,180.5,124.6z"/>
		<g>
			<path class="st0" d="M174.6,125.5c-0.2,0-0.4-0.2-0.5-0.4c0-0.3,0.1-0.5,0.4-0.6c2-0.4,4-0.7,6-0.9c0.3,0,0.5,0.2,0.5,0.4
				c0,0.3-0.2,0.5-0.4,0.5C178.6,124.8,176.6,125.1,174.6,125.5C174.6,125.5,174.6,125.5,174.6,125.5z"/>
			<path class="st0" d="M118.5,177c0,0-0.1,0-0.1,0c-0.3-0.1-0.4-0.3-0.3-0.6c1.2-4.3,2.8-8.5,4.8-12.6c0.1-0.2,0.4-0.3,0.6-0.2
				c0.2,0.1,0.3,0.4,0.2,0.6c-1.9,4-3.5,8.1-4.7,12.4C118.9,176.9,118.7,177,118.5,177z M130.2,153.1c-0.1,0-0.2,0-0.3-0.1
				c-0.2-0.2-0.3-0.5-0.1-0.7c1.3-1.8,2.7-3.5,4.2-5.2c1.5-1.7,3.1-3.3,4.8-4.8c0.2-0.2,0.5-0.2,0.7,0c0.2,0.2,0.2,0.5,0,0.7
				c-1.6,1.5-3.2,3.1-4.7,4.8c-1.5,1.6-2.9,3.4-4.2,5.1C130.5,153.1,130.4,153.1,130.2,153.1z M149.8,135.1c-0.2,0-0.3-0.1-0.4-0.2
				c-0.1-0.2-0.1-0.5,0.2-0.7c3.8-2.4,7.8-4.4,12-6c0.2-0.1,0.5,0,0.6,0.3s0,0.5-0.3,0.6c-4.1,1.6-8.1,3.6-11.9,5.9
				C150,135.1,149.9,135.1,149.8,135.1z"/>
			<path class="st0" d="M115.9,196.2c-0.3,0-0.5-0.2-0.5-0.5c0-2,0.1-4,0.3-6c0-0.3,0.2-0.5,0.5-0.4c0.3,0,0.5,0.3,0.4,0.5
				c-0.2,2-0.3,4-0.3,6C116.4,196,116.2,196.2,115.9,196.2z"/>
		</g>
		<g>
			<path class="st0" d="M401.7,196.2c-2.1,0-4.2-0.7-5.9-2.1c-0.2-0.2-0.2-0.5-0.1-0.7c0.2-0.2,0.5-0.2,0.7-0.1
				c1.5,1.2,3.4,1.9,5.3,1.9c0.3,0,0.5,0.2,0.5,0.5S402,196.2,401.7,196.2z"/>
			<path class="st0" d="M394.7,192.7c-0.1,0-0.3-0.1-0.4-0.2c-1.3-1.7-2.1-3.8-2.1-5.9c0-0.3,0.2-0.5,0.5-0.5s0.5,0.2,0.5,0.5
				c0,1.9,0.7,3.8,1.9,5.3c0.2,0.2,0.1,0.5-0.1,0.7C394.9,192.7,394.8,192.7,394.7,192.7z"/>
		</g>
		<path class="st0" d="M392.7,187.2c-0.3,0-0.5-0.2-0.5-0.5v-9c0-0.3,0.2-0.5,0.5-0.5s0.5,0.2,0.5,0.5v9
			C393.2,187,393,187.2,392.7,187.2z"/>
		<g>
			<path class="st0" d="M275.7,70.2h-6c-0.3,0-0.5-0.2-0.5-0.5s0.2-0.5,0.5-0.5h6c0.3,0,0.5,0.2,0.5,0.5S276,70.2,275.7,70.2z"/>
			<path class="st0" d="M262.5,70.2h-7.2c-0.3,0-0.5-0.2-0.5-0.5s0.2-0.5,0.5-0.5h7.2c0.3,0,0.5,0.2,0.5,0.5S262.7,70.2,262.5,70.2z
				"/>
			<path class="st0" d="M248,70.2h-6c-0.3,0-0.5-0.2-0.5-0.5s0.2-0.5,0.5-0.5h6c0.3,0,0.5,0.2,0.5,0.5S248.3,70.2,248,70.2z"/>
		</g>
	</g>
	<g id="topFront">
		<g>
			<path class="st0" d="M44,571.9c-0.3,0-0.5-0.2-0.5-0.5v-6c0-0.3,0.2-0.5,0.5-0.5s0.5,0.2,0.5,0.5v6
				C44.5,571.7,44.3,571.9,44,571.9z"/>
			<path class="st0" d="M44,553.6c-0.3,0-0.5-0.2-0.5-0.5v-12.3c0-0.3,0.2-0.5,0.5-0.5s0.5,0.2,0.5,0.5v12.3
				C44.5,553.4,44.3,553.6,44,553.6z M44,529c-0.3,0-0.5-0.2-0.5-0.5v-12.3c0-0.3,0.2-0.5,0.5-0.5s0.5,0.2,0.5,0.5v12.3
				C44.5,528.8,44.3,529,44,529z M44,504.4c-0.3,0-0.5-0.2-0.5-0.5v-12.3c0-0.3,0.2-0.5,0.5-0.5s0.5,0.2,0.5,0.5v12.3
				C44.5,504.2,44.3,504.4,44,504.4z M44,479.8c-0.3,0-0.5-0.2-0.5-0.5V467c0-0.3,0.2-0.5,0.5-0.5s0.5,0.2,0.5,0.5v12.3
				C44.5,479.6,44.3,479.8,44,479.8z M44,455.2c-0.3,0-0.5-0.2-0.5-0.5v-12.3c0-0.3,0.2-0.5,0.5-0.5s0.5,0.2,0.5,0.5v12.3
				C44.5,455,44.3,455.2,44,455.2z M44,430.6c-0.3,0-0.5-0.2-0.5-0.5v-12.3c0-0.3,0.2-0.5,0.5-0.5s0.5,0.2,0.5,0.5v12.3
				C44.5,430.4,44.3,430.6,44,430.6z M44,406c-0.3,0-0.5-0.2-0.5-0.5v-12.3c0-0.3,0.2-0.5,0.5-0.5s0.5,0.2,0.5,0.5v12.3
				C44.5,405.8,44.3,406,44,406z M44,381.4c-0.3,0-0.5-0.2-0.5-0.5v-12.3c0-0.3,0.2-0.5,0.5-0.5s0.5,0.2,0.5,0.5V381
				C44.5,381.2,44.3,381.4,44,381.4z M44,356.8c-0.3,0-0.5-0.2-0.5-0.5v-12.3c0-0.3,0.2-0.5,0.5-0.5s0.5,0.2,0.5,0.5v12.3
				C44.5,356.6,44.3,356.8,44,356.8z M44,332.3c-0.3,0-0.5-0.2-0.5-0.5v-12.3c0-0.3,0.2-0.5,0.5-0.5s0.5,0.2,0.5,0.5v12.3
				C44.5,332,44.3,332.3,44,332.3z M44,307.7c-0.3,0-0.5-0.2-0.5-0.5v-12.3c0-0.3,0.2-0.5,0.5-0.5s0.5,0.2,0.5,0.5v12.3
				C44.5,307.4,44.3,307.7,44,307.7z M44,283.1c-0.3,0-0.5-0.2-0.5-0.5v-12.3c0-0.3,0.2-0.5,0.5-0.5s0.5,0.2,0.5,0.5v12.3
				C44.5,282.9,44.3,283.1,44,283.1z"/>
			<path class="st0" d="M44,258.5c-0.3,0-0.5-0.2-0.5-0.5v-6c0-0.3,0.2-0.5,0.5-0.5s0.5,0.2,0.5,0.5v6
				C44.5,258.3,44.3,258.5,44,258.5z"/>
		</g>
		<g>
			<g>
				<path class="st0" d="M116,625.9h-6c-0.3,0-0.5-0.2-0.5-0.5s0.2-0.5,0.5-0.5h6c0.3,0,0.5,0.2,0.5,0.5S116.3,625.9,116,625.9z"/>
				<path class="st0" d="M104,625.9h-6c-0.3,0-0.5-0.2-0.5-0.5s0.2-0.5,0.5-0.5h6c0.3,0,0.5,0.2,0.5,0.5S104.3,625.9,104,625.9z"/>
			</g>
			<g>
				<path class="st0" d="M98,625.9c-2,0-4-0.1-6-0.3c-0.3,0-0.5-0.3-0.4-0.5c0-0.3,0.3-0.5,0.5-0.4c2,0.2,4,0.3,5.9,0.3
					c0.3,0,0.5,0.2,0.5,0.5S98.3,625.9,98,625.9z"/>
				<path class="st0" d="M81.8,623.4c0,0-0.1,0-0.1,0c-3.3-1-6.6-2.4-9.7-4.1c-0.2-0.1-0.3-0.4-0.2-0.7c0.1-0.2,0.4-0.3,0.7-0.2
					c3,1.6,6.2,3,9.5,4c0.3,0.1,0.4,0.3,0.3,0.6C82.2,623.3,82,623.4,81.8,623.4z M63.6,613.6c-0.1,0-0.2,0-0.3-0.1
					c-1.3-1.1-2.7-2.3-3.9-3.5c-1.2-1.2-2.4-2.5-3.5-3.9c-0.2-0.2-0.1-0.5,0.1-0.7c0.2-0.2,0.5-0.1,0.7,0.1c1.1,1.3,2.3,2.6,3.5,3.8
					c1.2,1.2,2.5,2.4,3.8,3.5c0.2,0.2,0.2,0.5,0.1,0.7C63.9,613.5,63.8,613.6,63.6,613.6z M50.5,597.6c-0.2,0-0.3-0.1-0.4-0.3
					c-1.7-3.1-3-6.3-4.1-9.7c-0.1-0.3,0.1-0.5,0.3-0.6c0.3-0.1,0.5,0.1,0.6,0.3c1,3.3,2.4,6.5,4,9.5c0.1,0.2,0,0.5-0.2,0.7
					C50.6,597.6,50.6,597.6,50.5,597.6z"/>
				<path class="st0" d="M44.3,577.9c-0.2,0-0.4-0.2-0.5-0.4c-0.2-2-0.3-4-0.3-6c0-0.3,0.2-0.5,0.5-0.5s0.5,0.2,0.5,0.5
					c0,2,0.1,4,0.3,5.9C44.8,577.6,44.6,577.8,44.3,577.9C44.4,577.9,44.3,577.9,44.3,577.9z"/>
			</g>
			<g>
				<path class="st0" d="M44,252.5c-0.3,0-0.5-0.2-0.5-0.5c0-2,0.1-4,0.3-6c0-0.3,0.3-0.5,0.5-0.4c0.3,0,0.5,0.3,0.4,0.5
					c-0.2,2-0.3,4-0.3,5.9C44.5,252.3,44.3,252.5,44,252.5z"/>
				<path class="st0" d="M46.4,236.3c0,0-0.1,0-0.1,0c-0.3-0.1-0.4-0.3-0.3-0.6c1-3.3,2.4-6.6,4.1-9.7c0.1-0.2,0.4-0.3,0.7-0.2
					c0.2,0.1,0.3,0.4,0.2,0.7c-1.6,3-3,6.2-4,9.5C46.8,236.2,46.6,236.3,46.4,236.3z M56.3,218.1c-0.1,0-0.2,0-0.3-0.1
					c-0.2-0.2-0.2-0.5-0.1-0.7c1.1-1.3,2.3-2.7,3.6-3.9c1.2-1.2,2.5-2.4,3.9-3.5c0.2-0.2,0.5-0.1,0.7,0.1c0.2,0.2,0.1,0.5-0.1,0.7
					c-1.3,1.1-2.6,2.3-3.8,3.5c-1.2,1.2-2.4,2.5-3.5,3.8C56.6,218.1,56.4,218.1,56.3,218.1z M72.2,205c-0.2,0-0.3-0.1-0.4-0.3
					c-0.1-0.2,0-0.5,0.2-0.7c3.1-1.7,6.3-3,9.7-4.1c0.3-0.1,0.5,0.1,0.6,0.3c0.1,0.3-0.1,0.5-0.3,0.6c-3.3,1-6.5,2.4-9.5,4
					C72.4,205,72.3,205,72.2,205z"/>
				<path class="st0" d="M92,198.8c-0.2,0-0.4-0.2-0.5-0.4c0-0.3,0.2-0.5,0.4-0.5c2-0.2,4-0.3,6-0.3c0.3,0,0.5,0.2,0.5,0.5
					s-0.2,0.5-0.5,0.5C96,198.5,94,198.6,92,198.8C92,198.8,92,198.8,92,198.8z"/>
			</g>
			<g>
				<path class="st0" d="M104,198.5h-6c-0.3,0-0.5-0.2-0.5-0.5s0.2-0.5,0.5-0.5h6c0.3,0,0.5,0.2,0.5,0.5S104.3,198.5,104,198.5z"/>
				<path class="st0" d="M116,198.5h-6c-0.3,0-0.5-0.2-0.5-0.5s0.2-0.5,0.5-0.5h6c0.3,0,0.5,0.2,0.5,0.5S116.3,198.5,116,198.5z"/>
			</g>
		</g>
	</g>
	<g id="topRight">
		<g>
			<path class="st0" d="M116.3,634.2c-0.2,0-0.5-0.2-0.5-0.4c-0.2-2-0.3-4-0.3-6c0-0.3,0.2-0.5,0.5-0.5s0.5,0.2,0.5,0.5
				c0,2,0.1,4,0.2,6C116.8,633.9,116.6,634.2,116.3,634.2C116.3,634.2,116.3,634.2,116.3,634.2z"/>
			<path class="st0" d="M161.8,695.2c-0.1,0-0.1,0-0.2,0c-4.2-1.6-8.2-3.7-12-6c-0.2-0.1-0.3-0.4-0.2-0.7c0.1-0.2,0.4-0.3,0.7-0.2
				c3.7,2.3,7.7,4.3,11.9,5.9c0.2,0.1,0.4,0.4,0.3,0.6C162.2,695.1,162,695.2,161.8,695.2z M139.2,681.1c-0.1,0-0.2,0-0.3-0.1
				c-1.7-1.5-3.3-3.1-4.8-4.8c-1.5-1.7-2.9-3.4-4.2-5.2c-0.2-0.2-0.1-0.5,0.1-0.7c0.2-0.2,0.5-0.1,0.7,0.1c1.3,1.8,2.7,3.5,4.2,5.1
				c1.5,1.6,3.1,3.2,4.7,4.7c0.2,0.2,0.2,0.5,0,0.7C139.5,681.1,139.4,681.1,139.2,681.1z M123.3,659.8c-0.2,0-0.3-0.1-0.4-0.3
				c-2-4-3.6-8.3-4.8-12.6c-0.1-0.3,0.1-0.5,0.3-0.6c0.3-0.1,0.5,0.1,0.6,0.3c1.2,4.3,2.8,8.4,4.7,12.4c0.1,0.2,0,0.5-0.2,0.6
				C123.5,659.8,123.4,659.8,123.3,659.8z"/>
			<path class="st0" d="M180.6,699.8C180.6,699.8,180.6,699.8,180.6,699.8c-2-0.2-4.1-0.5-6-0.9c-0.3,0-0.4-0.3-0.4-0.6
				c0-0.3,0.3-0.4,0.6-0.4c1.9,0.4,3.9,0.7,5.9,0.9c0.3,0,0.5,0.3,0.4,0.5C181.1,699.6,180.8,699.8,180.6,699.8z"/>
		</g>
		<path class="st0" d="M188.4,707.5c-0.2,0-0.4-0.2-0.5-0.4c-0.6-3.9-3.7-6.9-7.5-7.3c-0.3,0-0.5-0.3-0.4-0.5c0-0.3,0.3-0.5,0.5-0.4
			c4.3,0.4,7.7,3.7,8.3,8.1C188.9,707.2,188.7,707.4,188.4,707.5C188.4,707.5,188.4,707.5,188.4,707.5z"/>
		<g>
			<path class="st0" d="M189.5,713.4c-0.2,0-0.4-0.1-0.5-0.4c-0.5-1.9-0.9-3.9-1.2-5.9c0-0.3,0.1-0.5,0.4-0.5c0.3,0,0.5,0.1,0.5,0.4
				c0.3,2,0.7,3.9,1.1,5.8c0.1,0.3-0.1,0.5-0.3,0.6C189.6,713.4,189.6,713.4,189.5,713.4z"/>
			<path class="st0" d="M223.2,750.9c-0.1,0-0.1,0-0.2,0c-4.1-1.5-8.1-3.6-11.7-6c-0.2-0.1-0.3-0.4-0.1-0.7c0.1-0.2,0.4-0.3,0.7-0.1
				c3.6,2.4,7.4,4.4,11.5,5.9c0.2,0.1,0.4,0.4,0.3,0.6C223.6,750.7,223.4,750.9,223.2,750.9z M201.7,736.3c-0.1,0-0.3-0.1-0.4-0.2
				c-2.9-3.3-5.5-6.9-7.5-10.8c-0.1-0.2,0-0.5,0.2-0.6c0.2-0.1,0.5,0,0.6,0.2c2,3.8,4.5,7.4,7.4,10.6c0.2,0.2,0.2,0.5,0,0.7
				C202,736.2,201.8,736.3,201.7,736.3z"/>
			<path class="st0" d="M241.9,754.2c-2,0-4-0.1-6-0.3c-0.3,0-0.5-0.3-0.4-0.5s0.3-0.5,0.5-0.4c2,0.2,4,0.3,5.9,0.3
				c0.3,0,0.5,0.2,0.5,0.5S242.2,754.2,241.9,754.2z"/>
		</g>
		<g>
			<path class="st0" d="M248,754.2h-6c-0.3,0-0.5-0.2-0.5-0.5s0.2-0.5,0.5-0.5h6c0.3,0,0.5,0.2,0.5,0.5S248.3,754.2,248,754.2z"/>
			<path class="st0" d="M262.5,754.2h-7.2c-0.3,0-0.5-0.2-0.5-0.5s0.2-0.5,0.5-0.5h7.2c0.3,0,0.5,0.2,0.5,0.5
				S262.7,754.2,262.5,754.2z"/>
			<path class="st0" d="M275.7,754.2h-6c-0.3,0-0.5-0.2-0.5-0.5s0.2-0.5,0.5-0.5h6c0.3,0,0.5,0.2,0.5,0.5S276,754.2,275.7,754.2z"/>
		</g>
		<g>
			<path class="st0" d="M275.7,754.2c-0.3,0-0.5-0.2-0.5-0.5s0.2-0.5,0.5-0.5c2,0,4-0.1,5.9-0.3c0.3,0,0.5,0.2,0.5,0.4
				c0,0.3-0.2,0.5-0.4,0.5C279.8,754.1,277.7,754.2,275.7,754.2z"/>
			<path class="st0" d="M294.3,750.9c-0.2,0-0.4-0.1-0.5-0.3c-0.1-0.2,0-0.5,0.3-0.6c4-1.5,7.9-3.5,11.5-5.9
				c0.2-0.1,0.5-0.1,0.7,0.1s0.1,0.5-0.1,0.7c-3.6,2.4-7.6,4.4-11.7,6C294.4,750.9,294.4,750.9,294.3,750.9z M315.7,736.5
				c-0.1,0-0.2,0-0.3-0.1c-0.2-0.2-0.2-0.5,0-0.7c2.9-3.2,5.4-6.7,7.4-10.5c0.1-0.2,0.4-0.3,0.7-0.2c0.2,0.1,0.3,0.4,0.2,0.7
				c-2.1,3.9-4.6,7.5-7.6,10.7C316,736.4,315.8,736.5,315.7,736.5z"/>
			<path class="st0" d="M328,713.8c0,0-0.1,0-0.1,0c-0.3-0.1-0.4-0.3-0.3-0.6c0.5-1.9,0.9-3.9,1.2-5.8c0-0.3,0.3-0.4,0.5-0.4
				c0.3,0,0.4,0.3,0.4,0.5c-0.3,2-0.7,4-1.2,5.9C328.4,713.6,328.2,713.8,328,713.8z"/>
		</g>
		<g>
			<path class="st0" d="M329.2,707.9C329.2,707.9,329.2,707.9,329.2,707.9c-0.3,0-0.5-0.3-0.5-0.5c0.3-2.1,1.3-4.1,2.8-5.5
				c0.2-0.2,0.5-0.2,0.7,0c0.2,0.2,0.2,0.5,0,0.7c-1.4,1.3-2.3,3.1-2.5,5C329.6,707.7,329.4,707.9,329.2,707.9z"/>
			<path class="st0" d="M332.5,702.1c-0.1,0-0.3-0.1-0.4-0.2c-0.2-0.2-0.1-0.5,0.1-0.7c1.7-1.3,3.7-2,5.9-2c0.3,0,0.5,0.2,0.5,0.5
				s-0.2,0.5-0.5,0.5c-2,0-3.8,0.6-5.3,1.8C332.7,702,332.6,702.1,332.5,702.1z"/>
		</g>
		<path class="st0" d="M338.7,700.2h-0.6c-0.3,0-0.5-0.2-0.5-0.5s0.2-0.5,0.5-0.5h0.6c0.3,0,0.5,0.2,0.5,0.5S339,700.2,338.7,700.2z
			"/>
		<g>
			<path class="st0" d="M338.7,700.2c-0.3,0-0.5-0.2-0.5-0.5s0.2-0.5,0.5-0.5c2,0,4-0.1,5.9-0.3c0.3,0,0.5,0.2,0.5,0.4
				c0,0.3-0.2,0.5-0.4,0.5C342.7,700.1,340.7,700.2,338.7,700.2z"/>
			<path class="st0" d="M354.9,697.7c-0.2,0-0.4-0.1-0.5-0.3c-0.1-0.3,0.1-0.5,0.3-0.6c3.3-1,6.5-2.4,9.5-4c0.2-0.1,0.5,0,0.7,0.2
				c0.1,0.2,0,0.5-0.2,0.7c-3.1,1.7-6.3,3-9.7,4.1C355,697.7,354.9,697.7,354.9,697.7z M373.1,687.9c-0.1,0-0.3-0.1-0.4-0.2
				c-0.2-0.2-0.1-0.5,0.1-0.7c1.3-1.1,2.6-2.3,3.8-3.5c1.2-1.2,2.4-2.5,3.5-3.8c0.2-0.2,0.5-0.2,0.7-0.1c0.2,0.2,0.2,0.5,0.1,0.7
				c-1.1,1.3-2.3,2.6-3.5,3.9c-1.2,1.2-2.5,2.4-3.9,3.5C373.3,687.9,373.2,687.9,373.1,687.9z M386.2,671.9c-0.1,0-0.2,0-0.2-0.1
				c-0.2-0.1-0.3-0.4-0.2-0.7c1.6-3,3-6.2,4-9.5c0.1-0.3,0.4-0.4,0.6-0.3c0.3,0.1,0.4,0.3,0.3,0.6c-1,3.3-2.4,6.6-4.1,9.7
				C386.5,671.8,386.4,671.9,386.2,671.9z"/>
			<path class="st0" d="M392.4,652.2C392.4,652.2,392.3,652.2,392.4,652.2c-0.3,0-0.5-0.3-0.5-0.5c0.2-2,0.3-4,0.3-5.9
				c0-0.3,0.2-0.5,0.5-0.5s0.5,0.2,0.5,0.5c0,2-0.1,4-0.3,6C392.8,652,392.6,652.2,392.4,652.2z"/>
		</g>
		<path class="st0" d="M392.7,646.2c-0.3,0-0.5-0.2-0.5-0.5v-9c0-0.3,0.2-0.5,0.5-0.5s0.5,0.2,0.5,0.5v9
			C393.2,646,393,646.2,392.7,646.2z"/>
		<g>
			<path class="st0" d="M392.7,637.2c-0.3,0-0.5-0.2-0.5-0.5c0-2.1,0.7-4.2,2.1-5.9c0.2-0.2,0.5-0.2,0.7-0.1
				c0.2,0.2,0.2,0.5,0.1,0.7c-1.2,1.5-1.9,3.4-1.9,5.3C393.2,637,393,637.2,392.7,637.2z"/>
			<path class="st0" d="M396.1,630.1c-0.1,0-0.3-0.1-0.4-0.2c-0.2-0.2-0.1-0.5,0.1-0.7c1.7-1.3,3.8-2.1,5.9-2.1
				c0.3,0,0.5,0.2,0.5,0.5s-0.2,0.5-0.5,0.5c-1.9,0-3.8,0.7-5.3,1.9C396.4,630.1,396.2,630.1,396.1,630.1z"/>
		</g>
	</g>
	<g id="backRight">
		<g>
			<path class="st0" d="M401.7,634.2c-0.3,0-0.5-0.2-0.5-0.5v-6c0-0.3,0.2-0.5,0.5-0.5s0.5,0.2,0.5,0.5v6
				C402.2,634,402,634.2,401.7,634.2z"/>
			<path class="st0" d="M401.7,735.5c-0.3,0-0.5-0.2-0.5-0.5v-12.7c0-0.3,0.2-0.5,0.5-0.5s0.5,0.2,0.5,0.5V735
				C402.2,735.3,402,735.5,401.7,735.5z M401.7,710.2c-0.3,0-0.5-0.2-0.5-0.5V697c0-0.3,0.2-0.5,0.5-0.5s0.5,0.2,0.5,0.5v12.7
				C402.2,710,402,710.2,401.7,710.2z M401.7,684.8c-0.3,0-0.5-0.2-0.5-0.5v-12.7c0-0.3,0.2-0.5,0.5-0.5s0.5,0.2,0.5,0.5v12.7
				C402.2,684.6,402,684.8,401.7,684.8z M401.7,659.5c-0.3,0-0.5-0.2-0.5-0.5v-12.7c0-0.3,0.2-0.5,0.5-0.5s0.5,0.2,0.5,0.5V659
				C402.2,659.3,402,659.5,401.7,659.5z"/>
			<path class="st0" d="M401.7,754.2c-0.3,0-0.5-0.2-0.5-0.5v-6c0-0.3,0.2-0.5,0.5-0.5s0.5,0.2,0.5,0.5v6
				C402.2,754,402,754.2,401.7,754.2z"/>
		</g>
		<g>
			<path class="st0" d="M407.7,754.2h-6c-0.3,0-0.5-0.2-0.5-0.5s0.2-0.5,0.5-0.5h6c0.3,0,0.5,0.2,0.5,0.5S408,754.2,407.7,754.2z"/>
			<path class="st0" d="M501,754.2h-11.7c-0.3,0-0.5-0.2-0.5-0.5s0.2-0.5,0.5-0.5H501c0.3,0,0.5,0.2,0.5,0.5S501.3,754.2,501,754.2z
				 M477.7,754.2H466c-0.3,0-0.5-0.2-0.5-0.5s0.2-0.5,0.5-0.5h11.7c0.3,0,0.5,0.2,0.5,0.5S478,754.2,477.7,754.2z M454.4,754.2
				h-11.7c-0.3,0-0.5-0.2-0.5-0.5s0.2-0.5,0.5-0.5h11.7c0.3,0,0.5,0.2,0.5,0.5S454.6,754.2,454.4,754.2z M431,754.2h-11.7
				c-0.3,0-0.5-0.2-0.5-0.5s0.2-0.5,0.5-0.5H431c0.3,0,0.5,0.2,0.5,0.5S431.3,754.2,431,754.2z"/>
			<path class="st0" d="M518.7,754.2h-6c-0.3,0-0.5-0.2-0.5-0.5s0.2-0.5,0.5-0.5h6c0.3,0,0.5,0.2,0.5,0.5S519,754.2,518.7,754.2z"/>
		</g>
		<g>
			<path class="st0" d="M518.7,754.2c-0.3,0-0.5-0.2-0.5-0.5c0-2-0.1-4-0.3-5.9c0-0.3,0.2-0.5,0.4-0.5c0.3,0,0.5,0.2,0.5,0.4
				c0.2,2,0.3,4,0.3,6C519.2,754,519,754.2,518.7,754.2z"/>
			<path class="st0" d="M516.3,738c-0.2,0-0.4-0.1-0.5-0.3c-1-3.3-2.4-6.5-4-9.5c-0.1-0.2,0-0.5,0.2-0.7c0.2-0.1,0.5,0,0.7,0.2
				c1.7,3.1,3,6.3,4.1,9.7c0.1,0.3-0.1,0.5-0.3,0.6C516.3,738,516.3,738,516.3,738z M506.4,719.8c-0.1,0-0.3-0.1-0.4-0.2
				c-1.1-1.3-2.3-2.6-3.5-3.8c-1.2-1.2-2.5-2.4-3.8-3.5c-0.2-0.2-0.2-0.5-0.1-0.7c0.2-0.2,0.5-0.2,0.7-0.1c1.3,1.1,2.6,2.3,3.9,3.5
				c1.2,1.2,2.4,2.5,3.5,3.9c0.2,0.2,0.1,0.5-0.1,0.7C506.6,719.8,506.5,719.8,506.4,719.8z M490.5,706.7c-0.1,0-0.2,0-0.2-0.1
				c-3-1.6-6.2-3-9.5-4c-0.3-0.1-0.4-0.3-0.3-0.6c0.1-0.3,0.4-0.4,0.6-0.3c3.3,1,6.6,2.4,9.7,4.1c0.2,0.1,0.3,0.4,0.2,0.7
				C490.8,706.6,490.6,706.7,490.5,706.7z"/>
			<path class="st0" d="M470.7,700.5C470.7,700.5,470.7,700.5,470.7,700.5c-2-0.2-4-0.3-6-0.3c-0.3,0-0.5-0.2-0.5-0.5
				s0.2-0.5,0.5-0.5c2,0,4,0.1,6,0.3c0.3,0,0.5,0.3,0.4,0.5C471.1,700.3,470.9,700.5,470.7,700.5z"/>
		</g>
		<g>
			<path class="st0" d="M461.7,700.2h-6c-0.3,0-0.5-0.2-0.5-0.5s0.2-0.5,0.5-0.5h6c0.3,0,0.5,0.2,0.5,0.5S462,700.2,461.7,700.2z"/>
			<path class="st0" d="M473.7,700.2h-6c-0.3,0-0.5-0.2-0.5-0.5s0.2-0.5,0.5-0.5h6c0.3,0,0.5,0.2,0.5,0.5S474,700.2,473.7,700.2z"/>
		</g>
		<g>
			<path class="st0" d="M473.7,700.2c-0.3,0-0.5-0.2-0.5-0.5s0.2-0.5,0.5-0.5c2,0,4-0.1,6-0.2c0.3,0,0.5,0.2,0.5,0.4
				s-0.2,0.5-0.4,0.5C477.7,700.1,475.7,700.2,473.7,700.2z"/>
			<path class="st0" d="M490.8,698.1c-0.2,0-0.4-0.1-0.5-0.4c-0.1-0.3,0.1-0.5,0.4-0.6c3.6-0.9,7.2-2.1,10.6-3.5
				c0.2-0.1,0.5,0,0.6,0.3c0.1,0.2,0,0.5-0.3,0.6c-3.5,1.4-7.1,2.6-10.7,3.5C490.8,698.1,490.8,698.1,490.8,698.1z M511.4,689.5
				c-0.2,0-0.3-0.1-0.4-0.2c-0.1-0.2-0.1-0.5,0.2-0.7c3.2-1.9,6.2-4.2,9-6.6c0.2-0.2,0.5-0.1,0.7,0.1c0.2,0.2,0.1,0.5-0.1,0.7
				c-2.9,2.4-5.9,4.7-9.1,6.7C511.6,689.5,511.5,689.5,511.4,689.5z M528.4,675c-0.1,0-0.2,0-0.3-0.1c-0.2-0.2-0.2-0.5,0-0.7
				c2.4-2.8,4.6-5.8,6.6-9c0.1-0.2,0.4-0.3,0.7-0.2c0.2,0.1,0.3,0.4,0.2,0.7c-2,3.2-4.2,6.3-6.7,9.1
				C528.7,674.9,528.6,675,528.4,675z M540.2,655.9c-0.1,0-0.1,0-0.2,0c-0.2-0.1-0.4-0.4-0.3-0.6c1.4-3.4,2.6-7,3.5-10.6
				c0.1-0.3,0.3-0.4,0.6-0.4c0.3,0.1,0.4,0.3,0.4,0.6c-0.9,3.7-2.1,7.3-3.5,10.7C540.5,655.8,540.4,655.9,540.2,655.9z"/>
			<path class="st0" d="M545.5,634.2C545.4,634.2,545.4,634.2,545.5,634.2c-0.3,0-0.5-0.3-0.5-0.5c0.2-2,0.2-4,0.2-6
				c0-0.3,0.2-0.5,0.5-0.5s0.5,0.2,0.5,0.5c0,2-0.1,4-0.2,6C545.9,634,545.7,634.2,545.5,634.2z"/>
		</g>
	</g>
	<g id="bottomRight">
		<g>
			<path class="st0" d="M545.7,634.2c-0.3,0-0.5-0.2-0.5-0.5v-6c0-0.3,0.2-0.5,0.5-0.5s0.5,0.2,0.5,0.5v6
				C546.2,634,546,634.2,545.7,634.2z"/>
			<path class="st0" d="M545.7,754.2c-0.3,0-0.5-0.2-0.5-0.5v-12c0-0.3,0.2-0.5,0.5-0.5s0.5,0.2,0.5,0.5v12
				C546.2,754,546,754.2,545.7,754.2z M545.7,730.2c-0.3,0-0.5-0.2-0.5-0.5v-12c0-0.3,0.2-0.5,0.5-0.5s0.5,0.2,0.5,0.5v12
				C546.2,730,546,730.2,545.7,730.2z M545.7,706.2c-0.3,0-0.5-0.2-0.5-0.5v-12c0-0.3,0.2-0.5,0.5-0.5s0.5,0.2,0.5,0.5v12
				C546.2,706,546,706.2,545.7,706.2z M545.7,682.2c-0.3,0-0.5-0.2-0.5-0.5v-12c0-0.3,0.2-0.5,0.5-0.5s0.5,0.2,0.5,0.5v12
				C546.2,682,546,682.2,545.7,682.2z M545.7,658.2c-0.3,0-0.5-0.2-0.5-0.5v-12c0-0.3,0.2-0.5,0.5-0.5s0.5,0.2,0.5,0.5v12
				C546.2,658,546,658.2,545.7,658.2z"/>
			<path class="st0" d="M545.7,772.2c-0.3,0-0.5-0.2-0.5-0.5v-6c0-0.3,0.2-0.5,0.5-0.5s0.5,0.2,0.5,0.5v6
				C546.2,772,546,772.2,545.7,772.2z"/>
		</g>
		<g>
			<path class="st0" d="M551.7,772.2h-6c-0.3,0-0.5-0.2-0.5-0.5s0.2-0.5,0.5-0.5h6c0.3,0,0.5,0.2,0.5,0.5S552,772.2,551.7,772.2z"/>
			<path class="st0" d="M815.7,772.2h-12c-0.3,0-0.5-0.2-0.5-0.5s0.2-0.5,0.5-0.5h12c0.3,0,0.5,0.2,0.5,0.5S816,772.2,815.7,772.2z
				 M791.7,772.2h-12c-0.3,0-0.5-0.2-0.5-0.5s0.2-0.5,0.5-0.5h12c0.3,0,0.5,0.2,0.5,0.5S792,772.2,791.7,772.2z M767.7,772.2h-12
				c-0.3,0-0.5-0.2-0.5-0.5s0.2-0.5,0.5-0.5h12c0.3,0,0.5,0.2,0.5,0.5S768,772.2,767.7,772.2z M743.7,772.2h-12
				c-0.3,0-0.5-0.2-0.5-0.5s0.2-0.5,0.5-0.5h12c0.3,0,0.5,0.2,0.5,0.5S744,772.2,743.7,772.2z M719.7,772.2h-12
				c-0.3,0-0.5-0.2-0.5-0.5s0.2-0.5,0.5-0.5h12c0.3,0,0.5,0.2,0.5,0.5S720,772.2,719.7,772.2z M695.7,772.2h-12
				c-0.3,0-0.5-0.2-0.5-0.5s0.2-0.5,0.5-0.5h12c0.3,0,0.5,0.2,0.5,0.5S696,772.2,695.7,772.2z M671.7,772.2h-12
				c-0.3,0-0.5-0.2-0.5-0.5s0.2-0.5,0.5-0.5h12c0.3,0,0.5,0.2,0.5,0.5S672,772.2,671.7,772.2z M647.7,772.2h-12
				c-0.3,0-0.5-0.2-0.5-0.5s0.2-0.5,0.5-0.5h12c0.3,0,0.5,0.2,0.5,0.5S648,772.2,647.7,772.2z M623.7,772.2h-12
				c-0.3,0-0.5-0.2-0.5-0.5s0.2-0.5,0.5-0.5h12c0.3,0,0.5,0.2,0.5,0.5S624,772.2,623.7,772.2z M599.7,772.2h-12
				c-0.3,0-0.5-0.2-0.5-0.5s0.2-0.5,0.5-0.5h12c0.3,0,0.5,0.2,0.5,0.5S600,772.2,599.7,772.2z M575.7,772.2h-12
				c-0.3,0-0.5-0.2-0.5-0.5s0.2-0.5,0.5-0.5h12c0.3,0,0.5,0.2,0.5,0.5S576,772.2,575.7,772.2z"/>
			<path class="st0" d="M833.7,772.2h-6c-0.3,0-0.5-0.2-0.5-0.5s0.2-0.5,0.5-0.5h6c0.3,0,0.5,0.2,0.5,0.5S834,772.2,833.7,772.2z"/>
		</g>
		<g>
			<path class="st0" d="M833.7,772.2c-0.3,0-0.5-0.2-0.5-0.5v-6c0-0.3,0.2-0.5,0.5-0.5s0.5,0.2,0.5,0.5v6
				C834.2,772,834,772.2,833.7,772.2z"/>
			<path class="st0" d="M833.7,754.2c-0.3,0-0.5-0.2-0.5-0.5v-12c0-0.3,0.2-0.5,0.5-0.5s0.5,0.2,0.5,0.5v12
				C834.2,754,834,754.2,833.7,754.2z M833.7,730.2c-0.3,0-0.5-0.2-0.5-0.5v-12c0-0.3,0.2-0.5,0.5-0.5s0.5,0.2,0.5,0.5v12
				C834.2,730,834,730.2,833.7,730.2z M833.7,706.2c-0.3,0-0.5-0.2-0.5-0.5v-12c0-0.3,0.2-0.5,0.5-0.5s0.5,0.2,0.5,0.5v12
				C834.2,706,834,706.2,833.7,706.2z M833.7,682.2c-0.3,0-0.5-0.2-0.5-0.5v-12c0-0.3,0.2-0.5,0.5-0.5s0.5,0.2,0.5,0.5v12
				C834.2,682,834,682.2,833.7,682.2z M833.7,658.2c-0.3,0-0.5-0.2-0.5-0.5v-12c0-0.3,0.2-0.5,0.5-0.5s0.5,0.2,0.5,0.5v12
				C834.2,658,834,658.2,833.7,658.2z"/>
			<path class="st0" d="M833.7,634.2c-0.3,0-0.5-0.2-0.5-0.5v-6c0-0.3,0.2-0.5,0.5-0.5s0.5,0.2,0.5,0.5v6
				C834.2,634,834,634.2,833.7,634.2z"/>
		</g>
		<path class="st0" d="M617.7,709.2c-0.3,0-0.5-0.2-0.5-0.5v-9c0-0.3,0.2-0.5,0.5-0.5s0.5,0.2,0.5,0.5v9
			C618.2,709,618,709.2,617.7,709.2z"/>
		<g>
			<path class="st0" d="M619.7,714.7c-0.1,0-0.3-0.1-0.4-0.2c-1.3-1.7-2.1-3.8-2.1-5.9c0-0.3,0.2-0.5,0.5-0.5s0.5,0.2,0.5,0.5
				c0,1.9,0.7,3.8,1.9,5.3c0.2,0.2,0.1,0.5-0.1,0.7C619.9,714.7,619.8,714.7,619.7,714.7z"/>
			<path class="st0" d="M626.7,718.2c-2.1,0-4.2-0.7-5.9-2.1c-0.2-0.2-0.2-0.5-0.1-0.7c0.2-0.2,0.5-0.2,0.7-0.1
				c1.5,1.2,3.4,1.9,5.3,1.9c0.3,0,0.5,0.2,0.5,0.5S627,718.2,626.7,718.2z"/>
		</g>
		<g>
			<path class="st0" d="M632.7,718.2h-6c-0.3,0-0.5-0.2-0.5-0.5s0.2-0.5,0.5-0.5h6c0.3,0,0.5,0.2,0.5,0.5S633,718.2,632.7,718.2z"/>
			<path class="st0" d="M734,718.2h-12.7c-0.3,0-0.5-0.2-0.5-0.5s0.2-0.5,0.5-0.5H734c0.3,0,0.5,0.2,0.5,0.5S734.3,718.2,734,718.2z
				 M708.7,718.2H696c-0.3,0-0.5-0.2-0.5-0.5s0.2-0.5,0.5-0.5h12.7c0.3,0,0.5,0.2,0.5,0.5S709,718.2,708.7,718.2z M683.4,718.2
				h-12.7c-0.3,0-0.5-0.2-0.5-0.5s0.2-0.5,0.5-0.5h12.7c0.3,0,0.5,0.2,0.5,0.5S683.6,718.2,683.4,718.2z M658,718.2h-12.7
				c-0.3,0-0.5-0.2-0.5-0.5s0.2-0.5,0.5-0.5H658c0.3,0,0.5,0.2,0.5,0.5S658.3,718.2,658,718.2z"/>
			<path class="st0" d="M752.7,718.2h-6c-0.3,0-0.5-0.2-0.5-0.5s0.2-0.5,0.5-0.5h6c0.3,0,0.5,0.2,0.5,0.5S753,718.2,752.7,718.2z"/>
		</g>
		<g>
			<path class="st0" d="M752.7,718.2c-0.3,0-0.5-0.2-0.5-0.5s0.2-0.5,0.5-0.5c1.9,0,3.8-0.6,5.3-1.8c0.2-0.2,0.5-0.1,0.7,0.1
				c0.2,0.2,0.1,0.5-0.1,0.7C756.9,717.5,754.9,718.2,752.7,718.2z"/>
			<path class="st0" d="M759.8,714.7c-0.1,0-0.2,0-0.3-0.1c-0.2-0.2-0.2-0.5-0.1-0.7c1.2-1.5,1.8-3.4,1.8-5.3c0-0.3,0.2-0.5,0.5-0.5
				s0.5,0.2,0.5,0.5c0,2.1-0.7,4.2-2,5.9C760,714.7,759.9,714.7,759.8,714.7z"/>
		</g>
		<path class="st0" d="M761.7,709.2c-0.3,0-0.5-0.2-0.5-0.5v-9c0-0.3,0.2-0.5,0.5-0.5s0.5,0.2,0.5,0.5v9
			C762.2,709,762,709.2,761.7,709.2z"/>
	</g>
	<g id="frontRight">
		<g>
			<path class="st0" d="M833.9,634.2c-0.2,0-0.5-0.2-0.5-0.4c-0.2-2-0.3-4-0.3-6c0-0.3,0.2-0.5,0.5-0.5s0.5,0.2,0.5,0.5
				c0,2,0.1,4,0.2,6C834.5,633.9,834.3,634.2,833.9,634.2C834,634.2,834,634.2,833.9,634.2z"/>
			<path class="st0" d="M888.6,698.1c0,0-0.1,0-0.1,0c-3.7-0.9-7.3-2.1-10.7-3.5c-0.2-0.1-0.4-0.4-0.3-0.6c0.1-0.2,0.4-0.4,0.6-0.3
				c3.4,1.4,7,2.6,10.6,3.5c0.3,0.1,0.4,0.3,0.4,0.6C889,698,888.8,698.1,888.6,698.1z M868,689.6c-0.1,0-0.2,0-0.3-0.1
				c-3.2-2-6.3-4.2-9.1-6.7c-0.2-0.2-0.2-0.5,0-0.7c0.2-0.2,0.5-0.2,0.7,0c2.8,2.4,5.8,4.6,9,6.6c0.2,0.1,0.3,0.4,0.2,0.7
				C868.3,689.5,868.1,689.6,868,689.6z M851,675c-0.1,0-0.3-0.1-0.4-0.2c-2.4-2.9-4.7-5.9-6.7-9.1c-0.1-0.2-0.1-0.5,0.2-0.7
				c0.2-0.1,0.5-0.1,0.7,0.2c1.9,3.2,4.2,6.2,6.6,9c0.2,0.2,0.1,0.5-0.1,0.7C851.2,674.9,851.1,675,851,675z M839.3,655.9
				c-0.2,0-0.4-0.1-0.4-0.3c-1.5-3.5-2.6-7.1-3.5-10.7c-0.1-0.3,0.1-0.5,0.4-0.6c0.3-0.1,0.5,0.1,0.6,0.4c0.9,3.6,2.1,7.2,3.5,10.6
				c0.1,0.2,0,0.5-0.3,0.6C839.4,655.9,839.3,655.9,839.3,655.9z"/>
			<path class="st0" d="M905.7,700.2c-2,0-4-0.1-6-0.2c-0.3,0-0.5-0.3-0.4-0.5c0-0.3,0.3-0.5,0.5-0.4c2,0.2,4,0.2,6,0.2
				c0.3,0,0.5,0.2,0.5,0.5S906,700.2,905.7,700.2z"/>
		</g>
		<g>
			<path class="st0" d="M911.7,700.2h-6c-0.3,0-0.5-0.2-0.5-0.5s0.2-0.5,0.5-0.5h6c0.3,0,0.5,0.2,0.5,0.5S912,700.2,911.7,700.2z"/>
			<path class="st0" d="M923.7,700.2h-6c-0.3,0-0.5-0.2-0.5-0.5s0.2-0.5,0.5-0.5h6c0.3,0,0.5,0.2,0.5,0.5S924,700.2,923.7,700.2z"/>
		</g>
		<g>
			<path class="st0" d="M908.7,700.5c-0.2,0-0.4-0.2-0.5-0.4c0-0.3,0.2-0.5,0.4-0.5c2-0.2,4-0.3,6-0.3c0.3,0,0.5,0.2,0.5,0.5
				s-0.2,0.5-0.5,0.5C912.7,700.2,910.7,700.3,908.7,700.5C908.7,700.5,908.7,700.5,908.7,700.5z"/>
			<path class="st0" d="M863.2,738c0,0-0.1,0-0.1,0c-0.3-0.1-0.4-0.3-0.3-0.6c1-3.3,2.4-6.6,4.1-9.7c0.1-0.2,0.4-0.3,0.7-0.2
				c0.2,0.1,0.3,0.4,0.2,0.7c-1.6,3-3,6.2-4,9.5C863.6,737.9,863.4,738,863.2,738z M873,719.8c-0.1,0-0.2,0-0.3-0.1
				c-0.2-0.2-0.2-0.5-0.1-0.7c1.1-1.3,2.3-2.6,3.5-3.9c1.2-1.2,2.5-2.4,3.9-3.6c0.2-0.2,0.5-0.1,0.7,0.1c0.2,0.2,0.1,0.5-0.1,0.7
				c-1.3,1.1-2.6,2.3-3.8,3.5c-1.2,1.2-2.4,2.5-3.5,3.8C873.3,719.8,873.2,719.8,873,719.8z M889,706.7c-0.2,0-0.3-0.1-0.4-0.3
				c-0.1-0.2,0-0.5,0.2-0.7c3.1-1.7,6.3-3,9.7-4.1c0.3-0.1,0.5,0.1,0.6,0.3c0.1,0.3-0.1,0.5-0.3,0.6c-3.3,1-6.5,2.4-9.5,4
				C889.1,706.6,889,706.7,889,706.7z"/>
			<path class="st0" d="M860.7,754.2c-0.3,0-0.5-0.2-0.5-0.5c0-2,0.1-4,0.3-6c0-0.3,0.3-0.5,0.5-0.4c0.3,0,0.5,0.3,0.4,0.5
				c-0.2,2-0.3,4-0.3,5.9C861.2,754,861,754.2,860.7,754.2z"/>
		</g>
		<g>
			<path class="st0" d="M866.7,754.2h-6c-0.3,0-0.5-0.2-0.5-0.5s0.2-0.5,0.5-0.5h6c0.3,0,0.5,0.2,0.5,0.5S867,754.2,866.7,754.2z"/>
			<path class="st0" d="M960,754.2h-11.7c-0.3,0-0.5-0.2-0.5-0.5s0.2-0.5,0.5-0.5H960c0.3,0,0.5,0.2,0.5,0.5S960.3,754.2,960,754.2z
				 M936.7,754.2H925c-0.3,0-0.5-0.2-0.5-0.5s0.2-0.5,0.5-0.5h11.7c0.3,0,0.5,0.2,0.5,0.5S937,754.2,936.7,754.2z M913.4,754.2
				h-11.7c-0.3,0-0.5-0.2-0.5-0.5s0.2-0.5,0.5-0.5h11.7c0.3,0,0.5,0.2,0.5,0.5S913.6,754.2,913.4,754.2z M890,754.2h-11.7
				c-0.3,0-0.5-0.2-0.5-0.5s0.2-0.5,0.5-0.5H890c0.3,0,0.5,0.2,0.5,0.5S890.3,754.2,890,754.2z"/>
			<path class="st0" d="M977.7,754.2h-6c-0.3,0-0.5-0.2-0.5-0.5s0.2-0.5,0.5-0.5h6c0.3,0,0.5,0.2,0.5,0.5S978,754.2,977.7,754.2z"/>
		</g>
		<g>
			<path class="st0" d="M977.7,754.2c-0.3,0-0.5-0.2-0.5-0.5v-6c0-0.3,0.2-0.5,0.5-0.5s0.5,0.2,0.5,0.5v6
				C978.2,754,978,754.2,977.7,754.2z"/>
			<path class="st0" d="M977.7,735.5c-0.3,0-0.5-0.2-0.5-0.5v-12.7c0-0.3,0.2-0.5,0.5-0.5s0.5,0.2,0.5,0.5V735
				C978.2,735.3,978,735.5,977.7,735.5z M977.7,710.2c-0.3,0-0.5-0.2-0.5-0.5V697c0-0.3,0.2-0.5,0.5-0.5s0.5,0.2,0.5,0.5v12.7
				C978.2,710,978,710.2,977.7,710.2z M977.7,684.8c-0.3,0-0.5-0.2-0.5-0.5v-12.7c0-0.3,0.2-0.5,0.5-0.5s0.5,0.2,0.5,0.5v12.7
				C978.2,684.6,978,684.8,977.7,684.8z M977.7,659.5c-0.3,0-0.5-0.2-0.5-0.5v-12.7c0-0.3,0.2-0.5,0.5-0.5s0.5,0.2,0.5,0.5V659
				C978.2,659.3,978,659.5,977.7,659.5z"/>
			<path class="st0" d="M977.7,634.2c-0.3,0-0.5-0.2-0.5-0.5v-6c0-0.3,0.2-0.5,0.5-0.5s0.5,0.2,0.5,0.5v6
				C978.2,634,978,634.2,977.7,634.2z"/>
		</g>
	</g>
	<g id="text">
		<text transform="matrix(0 -1 1 0 458.4194 418.098)" class="st4 st5 st6">SIDE</text>
		<text transform="matrix(0 -1 1 0 469.2194 437.3578)" class="st4 st5 st6">Printable Area:</text>
		<text transform="matrix(0 -1 1 0 480.0194 420.5482)" class="st4 st5 st6">6&quot; x 2&quot;</text>
		<text transform="matrix(0 1 -1 0 272.7422 384.076)" class="st4 st5 st6">TOP LID</text>
		<text transform="matrix(0 1 -1 0 261.9414 371.816)" class="st4 st5 st6">Printable Area:</text>
		<text transform="matrix(0 1 -1 0 251.1426 388.626)" class="st4 st5 st6">6&quot; x 4&quot;</text>
		<text transform="matrix(0 1 -1 0 920.1836 388.2976)" class="st4 st5 st6">FRONT</text>
		<text transform="matrix(0 1 -1 0 909.3828 374.0276)" class="st4 st5 st6">Printable Area:</text>
		<text transform="matrix(0 1 -1 0 898.584 390.8476)" class="st4 st5 st6">6&quot; x 2&quot;</text>
		<text transform="matrix(0 -1 1 0 694.521 437.2045)" class="st4 st5 st6">Bottom of Box</text>
	</g>
</g>
<g id="Your_Art_Layer">
</g>
</svg>
