<?xml version="1.0" encoding="utf-8"?>
<!-- Generator: Adobe Illustrator 23.0.3, SVG Export Plug-In . SVG Version: 6.00 Build 0)  -->
<svg version="1.1" id="Layer_1" xmlns="http://www.w3.org/2000/svg" xmlns:xlink="http://www.w3.org/1999/xlink" x="0px" y="0px"
	 viewBox="0 0 1078 864" style="enable-background:new 0 0 1078 864;" xml:space="preserve">
<style type="text/css">
	.st0{fill:none;stroke:#3953A4;stroke-width:0.96;stroke-linecap:round;stroke-linejoin:round;stroke-dasharray:2.3;}
	.st1{fill:none;stroke:#ED1F24;stroke-width:0.96;stroke-linecap:round;stroke-linejoin:round;}
	.st2{fill:none;stroke:#ED1F24;stroke-width:0.96;stroke-linecap:round;stroke-linejoin:round;stroke-dasharray:11.8686,11.8686;}
	.st3{fill:none;stroke:#ED1F24;stroke-width:0.96;stroke-linecap:round;stroke-linejoin:round;stroke-dasharray:11.9,11.9;}
	.st4{fill:none;stroke:#ED1F24;stroke-width:0.96;stroke-linecap:round;stroke-linejoin:round;stroke-dasharray:12,12;}
	.st5{fill:none;stroke:#3953A4;stroke-width:0.96;stroke-linecap:round;stroke-linejoin:round;}
	.st6{fill:none;stroke:#3953A4;stroke-width:0.96;stroke-linecap:round;stroke-linejoin:round;stroke-dasharray:12.6667,12.6667;}
	.st7{fill:none;stroke:#3953A4;stroke-width:0.96;stroke-linecap:round;stroke-linejoin:round;stroke-dasharray:11.6667,11.6667;}
	.st8{fill:none;stroke:#3953A4;stroke-width:0.96;stroke-linecap:round;stroke-linejoin:round;stroke-dasharray:10.3999,10.3999;}
	.st9{fill:none;stroke:#3953A4;stroke-width:0.96;stroke-linecap:round;stroke-linejoin:round;stroke-dasharray:11.2333,11.2333;}
	.st10{fill:none;stroke:#3953A4;stroke-width:0.96;stroke-linecap:round;stroke-linejoin:round;stroke-dasharray:12,12;}
	.st11{display:none;}
	.st12{display:inline;}
	.st13{fill:none;stroke:#3953A4;stroke-width:0.96;stroke-linecap:round;stroke-linejoin:round;stroke-dasharray:9;}
	.st14{fill:none;stroke:#3953A4;stroke-width:0.96;stroke-linecap:round;stroke-linejoin:round;stroke-dasharray:10.4023,10.4023;}
	.st15{fill:none;stroke:#3953A4;stroke-width:0.96;stroke-linecap:round;stroke-linejoin:round;stroke-dasharray:10.4048,10.4048;}
	.st16{fill:none;stroke:#3953A4;stroke-width:0.96;stroke-linecap:round;stroke-linejoin:round;stroke-dasharray:0.6;}
	.st17{fill:none;stroke:#3953A4;stroke-width:0.96;stroke-linecap:round;stroke-linejoin:round;stroke-dasharray:13.019,13.019;}
	.st18{fill:none;stroke:#3953A4;stroke-width:0.96;stroke-linecap:round;stroke-linejoin:round;stroke-dasharray:13.0972,13.0972;}
	.st19{fill:none;stroke:#3953A4;stroke-width:0.96;stroke-linecap:round;stroke-linejoin:round;stroke-dasharray:11.8789;}
	.st20{fill:none;stroke:#3953A4;stroke-width:0.96;stroke-linecap:round;stroke-linejoin:round;stroke-dasharray:13.3747,13.3747;}
	.st21{fill:none;stroke:#3953A4;stroke-width:0.96;stroke-linecap:round;stroke-linejoin:round;stroke-dasharray:7.2333,7.2333;}
	.st22{fill:none;stroke:#3953A4;stroke-width:0.96;stroke-linecap:round;stroke-linejoin:round;stroke-dasharray:12.296,12.296;}
	.st23{fill:none;stroke:#3953A4;stroke-width:0.96;stroke-linecap:round;stroke-linejoin:round;stroke-dasharray:10.4056,10.4056;}
	.st24{fill:none;stroke:#3953A4;stroke-width:0.96;stroke-linecap:round;stroke-linejoin:round;stroke-dasharray:13.3754,13.3754;}
	.st25{fill:none;stroke:#3953A4;stroke-width:0.96;stroke-linecap:round;stroke-linejoin:round;stroke-dasharray:13.0954,13.0954;}
	.st26{fill:#00AEEF;}
	.st27{font-family:'ArialMT';}
	.st28{font-size:9px;}
</style>
<g id="Non-Print_Area">
</g>
<g id="Die_Lines">
</g>
<g id="Legend">
</g>
<g id="Bleed">
	<g>
		<line class="st0" x1="116" y1="627.7" x2="116" y2="625.4"/>
	</g>
	<g>
		<line class="st0" x1="116" y1="195.7" x2="116" y2="198"/>
	</g>
	<g>
		<g>
			<line class="st1" x1="116" y1="198" x2="116" y2="204"/>
			<line class="st2" x1="116" y1="215.9" x2="116" y2="613.5"/>
			<line class="st1" x1="116" y1="619.4" x2="116" y2="625.4"/>
		</g>
	</g>
	<g>
		<g>
			<line class="st1" x1="116" y1="627.7" x2="122" y2="627.7"/>
			<line class="st3" x1="133.9" y1="627.7" x2="389.8" y2="627.7"/>
			<line class="st1" x1="395.7" y1="627.7" x2="401.7" y2="627.7"/>
		</g>
	</g>
	<g>
		<g>
			<line class="st1" x1="401.7" y1="627.7" x2="401.7" y2="621.7"/>
			<line class="st4" x1="401.7" y1="609.7" x2="401.7" y2="207.7"/>
			<line class="st1" x1="401.7" y1="201.7" x2="401.7" y2="195.7"/>
		</g>
	</g>
	<g>
		<g>
			<line class="st1" x1="116" y1="195.7" x2="122" y2="195.7"/>
			<line class="st3" x1="133.9" y1="195.7" x2="389.8" y2="195.7"/>
			<line class="st1" x1="395.7" y1="195.7" x2="401.7" y2="195.7"/>
		</g>
	</g>
	<g>
		<g>
			<line class="st1" x1="401.7" y1="195.7" x2="407.7" y2="195.7"/>
			<line class="st4" x1="419.7" y1="195.7" x2="533.7" y2="195.7"/>
			<line class="st1" x1="539.7" y1="195.7" x2="545.7" y2="195.7"/>
		</g>
	</g>
	<g>
		<g>
			<line class="st1" x1="545.7" y1="195.7" x2="545.7" y2="201.7"/>
			<line class="st4" x1="545.7" y1="213.7" x2="545.7" y2="615.7"/>
			<line class="st1" x1="545.7" y1="621.7" x2="545.7" y2="627.7"/>
		</g>
	</g>
	<g>
		<g>
			<line class="st1" x1="401.7" y1="627.7" x2="407.7" y2="627.7"/>
			<line class="st4" x1="419.7" y1="627.7" x2="533.7" y2="627.7"/>
			<line class="st1" x1="539.7" y1="627.7" x2="545.7" y2="627.7"/>
		</g>
	</g>
	<g>
		<g>
			<line class="st1" x1="545.7" y1="627.7" x2="551.7" y2="627.7"/>
			<line class="st4" x1="563.7" y1="627.7" x2="821.7" y2="627.7"/>
			<line class="st1" x1="827.7" y1="627.7" x2="833.7" y2="627.7"/>
		</g>
	</g>
	<g>
		<g>
			<line class="st1" x1="545.7" y1="195.7" x2="551.7" y2="195.7"/>
			<line class="st4" x1="563.7" y1="195.7" x2="821.7" y2="195.7"/>
			<line class="st1" x1="827.7" y1="195.7" x2="833.7" y2="195.7"/>
		</g>
	</g>
	<g id="frontLeft">
		<g>
			<g>
				<line class="st5" x1="977.7" y1="195.7" x2="977.7" y2="189.7"/>
				<line class="st6" x1="977.7" y1="177" x2="977.7" y2="82"/>
				<line class="st5" x1="977.7" y1="75.7" x2="977.7" y2="69.7"/>
			</g>
		</g>
		<g>
			<g>
				<line class="st5" x1="977.7" y1="69.7" x2="971.7" y2="69.7"/>
				<line class="st7" x1="960" y1="69.7" x2="872.5" y2="69.7"/>
				<line class="st5" x1="866.7" y1="69.7" x2="860.7" y2="69.7"/>
			</g>
		</g>
		<g>
			<g>
				<path class="st5" d="M860.7,69.7c0,2,0.1,4,0.3,6"/>
				<path class="st8" d="M863.2,85.8c2.6,8.3,7.2,15.8,13.3,22.1c7.4,7.5,16.9,12.5,27.1,14.7"/>
				<path class="st5" d="M908.7,123.4c2,0.2,4,0.3,6,0.3"/>
			</g>
		</g>
		<g>
			<g>
				<line class="st5" x1="923.7" y1="123.7" x2="917.7" y2="123.7"/>
				<line class="st5" x1="911.7" y1="123.7" x2="905.7" y2="123.7"/>
			</g>
		</g>
		<g>
			<g>
				<path class="st5" d="M905.7,123.7c-2,0-4,0.1-6,0.3"/>
				<path class="st9" d="M888.6,125.8c-12.7,3.1-24.4,9.6-33.8,19c-10.8,10.7-17.8,24.5-20.2,39.3"/>
				<path class="st5" d="M833.9,189.7c-0.2,2-0.2,4-0.2,6"/>
			</g>
		</g>
		<g>
			<g>
				<line class="st1" x1="833.7" y1="195.7" x2="839.7" y2="195.7"/>
				<line class="st4" x1="851.7" y1="195.7" x2="965.7" y2="195.7"/>
				<line class="st1" x1="971.7" y1="195.7" x2="977.7" y2="195.7"/>
			</g>
		</g>
	</g>
	<g id="front">
		<g>
			<g>
				<line class="st1" x1="833.7" y1="627.7" x2="833.7" y2="621.7"/>
				<line class="st4" x1="833.7" y1="609.7" x2="833.7" y2="207.7"/>
				<line class="st1" x1="833.7" y1="201.7" x2="833.7" y2="195.7"/>
			</g>
		</g>
		<g>
			<g>
				<line class="st1" x1="833.7" y1="195.7" x2="839.7" y2="195.7"/>
				<line class="st4" x1="851.7" y1="195.7" x2="965.7" y2="195.7"/>
				<line class="st1" x1="971.7" y1="195.7" x2="977.7" y2="195.7"/>
			</g>
		</g>
		<g>
			<g>
				<line class="st5" x1="977.7" y1="195.7" x2="977.7" y2="201.7"/>
				<line class="st10" x1="977.7" y1="213.7" x2="977.7" y2="615.7"/>
				<line class="st5" x1="977.7" y1="621.7" x2="977.7" y2="627.7"/>
			</g>
		</g>
		<g>
			<g>
				<line class="st1" x1="977.7" y1="627.7" x2="971.7" y2="627.7"/>
				<line class="st4" x1="959.7" y1="627.7" x2="845.7" y2="627.7"/>
				<line class="st1" x1="839.7" y1="627.7" x2="833.7" y2="627.7"/>
			</g>
		</g>
	</g>
	<g id="front2" class="st11">
		<g class="st12">
			<g>
				<line class="st1" x1="833.7" y1="627.7" x2="833.7" y2="621.7"/>
				<line class="st4" x1="833.7" y1="609.7" x2="833.7" y2="207.7"/>
				<line class="st1" x1="833.7" y1="201.7" x2="833.7" y2="195.7"/>
			</g>
		</g>
		<g class="st12">
			<g>
				<line class="st5" x1="977.7" y1="195.7" x2="977.7" y2="201.7"/>
				<line class="st10" x1="977.7" y1="213.7" x2="977.7" y2="615.7"/>
				<line class="st5" x1="977.7" y1="621.7" x2="977.7" y2="627.7"/>
			</g>
		</g>
		<g class="st12">
			<g>
				<line class="st1" x1="977.7" y1="627.7" x2="971.7" y2="627.7"/>
				<line class="st4" x1="959.7" y1="627.7" x2="845.7" y2="627.7"/>
				<line class="st1" x1="839.7" y1="627.7" x2="833.7" y2="627.7"/>
			</g>
		</g>
	</g>
	<g id="asdfasdfadsfasdfasdfadfa">
	</g>
	<g id="asfasdfadsfasdfasdfasdfa">
	</g>
	<g id="asdfasdfadsfasdfasdasdfa">
	</g>
	<g id="asdfasdfasfasdfasdfasdfa">
	</g>
	<g id="asdfasdfadsfasdfasdfasda">
	</g>
	<g id="sdfasdfadsfasdfasdfasdfa">
	</g>
	<g id="bottomLeft">
		<g>
			<line class="st13" x1="761.7" y1="123.7" x2="761.7" y2="114.7"/>
		</g>
		<g>
			<g>
				<path class="st5" d="M761.7,114.7c0-2.1-0.7-4-1.9-5.6"/>
				<path class="st5" d="M758.3,107.6c-1.5-1.2-3.5-1.9-5.6-1.9"/>
			</g>
		</g>
		<g>
			<g>
				<line class="st5" x1="752.7" y1="105.7" x2="746.7" y2="105.7"/>
				<line class="st6" x1="734" y1="105.7" x2="639" y2="105.7"/>
				<line class="st5" x1="632.7" y1="105.7" x2="626.7" y2="105.7"/>
			</g>
		</g>
		<g>
			<g>
				<path class="st5" d="M626.7,105.7c-2.1,0-4,0.7-5.6,2"/>
				<path class="st5" d="M619.7,109.1c-1.2,1.5-2,3.5-2,5.6"/>
			</g>
		</g>
		<g>
			<line class="st13" x1="617.7" y1="114.7" x2="617.7" y2="123.7"/>
		</g>
		<g>
			<g>
				<line class="st5" x1="833.7" y1="195.7" x2="833.7" y2="189.7"/>
				<line class="st10" x1="833.7" y1="177.7" x2="833.7" y2="63.7"/>
				<line class="st5" x1="833.7" y1="57.7" x2="833.7" y2="51.7"/>
			</g>
		</g>
		<g>
			<g>
				<line class="st5" x1="833.7" y1="51.7" x2="827.7" y2="51.7"/>
				<line class="st10" x1="815.7" y1="51.7" x2="557.7" y2="51.7"/>
				<line class="st5" x1="551.7" y1="51.7" x2="545.7" y2="51.7"/>
			</g>
		</g>
		<g>
			<g>
				<line class="st5" x1="545.7" y1="51.7" x2="545.7" y2="57.7"/>
				<line class="st10" x1="545.7" y1="69.7" x2="545.7" y2="183.7"/>
				<line class="st5" x1="545.7" y1="189.7" x2="545.7" y2="195.7"/>
			</g>
		</g>
	</g>
	<g id="backLeft">
		<g>
			<g>
				<path class="st5" d="M545.7,195.7c0-2-0.1-4-0.3-6"/>
				<path class="st9" d="M543.6,178.6c-3.1-12.7-9.6-24.4-19-33.8c-10.7-10.8-24.5-17.8-39.3-20.2"/>
				<path class="st5" d="M479.7,123.9c-2-0.2-4-0.2-6-0.2"/>
			</g>
		</g>
		<g>
			<g>
				<line class="st5" x1="473.7" y1="123.7" x2="467.7" y2="123.7"/>
				<line class="st5" x1="461.7" y1="123.7" x2="455.7" y2="123.7"/>
			</g>
		</g>
		<g>
			<g>
				<path class="st5" d="M464.7,123.7c2,0,4-0.1,6-0.3"/>
				<path class="st14" d="M480.9,121.3c8.2-2.6,15.8-7.1,22-13.4c7.4-7.4,12.5-16.9,14.6-27.1"/>
				<path class="st5" d="M518.4,75.7c0.2-2,0.3-4,0.3-6"/>
			</g>
		</g>
		<g>
			<g>
				<line class="st5" x1="518.7" y1="69.7" x2="512.7" y2="69.7"/>
				<line class="st7" x1="501" y1="69.7" x2="413.5" y2="69.7"/>
				<line class="st5" x1="407.7" y1="69.7" x2="401.7" y2="69.7"/>
			</g>
		</g>
		<g>
			<g>
				<line class="st5" x1="401.7" y1="69.7" x2="401.7" y2="75.7"/>
				<line class="st6" x1="401.7" y1="88.4" x2="401.7" y2="183.4"/>
				<line class="st5" x1="401.7" y1="189.7" x2="401.7" y2="195.7"/>
			</g>
		</g>
	</g>
	<g id="topLeft">
		<g>
			<g>
				<path class="st5" d="M392.7,177.7c0-2-0.1-4-0.3-6"/>
				<path class="st15" d="M390.3,161.5c-2.6-8.2-7.1-15.8-13.4-22c-7.4-7.5-16.9-12.5-27.1-14.7"/>
				<path class="st5" d="M344.7,124c-2-0.2-4-0.3-6-0.3"/>
			</g>
		</g>
		<g>
			<line class="st16" x1="338.7" y1="123.7" x2="338.1" y2="123.7"/>
		</g>
		<g>
			<g>
				<path class="st5" d="M338.1,123.7c-2.1,0-4.1-0.7-5.6-1.9"/>
				<path class="st5" d="M331.8,121.3c-1.4-1.3-2.4-3.2-2.6-5.3"/>
			</g>
		</g>
		<g>
			<g>
				<path class="st5" d="M329.2,116c-0.3-2-0.7-3.9-1.2-5.9"/>
				<path class="st17" d="M323.2,98c-3.1-5.7-7.2-10.8-12.1-15.1c-6.6-5.8-14.5-9.8-23-11.8"/>
				<path class="st5" d="M281.7,70c-2-0.2-4-0.3-6-0.3"/>
			</g>
		</g>
		<g>
			<g>
				<path class="st5" d="M242,69.7c-2,0-4,0.1-6,0.3"/>
				<path class="st18" d="M223.3,73c-6.1,2.3-11.8,5.6-16.8,10c-6.6,5.8-11.7,13.1-14.9,21.3"/>
				<path class="st5" d="M189.6,110.5c-0.5,1.9-0.9,3.9-1.1,5.9"/>
			</g>
		</g>
		<g>
			<path class="st19" d="M188.4,116.4c-0.6,4.1-3.8,7.3-7.9,7.7"/>
		</g>
		<g>
			<g>
				<path class="st5" d="M180.5,124.1c-2,0.2-4,0.5-5.9,0.9"/>
				<path class="st20" d="M161.7,128.7c-10.4,4-19.8,10.5-27.3,18.8c-9,10.1-15,22.5-17.4,35.6"/>
				<path class="st5" d="M116.2,189.7c-0.2,2-0.3,4-0.3,6"/>
			</g>
		</g>
		<g>
			<g>
				<path class="st5" d="M401.7,195.7c-2.1,0-4-0.7-5.6-2"/>
				<path class="st5" d="M394.7,192.3c-1.2-1.5-2-3.5-2-5.6"/>
			</g>
		</g>
		<g>
			<line class="st13" x1="392.7" y1="186.7" x2="392.7" y2="177.7"/>
		</g>
		<g>
			<g>
				<line class="st5" x1="275.7" y1="69.7" x2="269.7" y2="69.7"/>
				<line class="st21" x1="262.5" y1="69.7" x2="251.6" y2="69.7"/>
				<line class="st5" x1="248" y1="69.7" x2="242" y2="69.7"/>
			</g>
		</g>
	</g>
	<g id="topFront">
		<g>
			<g>
				<line class="st5" x1="44" y1="571.4" x2="44" y2="565.4"/>
				<line class="st22" x1="44" y1="553.1" x2="44" y2="264.1"/>
				<line class="st5" x1="44" y1="258" x2="44" y2="252"/>
			</g>
		</g>
		<g>
			<g>
				<g>
					<line class="st5" x1="116" y1="625.4" x2="110" y2="625.4"/>
					<line class="st5" x1="104" y1="625.4" x2="98" y2="625.4"/>
				</g>
			</g>
			<g>
				<g>
					<path class="st5" d="M98,625.4c-2,0-4-0.1-6-0.3"/>
					<path class="st23" d="M81.8,623c-8.2-2.6-15.8-7.1-22-13.4c-7.5-7.5-12.5-16.9-14.7-27.1"/>
					<path class="st5" d="M44.3,577.4c-0.2-2-0.3-4-0.3-6"/>
				</g>
			</g>
			<g>
				<g>
					<path class="st5" d="M44,252c0-2,0.1-4,0.3-6"/>
					<path class="st23" d="M46.4,235.8c2.6-8.3,7.1-15.8,13.4-22c7.4-7.5,16.9-12.5,27.1-14.7"/>
					<path class="st5" d="M92,198.3c2-0.2,4-0.3,6-0.3"/>
				</g>
			</g>
			<g>
				<g>
					<line class="st5" x1="98" y1="198" x2="104" y2="198"/>
					<line class="st5" x1="110" y1="198" x2="116" y2="198"/>
				</g>
			</g>
		</g>
	</g>
	<g id="topRight">
		<g>
			<g>
				<path class="st5" d="M116,627.7c0,2,0.1,4,0.3,6"/>
				<path class="st24" d="M118.6,646.8c3,10.7,8.4,20.6,15.9,29.1c9.1,10.1,20.7,17.3,33.7,21"/>
				<path class="st5" d="M174.7,698.4c2,0.4,3.9,0.7,5.9,0.9"/>
			</g>
		</g>
		<g>
			<path class="st19" d="M180.5,699.3c4.1,0.4,7.3,3.6,7.9,7.7"/>
		</g>
		<g>
			<g>
				<path class="st5" d="M188.4,707c0.3,2,0.7,4,1.1,5.9"/>
				<path class="st25" d="M194.3,725.1c3.1,5.8,7.2,11,12.1,15.3c6.6,5.8,14.6,9.9,23.1,11.9"/>
				<path class="st5" d="M235.9,753.4c2,0.2,4,0.3,6,0.3"/>
			</g>
		</g>
		<g>
			<g>
				<line class="st5" x1="242" y1="753.7" x2="248" y2="753.7"/>
				<line class="st21" x1="255.2" y1="753.7" x2="266.1" y2="753.7"/>
				<line class="st5" x1="269.7" y1="753.7" x2="275.7" y2="753.7"/>
			</g>
		</g>
		<g>
			<g>
				<path class="st5" d="M275.7,753.7c2,0,4-0.1,6-0.3"/>
				<path class="st17" d="M294.3,750.4c6.1-2.2,11.8-5.6,16.8-9.9c6.6-5.7,11.7-13,14.9-21"/>
				<path class="st5" d="M328,713.3c0.5-1.9,0.9-3.9,1.2-5.9"/>
			</g>
		</g>
		<g>
			<g>
				<path class="st5" d="M329.2,707.4c0.3-2.1,1.3-3.9,2.7-5.2"/>
				<path class="st5" d="M332.5,701.6c1.5-1.2,3.5-1.9,5.6-1.9"/>
			</g>
		</g>
		<g>
			<line class="st16" x1="338.1" y1="699.7" x2="338.7" y2="699.7"/>
		</g>
		<g>
			<g>
				<path class="st5" d="M338.7,699.7c2,0,4-0.1,6-0.3"/>
				<path class="st15" d="M354.9,697.3c8.2-2.6,15.8-7.1,22-13.4c7.5-7.4,12.5-16.9,14.7-27.1"/>
				<path class="st5" d="M392.4,651.7c0.2-2,0.3-4,0.3-6"/>
			</g>
		</g>
		<g>
			<line class="st13" x1="392.7" y1="645.7" x2="392.7" y2="636.7"/>
		</g>
		<g>
			<g>
				<path class="st5" d="M392.7,636.7c0-2.1,0.7-4,2-5.6"/>
				<path class="st5" d="M396.1,629.7c1.5-1.2,3.5-2,5.6-2"/>
			</g>
		</g>
	</g>
	<g id="backRight">
		<g>
			<g>
				<line class="st5" x1="401.7" y1="627.7" x2="401.7" y2="633.7"/>
				<line class="st6" x1="401.7" y1="646.4" x2="401.7" y2="741.4"/>
				<line class="st5" x1="401.7" y1="747.7" x2="401.7" y2="753.7"/>
			</g>
		</g>
		<g>
			<g>
				<line class="st5" x1="401.7" y1="753.7" x2="407.7" y2="753.7"/>
				<line class="st7" x1="419.4" y1="753.7" x2="506.9" y2="753.7"/>
				<line class="st5" x1="512.7" y1="753.7" x2="518.7" y2="753.7"/>
			</g>
		</g>
		<g>
			<g>
				<path class="st5" d="M518.7,753.7c0-2-0.1-4-0.3-6"/>
				<path class="st15" d="M516.3,737.5c-2.6-8.2-7.1-15.8-13.4-22c-7.4-7.5-16.9-12.5-27.1-14.7"/>
				<path class="st5" d="M470.7,700c-2-0.2-4-0.3-6-0.3"/>
			</g>
		</g>
		<g>
			<g>
				<line class="st5" x1="455.7" y1="699.7" x2="461.7" y2="699.7"/>
				<line class="st5" x1="467.7" y1="699.7" x2="473.7" y2="699.7"/>
			</g>
		</g>
		<g>
			<g>
				<path class="st5" d="M473.7,699.7c2,0,4-0.1,6-0.3"/>
				<path class="st9" d="M490.8,697.6c12.7-3.1,24.4-9.6,33.8-19c10.8-10.7,17.8-24.5,20.2-39.3"/>
				<path class="st5" d="M545.5,633.7c0.2-2,0.2-4,0.2-6"/>
			</g>
		</g>
	</g>
	<g id="bottomRight">
		<g>
			<g>
				<line class="st5" x1="545.7" y1="627.7" x2="545.7" y2="633.7"/>
				<line class="st10" x1="545.7" y1="645.7" x2="545.7" y2="759.7"/>
				<line class="st5" x1="545.7" y1="765.7" x2="545.7" y2="771.7"/>
			</g>
		</g>
		<g>
			<g>
				<line class="st5" x1="545.7" y1="771.7" x2="551.7" y2="771.7"/>
				<line class="st10" x1="563.7" y1="771.7" x2="821.7" y2="771.7"/>
				<line class="st5" x1="827.7" y1="771.7" x2="833.7" y2="771.7"/>
			</g>
		</g>
		<g>
			<g>
				<line class="st5" x1="833.7" y1="771.7" x2="833.7" y2="765.7"/>
				<line class="st10" x1="833.7" y1="753.7" x2="833.7" y2="639.7"/>
				<line class="st5" x1="833.7" y1="633.7" x2="833.7" y2="627.7"/>
			</g>
		</g>
		<g>
			<line class="st13" x1="617.7" y1="699.7" x2="617.7" y2="708.7"/>
		</g>
		<g>
			<g>
				<path class="st5" d="M617.7,708.7c0,2.1,0.7,4,2,5.6"/>
				<path class="st5" d="M621.1,715.7c1.5,1.2,3.5,2,5.6,2"/>
			</g>
		</g>
		<g>
			<g>
				<line class="st5" x1="626.7" y1="717.7" x2="632.7" y2="717.7"/>
				<line class="st6" x1="645.4" y1="717.7" x2="740.4" y2="717.7"/>
				<line class="st5" x1="746.7" y1="717.7" x2="752.7" y2="717.7"/>
			</g>
		</g>
		<g>
			<g>
				<path class="st5" d="M752.7,717.7c2.1,0,4-0.7,5.6-1.9"/>
				<path class="st5" d="M759.8,714.3c1.2-1.5,1.9-3.5,1.9-5.6"/>
			</g>
		</g>
		<g>
			<line class="st13" x1="761.7" y1="708.7" x2="761.7" y2="699.7"/>
		</g>
	</g>
	<g id="frontRight">
		<g>
			<g>
				<path class="st5" d="M833.7,627.7c0,2,0.1,4,0.3,6"/>
				<path class="st9" d="M835.8,644.8c3.1,12.7,9.6,24.4,19,33.8c10.7,10.8,24.5,17.8,39.3,20.2"/>
				<path class="st5" d="M899.7,699.5c2,0.2,4,0.2,6,0.2"/>
			</g>
		</g>
		<g>
			<g>
				<line class="st5" x1="905.7" y1="699.7" x2="911.7" y2="699.7"/>
				<line class="st5" x1="917.7" y1="699.7" x2="923.7" y2="699.7"/>
			</g>
		</g>
		<g>
			<g>
				<path class="st5" d="M914.7,699.7c-2,0-4,0.1-6,0.3"/>
				<path class="st14" d="M898.5,702.1c-8.2,2.6-15.8,7.1-22,13.4c-7.4,7.4-12.5,16.9-14.6,27.1"/>
				<path class="st5" d="M861,747.7c-0.2,2-0.3,4-0.3,6"/>
			</g>
		</g>
		<g>
			<g>
				<line class="st5" x1="860.7" y1="753.7" x2="866.7" y2="753.7"/>
				<line class="st7" x1="878.4" y1="753.7" x2="965.9" y2="753.7"/>
				<line class="st5" x1="971.7" y1="753.7" x2="977.7" y2="753.7"/>
			</g>
		</g>
		<g>
			<g>
				<line class="st5" x1="977.7" y1="753.7" x2="977.7" y2="747.7"/>
				<line class="st6" x1="977.7" y1="735" x2="977.7" y2="640"/>
				<line class="st5" x1="977.7" y1="633.7" x2="977.7" y2="627.7"/>
			</g>
		</g>
	</g>
	<g id="text">
		<text transform="matrix(0 -1 1 0 458.4194 418.098)" class="st26 st27 st28">SIDE</text>
		<text transform="matrix(0 -1 1 0 469.2194 437.3578)" class="st26 st27 st28">Printable Area:</text>
		<text transform="matrix(0 -1 1 0 480.0194 420.5482)" class="st26 st27 st28">6&quot; x 2&quot;</text>
		<text transform="matrix(0 1 -1 0 272.7422 384.076)" class="st26 st27 st28">TOP LID</text>
		<text transform="matrix(0 1 -1 0 261.9414 371.816)" class="st26 st27 st28">Printable Area:</text>
		<text transform="matrix(0 1 -1 0 251.1426 388.626)" class="st26 st27 st28">6&quot; x 4&quot;</text>
		<text transform="matrix(0 1 -1 0 920.1836 388.2976)" class="st26 st27 st28">FRONT</text>
		<text transform="matrix(0 1 -1 0 909.3828 374.0276)" class="st26 st27 st28">Printable Area:</text>
		<text transform="matrix(0 1 -1 0 898.584 390.8476)" class="st26 st27 st28">6&quot; x 2&quot;</text>
		<text transform="matrix(0 -1 1 0 694.521 437.2045)" class="st26 st27 st28">Bottom of Box</text>
	</g>
</g>
<g id="Your_Art_Layer">
</g>
</svg>
