<?xml version="1.0" encoding="utf-8"?>
<!-- Generator: Adobe Illustrator 23.0.3, SVG Export Plug-In . SVG Version: 6.00 Build 0)  -->
<svg version="1.1" id="Layer_1" xmlns="http://www.w3.org/2000/svg" xmlns:xlink="http://www.w3.org/1999/xlink" x="0px" y="0px"
	 viewBox="0 0 1078 864" style="enable-background:new 0 0 1078 864;" xml:space="preserve">
<style type="text/css">
	.st0{display:none;fill:#3953A4;}
	.st1{display:none;fill:#ED1F24;}
	.st2{fill:none;}
	.st3{display:none;}
	.st4{display:inline;fill:#3953A4;}
	.st5{display:inline;}
	.st6{fill:#3953A4;}
	.st7{display:inline;fill:#00AEEF;}
	.st8{font-family:'ArialMT';}
	.st9{font-size:9px;}
</style>
<g id="Bleed">
	<path class="st0" d="M116,628.2c-0.3,0-0.5-0.2-0.5-0.5v-2.3c0-0.3,0.2-0.5,0.5-0.5s0.5,0.2,0.5,0.5v2.3
		C116.5,628,116.3,628.2,116,628.2z"/>
	<path class="st0" d="M116,198.5c-0.3,0-0.5-0.2-0.5-0.5v-2.3c0-0.3,0.2-0.5,0.5-0.5s0.5,0.2,0.5,0.5v2.3
		C116.5,198.3,116.3,198.5,116,198.5z"/>
	<path class="st1" d="M116,622.5c-0.3,0-0.5-0.2-0.5-0.5v-4c0-0.3,0.2-0.5,0.5-0.5s0.5,0.2,0.5,0.5v4
		C116.5,622.3,116.3,622.5,116,622.5z M116,612.5c-0.3,0-0.5-0.2-0.5-0.5v-4c0-0.3,0.2-0.5,0.5-0.5s0.5,0.2,0.5,0.5v4
		C116.5,612.3,116.3,612.5,116,612.5z M116,602.5c-0.3,0-0.5-0.2-0.5-0.5v-4c0-0.3,0.2-0.5,0.5-0.5s0.5,0.2,0.5,0.5v4
		C116.5,602.3,116.3,602.5,116,602.5z M116,592.5c-0.3,0-0.5-0.2-0.5-0.5v-4c0-0.3,0.2-0.5,0.5-0.5s0.5,0.2,0.5,0.5v4
		C116.5,592.3,116.3,592.5,116,592.5z M116,582.5c-0.3,0-0.5-0.2-0.5-0.5v-4c0-0.3,0.2-0.5,0.5-0.5s0.5,0.2,0.5,0.5v4
		C116.5,582.3,116.3,582.5,116,582.5z M116,572.5c-0.3,0-0.5-0.2-0.5-0.5v-4c0-0.3,0.2-0.5,0.5-0.5s0.5,0.2,0.5,0.5v4
		C116.5,572.3,116.3,572.5,116,572.5z M116,562.5c-0.3,0-0.5-0.2-0.5-0.5v-4c0-0.3,0.2-0.5,0.5-0.5s0.5,0.2,0.5,0.5v4
		C116.5,562.3,116.3,562.5,116,562.5z M116,552.5c-0.3,0-0.5-0.2-0.5-0.5v-4c0-0.3,0.2-0.5,0.5-0.5s0.5,0.2,0.5,0.5v4
		C116.5,552.3,116.3,552.5,116,552.5z M116,542.5c-0.3,0-0.5-0.2-0.5-0.5v-4c0-0.3,0.2-0.5,0.5-0.5s0.5,0.2,0.5,0.5v4
		C116.5,542.3,116.3,542.5,116,542.5z M116,532.5c-0.3,0-0.5-0.2-0.5-0.5v-4c0-0.3,0.2-0.5,0.5-0.5s0.5,0.2,0.5,0.5v4
		C116.5,532.3,116.3,532.5,116,532.5z M116,522.5c-0.3,0-0.5-0.2-0.5-0.5v-4c0-0.3,0.2-0.5,0.5-0.5s0.5,0.2,0.5,0.5v4
		C116.5,522.3,116.3,522.5,116,522.5z M116,512.5c-0.3,0-0.5-0.2-0.5-0.5v-4c0-0.3,0.2-0.5,0.5-0.5s0.5,0.2,0.5,0.5v4
		C116.5,512.3,116.3,512.5,116,512.5z M116,502.5c-0.3,0-0.5-0.2-0.5-0.5v-4c0-0.3,0.2-0.5,0.5-0.5s0.5,0.2,0.5,0.5v4
		C116.5,502.3,116.3,502.5,116,502.5z M116,492.5c-0.3,0-0.5-0.2-0.5-0.5v-4c0-0.3,0.2-0.5,0.5-0.5s0.5,0.2,0.5,0.5v4
		C116.5,492.3,116.3,492.5,116,492.5z M116,482.5c-0.3,0-0.5-0.2-0.5-0.5v-4c0-0.3,0.2-0.5,0.5-0.5s0.5,0.2,0.5,0.5v4
		C116.5,482.3,116.3,482.5,116,482.5z M116,472.5c-0.3,0-0.5-0.2-0.5-0.5v-4c0-0.3,0.2-0.5,0.5-0.5s0.5,0.2,0.5,0.5v4
		C116.5,472.3,116.3,472.5,116,472.5z M116,462.5c-0.3,0-0.5-0.2-0.5-0.5v-4c0-0.3,0.2-0.5,0.5-0.5s0.5,0.2,0.5,0.5v4
		C116.5,462.3,116.3,462.5,116,462.5z M116,452.5c-0.3,0-0.5-0.2-0.5-0.5v-4c0-0.3,0.2-0.5,0.5-0.5s0.5,0.2,0.5,0.5v4
		C116.5,452.3,116.3,452.5,116,452.5z M116,442.5c-0.3,0-0.5-0.2-0.5-0.5v-4c0-0.3,0.2-0.5,0.5-0.5s0.5,0.2,0.5,0.5v4
		C116.5,442.3,116.3,442.5,116,442.5z M116,432.5c-0.3,0-0.5-0.2-0.5-0.5v-4c0-0.3,0.2-0.5,0.5-0.5s0.5,0.2,0.5,0.5v4
		C116.5,432.3,116.3,432.5,116,432.5z M116,422.5c-0.3,0-0.5-0.2-0.5-0.5v-4c0-0.3,0.2-0.5,0.5-0.5s0.5,0.2,0.5,0.5v4
		C116.5,422.3,116.3,422.5,116,422.5z M116,412.5c-0.3,0-0.5-0.2-0.5-0.5v-4c0-0.3,0.2-0.5,0.5-0.5s0.5,0.2,0.5,0.5v4
		C116.5,412.3,116.3,412.5,116,412.5z M116,402.5c-0.3,0-0.5-0.2-0.5-0.5v-4c0-0.3,0.2-0.5,0.5-0.5s0.5,0.2,0.5,0.5v4
		C116.5,402.3,116.3,402.5,116,402.5z M116,392.5c-0.3,0-0.5-0.2-0.5-0.5v-4c0-0.3,0.2-0.5,0.5-0.5s0.5,0.2,0.5,0.5v4
		C116.5,392.3,116.3,392.5,116,392.5z M116,382.5c-0.3,0-0.5-0.2-0.5-0.5v-4c0-0.3,0.2-0.5,0.5-0.5s0.5,0.2,0.5,0.5v4
		C116.5,382.3,116.3,382.5,116,382.5z M116,372.5c-0.3,0-0.5-0.2-0.5-0.5v-4c0-0.3,0.2-0.5,0.5-0.5s0.5,0.2,0.5,0.5v4
		C116.5,372.3,116.3,372.5,116,372.5z M116,362.5c-0.3,0-0.5-0.2-0.5-0.5v-4c0-0.3,0.2-0.5,0.5-0.5s0.5,0.2,0.5,0.5v4
		C116.5,362.3,116.3,362.5,116,362.5z M116,352.5c-0.3,0-0.5-0.2-0.5-0.5v-4c0-0.3,0.2-0.5,0.5-0.5s0.5,0.2,0.5,0.5v4
		C116.5,352.3,116.3,352.5,116,352.5z M116,342.5c-0.3,0-0.5-0.2-0.5-0.5v-4c0-0.3,0.2-0.5,0.5-0.5s0.5,0.2,0.5,0.5v4
		C116.5,342.3,116.3,342.5,116,342.5z M116,332.5c-0.3,0-0.5-0.2-0.5-0.5v-4c0-0.3,0.2-0.5,0.5-0.5s0.5,0.2,0.5,0.5v4
		C116.5,332.3,116.3,332.5,116,332.5z M116,322.5c-0.3,0-0.5-0.2-0.5-0.5v-4c0-0.3,0.2-0.5,0.5-0.5s0.5,0.2,0.5,0.5v4
		C116.5,322.3,116.3,322.5,116,322.5z M116,312.5c-0.3,0-0.5-0.2-0.5-0.5v-4c0-0.3,0.2-0.5,0.5-0.5s0.5,0.2,0.5,0.5v4
		C116.5,312.3,116.3,312.5,116,312.5z M116,302.5c-0.3,0-0.5-0.2-0.5-0.5v-4c0-0.3,0.2-0.5,0.5-0.5s0.5,0.2,0.5,0.5v4
		C116.5,302.3,116.3,302.5,116,302.5z M116,292.5c-0.3,0-0.5-0.2-0.5-0.5v-4c0-0.3,0.2-0.5,0.5-0.5s0.5,0.2,0.5,0.5v4
		C116.5,292.3,116.3,292.5,116,292.5z M116,282.5c-0.3,0-0.5-0.2-0.5-0.5v-4c0-0.3,0.2-0.5,0.5-0.5s0.5,0.2,0.5,0.5v4
		C116.5,282.3,116.3,282.5,116,282.5z M116,272.5c-0.3,0-0.5-0.2-0.5-0.5v-4c0-0.3,0.2-0.5,0.5-0.5s0.5,0.2,0.5,0.5v4
		C116.5,272.3,116.3,272.5,116,272.5z M116,262.5c-0.3,0-0.5-0.2-0.5-0.5v-4c0-0.3,0.2-0.5,0.5-0.5s0.5,0.2,0.5,0.5v4
		C116.5,262.3,116.3,262.5,116,262.5z M116,252.5c-0.3,0-0.5-0.2-0.5-0.5v-4c0-0.3,0.2-0.5,0.5-0.5s0.5,0.2,0.5,0.5v4
		C116.5,252.3,116.3,252.5,116,252.5z M116,242.5c-0.3,0-0.5-0.2-0.5-0.5v-4c0-0.3,0.2-0.5,0.5-0.5s0.5,0.2,0.5,0.5v4
		C116.5,242.3,116.3,242.5,116,242.5z M116,232.5c-0.3,0-0.5-0.2-0.5-0.5v-4c0-0.3,0.2-0.5,0.5-0.5s0.5,0.2,0.5,0.5v4
		C116.5,232.3,116.3,232.5,116,232.5z M116,222.5c-0.3,0-0.5-0.2-0.5-0.5v-4c0-0.3,0.2-0.5,0.5-0.5s0.5,0.2,0.5,0.5v4
		C116.5,222.3,116.3,222.5,116,222.5z M116,212.5c-0.3,0-0.5-0.2-0.5-0.5v-4c0-0.3,0.2-0.5,0.5-0.5s0.5,0.2,0.5,0.5v4
		C116.5,212.3,116.3,212.5,116,212.5z M116,202.5c-0.3,0-0.5-0.2-0.5-0.5v-4c0-0.3,0.2-0.5,0.5-0.5s0.5,0.2,0.5,0.5v4
		C116.5,202.3,116.3,202.5,116,202.5z"/>
	<path class="st1" d="M400,628.2h-4c-0.3,0-0.5-0.2-0.5-0.5s0.2-0.5,0.5-0.5h4c0.3,0,0.5,0.2,0.5,0.5S400.3,628.2,400,628.2z
		 M390,628.2h-4c-0.3,0-0.5-0.2-0.5-0.5s0.2-0.5,0.5-0.5h4c0.3,0,0.5,0.2,0.5,0.5S390.3,628.2,390,628.2z M380,628.2h-4
		c-0.3,0-0.5-0.2-0.5-0.5s0.2-0.5,0.5-0.5h4c0.3,0,0.5,0.2,0.5,0.5S380.3,628.2,380,628.2z M370,628.2h-4c-0.3,0-0.5-0.2-0.5-0.5
		s0.2-0.5,0.5-0.5h4c0.3,0,0.5,0.2,0.5,0.5S370.3,628.2,370,628.2z M360,628.2h-4c-0.3,0-0.5-0.2-0.5-0.5s0.2-0.5,0.5-0.5h4
		c0.3,0,0.5,0.2,0.5,0.5S360.3,628.2,360,628.2z M350,628.2h-4c-0.3,0-0.5-0.2-0.5-0.5s0.2-0.5,0.5-0.5h4c0.3,0,0.5,0.2,0.5,0.5
		S350.3,628.2,350,628.2z M340,628.2h-4c-0.3,0-0.5-0.2-0.5-0.5s0.2-0.5,0.5-0.5h4c0.3,0,0.5,0.2,0.5,0.5S340.3,628.2,340,628.2z
		 M330,628.2h-4c-0.3,0-0.5-0.2-0.5-0.5s0.2-0.5,0.5-0.5h4c0.3,0,0.5,0.2,0.5,0.5S330.3,628.2,330,628.2z M320,628.2h-4
		c-0.3,0-0.5-0.2-0.5-0.5s0.2-0.5,0.5-0.5h4c0.3,0,0.5,0.2,0.5,0.5S320.3,628.2,320,628.2z M310,628.2h-4c-0.3,0-0.5-0.2-0.5-0.5
		s0.2-0.5,0.5-0.5h4c0.3,0,0.5,0.2,0.5,0.5S310.3,628.2,310,628.2z M300,628.2h-4c-0.3,0-0.5-0.2-0.5-0.5s0.2-0.5,0.5-0.5h4
		c0.3,0,0.5,0.2,0.5,0.5S300.3,628.2,300,628.2z M290,628.2h-4c-0.3,0-0.5-0.2-0.5-0.5s0.2-0.5,0.5-0.5h4c0.3,0,0.5,0.2,0.5,0.5
		S290.3,628.2,290,628.2z M280,628.2h-4c-0.3,0-0.5-0.2-0.5-0.5s0.2-0.5,0.5-0.5h4c0.3,0,0.5,0.2,0.5,0.5S280.3,628.2,280,628.2z
		 M270,628.2h-4c-0.3,0-0.5-0.2-0.5-0.5s0.2-0.5,0.5-0.5h4c0.3,0,0.5,0.2,0.5,0.5S270.3,628.2,270,628.2z M260,628.2h-4
		c-0.3,0-0.5-0.2-0.5-0.5s0.2-0.5,0.5-0.5h4c0.3,0,0.5,0.2,0.5,0.5S260.3,628.2,260,628.2z M250,628.2h-4c-0.3,0-0.5-0.2-0.5-0.5
		s0.2-0.5,0.5-0.5h4c0.3,0,0.5,0.2,0.5,0.5S250.3,628.2,250,628.2z M240,628.2h-4c-0.3,0-0.5-0.2-0.5-0.5s0.2-0.5,0.5-0.5h4
		c0.3,0,0.5,0.2,0.5,0.5S240.3,628.2,240,628.2z M230,628.2h-4c-0.3,0-0.5-0.2-0.5-0.5s0.2-0.5,0.5-0.5h4c0.3,0,0.5,0.2,0.5,0.5
		S230.3,628.2,230,628.2z M220,628.2h-4c-0.3,0-0.5-0.2-0.5-0.5s0.2-0.5,0.5-0.5h4c0.3,0,0.5,0.2,0.5,0.5S220.3,628.2,220,628.2z
		 M210,628.2h-4c-0.3,0-0.5-0.2-0.5-0.5s0.2-0.5,0.5-0.5h4c0.3,0,0.5,0.2,0.5,0.5S210.3,628.2,210,628.2z M200,628.2h-4
		c-0.3,0-0.5-0.2-0.5-0.5s0.2-0.5,0.5-0.5h4c0.3,0,0.5,0.2,0.5,0.5S200.3,628.2,200,628.2z M190,628.2h-4c-0.3,0-0.5-0.2-0.5-0.5
		s0.2-0.5,0.5-0.5h4c0.3,0,0.5,0.2,0.5,0.5S190.3,628.2,190,628.2z M180,628.2h-4c-0.3,0-0.5-0.2-0.5-0.5s0.2-0.5,0.5-0.5h4
		c0.3,0,0.5,0.2,0.5,0.5S180.3,628.2,180,628.2z M170,628.2h-4c-0.3,0-0.5-0.2-0.5-0.5s0.2-0.5,0.5-0.5h4c0.3,0,0.5,0.2,0.5,0.5
		S170.3,628.2,170,628.2z M160,628.2h-4c-0.3,0-0.5-0.2-0.5-0.5s0.2-0.5,0.5-0.5h4c0.3,0,0.5,0.2,0.5,0.5S160.3,628.2,160,628.2z
		 M150,628.2h-4c-0.3,0-0.5-0.2-0.5-0.5s0.2-0.5,0.5-0.5h4c0.3,0,0.5,0.2,0.5,0.5S150.3,628.2,150,628.2z M140,628.2h-4
		c-0.3,0-0.5-0.2-0.5-0.5s0.2-0.5,0.5-0.5h4c0.3,0,0.5,0.2,0.5,0.5S140.3,628.2,140,628.2z M130,628.2h-4c-0.3,0-0.5-0.2-0.5-0.5
		s0.2-0.5,0.5-0.5h4c0.3,0,0.5,0.2,0.5,0.5S130.3,628.2,130,628.2z M120,628.2h-4c-0.3,0-0.5-0.2-0.5-0.5s0.2-0.5,0.5-0.5h4
		c0.3,0,0.5,0.2,0.5,0.5S120.3,628.2,120,628.2z"/>
	<path class="st1" d="M401.7,628.2c-0.3,0-0.5-0.2-0.5-0.5v-4c0-0.3,0.2-0.5,0.5-0.5s0.5,0.2,0.5,0.5v4
		C402.2,628,402,628.2,401.7,628.2z M401.7,618.2c-0.3,0-0.5-0.2-0.5-0.5v-4c0-0.3,0.2-0.5,0.5-0.5s0.5,0.2,0.5,0.5v4
		C402.2,618,402,618.2,401.7,618.2z M401.7,608.2c-0.3,0-0.5-0.2-0.5-0.5v-4c0-0.3,0.2-0.5,0.5-0.5s0.5,0.2,0.5,0.5v4
		C402.2,608,402,608.2,401.7,608.2z M401.7,598.2c-0.3,0-0.5-0.2-0.5-0.5v-4c0-0.3,0.2-0.5,0.5-0.5s0.5,0.2,0.5,0.5v4
		C402.2,598,402,598.2,401.7,598.2z M401.7,588.2c-0.3,0-0.5-0.2-0.5-0.5v-4c0-0.3,0.2-0.5,0.5-0.5s0.5,0.2,0.5,0.5v4
		C402.2,588,402,588.2,401.7,588.2z M401.7,578.2c-0.3,0-0.5-0.2-0.5-0.5v-4c0-0.3,0.2-0.5,0.5-0.5s0.5,0.2,0.5,0.5v4
		C402.2,578,402,578.2,401.7,578.2z M401.7,568.2c-0.3,0-0.5-0.2-0.5-0.5v-4c0-0.3,0.2-0.5,0.5-0.5s0.5,0.2,0.5,0.5v4
		C402.2,568,402,568.2,401.7,568.2z M401.7,558.2c-0.3,0-0.5-0.2-0.5-0.5v-4c0-0.3,0.2-0.5,0.5-0.5s0.5,0.2,0.5,0.5v4
		C402.2,558,402,558.2,401.7,558.2z M401.7,548.2c-0.3,0-0.5-0.2-0.5-0.5v-4c0-0.3,0.2-0.5,0.5-0.5s0.5,0.2,0.5,0.5v4
		C402.2,548,402,548.2,401.7,548.2z M401.7,538.2c-0.3,0-0.5-0.2-0.5-0.5v-4c0-0.3,0.2-0.5,0.5-0.5s0.5,0.2,0.5,0.5v4
		C402.2,538,402,538.2,401.7,538.2z M401.7,528.2c-0.3,0-0.5-0.2-0.5-0.5v-4c0-0.3,0.2-0.5,0.5-0.5s0.5,0.2,0.5,0.5v4
		C402.2,528,402,528.2,401.7,528.2z M401.7,518.2c-0.3,0-0.5-0.2-0.5-0.5v-4c0-0.3,0.2-0.5,0.5-0.5s0.5,0.2,0.5,0.5v4
		C402.2,518,402,518.2,401.7,518.2z M401.7,508.2c-0.3,0-0.5-0.2-0.5-0.5v-4c0-0.3,0.2-0.5,0.5-0.5s0.5,0.2,0.5,0.5v4
		C402.2,508,402,508.2,401.7,508.2z M401.7,498.2c-0.3,0-0.5-0.2-0.5-0.5v-4c0-0.3,0.2-0.5,0.5-0.5s0.5,0.2,0.5,0.5v4
		C402.2,498,402,498.2,401.7,498.2z M401.7,488.2c-0.3,0-0.5-0.2-0.5-0.5v-4c0-0.3,0.2-0.5,0.5-0.5s0.5,0.2,0.5,0.5v4
		C402.2,488,402,488.2,401.7,488.2z M401.7,478.2c-0.3,0-0.5-0.2-0.5-0.5v-4c0-0.3,0.2-0.5,0.5-0.5s0.5,0.2,0.5,0.5v4
		C402.2,478,402,478.2,401.7,478.2z M401.7,468.2c-0.3,0-0.5-0.2-0.5-0.5v-4c0-0.3,0.2-0.5,0.5-0.5s0.5,0.2,0.5,0.5v4
		C402.2,468,402,468.2,401.7,468.2z M401.7,458.2c-0.3,0-0.5-0.2-0.5-0.5v-4c0-0.3,0.2-0.5,0.5-0.5s0.5,0.2,0.5,0.5v4
		C402.2,458,402,458.2,401.7,458.2z M401.7,448.2c-0.3,0-0.5-0.2-0.5-0.5v-4c0-0.3,0.2-0.5,0.5-0.5s0.5,0.2,0.5,0.5v4
		C402.2,448,402,448.2,401.7,448.2z M401.7,438.2c-0.3,0-0.5-0.2-0.5-0.5v-4c0-0.3,0.2-0.5,0.5-0.5s0.5,0.2,0.5,0.5v4
		C402.2,438,402,438.2,401.7,438.2z M401.7,428.2c-0.3,0-0.5-0.2-0.5-0.5v-4c0-0.3,0.2-0.5,0.5-0.5s0.5,0.2,0.5,0.5v4
		C402.2,428,402,428.2,401.7,428.2z M401.7,418.2c-0.3,0-0.5-0.2-0.5-0.5v-4c0-0.3,0.2-0.5,0.5-0.5s0.5,0.2,0.5,0.5v4
		C402.2,418,402,418.2,401.7,418.2z M401.7,408.2c-0.3,0-0.5-0.2-0.5-0.5v-4c0-0.3,0.2-0.5,0.5-0.5s0.5,0.2,0.5,0.5v4
		C402.2,408,402,408.2,401.7,408.2z M401.7,398.2c-0.3,0-0.5-0.2-0.5-0.5v-4c0-0.3,0.2-0.5,0.5-0.5s0.5,0.2,0.5,0.5v4
		C402.2,398,402,398.2,401.7,398.2z M401.7,388.2c-0.3,0-0.5-0.2-0.5-0.5v-4c0-0.3,0.2-0.5,0.5-0.5s0.5,0.2,0.5,0.5v4
		C402.2,388,402,388.2,401.7,388.2z M401.7,378.2c-0.3,0-0.5-0.2-0.5-0.5v-4c0-0.3,0.2-0.5,0.5-0.5s0.5,0.2,0.5,0.5v4
		C402.2,378,402,378.2,401.7,378.2z M401.7,368.2c-0.3,0-0.5-0.2-0.5-0.5v-4c0-0.3,0.2-0.5,0.5-0.5s0.5,0.2,0.5,0.5v4
		C402.2,368,402,368.2,401.7,368.2z M401.7,358.2c-0.3,0-0.5-0.2-0.5-0.5v-4c0-0.3,0.2-0.5,0.5-0.5s0.5,0.2,0.5,0.5v4
		C402.2,358,402,358.2,401.7,358.2z M401.7,348.2c-0.3,0-0.5-0.2-0.5-0.5v-4c0-0.3,0.2-0.5,0.5-0.5s0.5,0.2,0.5,0.5v4
		C402.2,348,402,348.2,401.7,348.2z M401.7,338.2c-0.3,0-0.5-0.2-0.5-0.5v-4c0-0.3,0.2-0.5,0.5-0.5s0.5,0.2,0.5,0.5v4
		C402.2,338,402,338.2,401.7,338.2z M401.7,328.2c-0.3,0-0.5-0.2-0.5-0.5v-4c0-0.3,0.2-0.5,0.5-0.5s0.5,0.2,0.5,0.5v4
		C402.2,328,402,328.2,401.7,328.2z M401.7,318.2c-0.3,0-0.5-0.2-0.5-0.5v-4c0-0.3,0.2-0.5,0.5-0.5s0.5,0.2,0.5,0.5v4
		C402.2,318,402,318.2,401.7,318.2z M401.7,308.2c-0.3,0-0.5-0.2-0.5-0.5v-4c0-0.3,0.2-0.5,0.5-0.5s0.5,0.2,0.5,0.5v4
		C402.2,308,402,308.2,401.7,308.2z M401.7,298.2c-0.3,0-0.5-0.2-0.5-0.5v-4c0-0.3,0.2-0.5,0.5-0.5s0.5,0.2,0.5,0.5v4
		C402.2,298,402,298.2,401.7,298.2z M401.7,288.2c-0.3,0-0.5-0.2-0.5-0.5v-4c0-0.3,0.2-0.5,0.5-0.5s0.5,0.2,0.5,0.5v4
		C402.2,288,402,288.2,401.7,288.2z M401.7,278.2c-0.3,0-0.5-0.2-0.5-0.5v-4c0-0.3,0.2-0.5,0.5-0.5s0.5,0.2,0.5,0.5v4
		C402.2,278,402,278.2,401.7,278.2z M401.7,268.2c-0.3,0-0.5-0.2-0.5-0.5v-4c0-0.3,0.2-0.5,0.5-0.5s0.5,0.2,0.5,0.5v4
		C402.2,268,402,268.2,401.7,268.2z M401.7,258.2c-0.3,0-0.5-0.2-0.5-0.5v-4c0-0.3,0.2-0.5,0.5-0.5s0.5,0.2,0.5,0.5v4
		C402.2,258,402,258.2,401.7,258.2z M401.7,248.2c-0.3,0-0.5-0.2-0.5-0.5v-4c0-0.3,0.2-0.5,0.5-0.5s0.5,0.2,0.5,0.5v4
		C402.2,248,402,248.2,401.7,248.2z M401.7,238.2c-0.3,0-0.5-0.2-0.5-0.5v-4c0-0.3,0.2-0.5,0.5-0.5s0.5,0.2,0.5,0.5v4
		C402.2,238,402,238.2,401.7,238.2z M401.7,228.2c-0.3,0-0.5-0.2-0.5-0.5v-4c0-0.3,0.2-0.5,0.5-0.5s0.5,0.2,0.5,0.5v4
		C402.2,228,402,228.2,401.7,228.2z M401.7,218.2c-0.3,0-0.5-0.2-0.5-0.5v-4c0-0.3,0.2-0.5,0.5-0.5s0.5,0.2,0.5,0.5v4
		C402.2,218,402,218.2,401.7,218.2z M401.7,208.2c-0.3,0-0.5-0.2-0.5-0.5v-4c0-0.3,0.2-0.5,0.5-0.5s0.5,0.2,0.5,0.5v4
		C402.2,208,402,208.2,401.7,208.2z M401.7,198.2c-0.3,0-0.5-0.2-0.5-0.5v-2c0-0.3,0.2-0.5,0.5-0.5s0.5,0.2,0.5,0.5v2
		C402.2,198,402,198.2,401.7,198.2z"/>
	<path class="st1" d="M400,196.2h-4c-0.3,0-0.5-0.2-0.5-0.5s0.2-0.5,0.5-0.5h4c0.3,0,0.5,0.2,0.5,0.5S400.3,196.2,400,196.2z
		 M390,196.2h-4c-0.3,0-0.5-0.2-0.5-0.5s0.2-0.5,0.5-0.5h4c0.3,0,0.5,0.2,0.5,0.5S390.3,196.2,390,196.2z M380,196.2h-4
		c-0.3,0-0.5-0.2-0.5-0.5s0.2-0.5,0.5-0.5h4c0.3,0,0.5,0.2,0.5,0.5S380.3,196.2,380,196.2z M370,196.2h-4c-0.3,0-0.5-0.2-0.5-0.5
		s0.2-0.5,0.5-0.5h4c0.3,0,0.5,0.2,0.5,0.5S370.3,196.2,370,196.2z M360,196.2h-4c-0.3,0-0.5-0.2-0.5-0.5s0.2-0.5,0.5-0.5h4
		c0.3,0,0.5,0.2,0.5,0.5S360.3,196.2,360,196.2z M350,196.2h-4c-0.3,0-0.5-0.2-0.5-0.5s0.2-0.5,0.5-0.5h4c0.3,0,0.5,0.2,0.5,0.5
		S350.3,196.2,350,196.2z M340,196.2h-4c-0.3,0-0.5-0.2-0.5-0.5s0.2-0.5,0.5-0.5h4c0.3,0,0.5,0.2,0.5,0.5S340.3,196.2,340,196.2z
		 M330,196.2h-4c-0.3,0-0.5-0.2-0.5-0.5s0.2-0.5,0.5-0.5h4c0.3,0,0.5,0.2,0.5,0.5S330.3,196.2,330,196.2z M320,196.2h-4
		c-0.3,0-0.5-0.2-0.5-0.5s0.2-0.5,0.5-0.5h4c0.3,0,0.5,0.2,0.5,0.5S320.3,196.2,320,196.2z M310,196.2h-4c-0.3,0-0.5-0.2-0.5-0.5
		s0.2-0.5,0.5-0.5h4c0.3,0,0.5,0.2,0.5,0.5S310.3,196.2,310,196.2z M300,196.2h-4c-0.3,0-0.5-0.2-0.5-0.5s0.2-0.5,0.5-0.5h4
		c0.3,0,0.5,0.2,0.5,0.5S300.3,196.2,300,196.2z M290,196.2h-4c-0.3,0-0.5-0.2-0.5-0.5s0.2-0.5,0.5-0.5h4c0.3,0,0.5,0.2,0.5,0.5
		S290.3,196.2,290,196.2z M280,196.2h-4c-0.3,0-0.5-0.2-0.5-0.5s0.2-0.5,0.5-0.5h4c0.3,0,0.5,0.2,0.5,0.5S280.3,196.2,280,196.2z
		 M270,196.2h-4c-0.3,0-0.5-0.2-0.5-0.5s0.2-0.5,0.5-0.5h4c0.3,0,0.5,0.2,0.5,0.5S270.3,196.2,270,196.2z M260,196.2h-4
		c-0.3,0-0.5-0.2-0.5-0.5s0.2-0.5,0.5-0.5h4c0.3,0,0.5,0.2,0.5,0.5S260.3,196.2,260,196.2z M250,196.2h-4c-0.3,0-0.5-0.2-0.5-0.5
		s0.2-0.5,0.5-0.5h4c0.3,0,0.5,0.2,0.5,0.5S250.3,196.2,250,196.2z M240,196.2h-4c-0.3,0-0.5-0.2-0.5-0.5s0.2-0.5,0.5-0.5h4
		c0.3,0,0.5,0.2,0.5,0.5S240.3,196.2,240,196.2z M230,196.2h-4c-0.3,0-0.5-0.2-0.5-0.5s0.2-0.5,0.5-0.5h4c0.3,0,0.5,0.2,0.5,0.5
		S230.3,196.2,230,196.2z M220,196.2h-4c-0.3,0-0.5-0.2-0.5-0.5s0.2-0.5,0.5-0.5h4c0.3,0,0.5,0.2,0.5,0.5S220.3,196.2,220,196.2z
		 M210,196.2h-4c-0.3,0-0.5-0.2-0.5-0.5s0.2-0.5,0.5-0.5h4c0.3,0,0.5,0.2,0.5,0.5S210.3,196.2,210,196.2z M200,196.2h-4
		c-0.3,0-0.5-0.2-0.5-0.5s0.2-0.5,0.5-0.5h4c0.3,0,0.5,0.2,0.5,0.5S200.3,196.2,200,196.2z M190,196.2h-4c-0.3,0-0.5-0.2-0.5-0.5
		s0.2-0.5,0.5-0.5h4c0.3,0,0.5,0.2,0.5,0.5S190.3,196.2,190,196.2z M180,196.2h-4c-0.3,0-0.5-0.2-0.5-0.5s0.2-0.5,0.5-0.5h4
		c0.3,0,0.5,0.2,0.5,0.5S180.3,196.2,180,196.2z M170,196.2h-4c-0.3,0-0.5-0.2-0.5-0.5s0.2-0.5,0.5-0.5h4c0.3,0,0.5,0.2,0.5,0.5
		S170.3,196.2,170,196.2z M160,196.2h-4c-0.3,0-0.5-0.2-0.5-0.5s0.2-0.5,0.5-0.5h4c0.3,0,0.5,0.2,0.5,0.5S160.3,196.2,160,196.2z
		 M150,196.2h-4c-0.3,0-0.5-0.2-0.5-0.5s0.2-0.5,0.5-0.5h4c0.3,0,0.5,0.2,0.5,0.5S150.3,196.2,150,196.2z M140,196.2h-4
		c-0.3,0-0.5-0.2-0.5-0.5s0.2-0.5,0.5-0.5h4c0.3,0,0.5,0.2,0.5,0.5S140.3,196.2,140,196.2z M130,196.2h-4c-0.3,0-0.5-0.2-0.5-0.5
		s0.2-0.5,0.5-0.5h4c0.3,0,0.5,0.2,0.5,0.5S130.3,196.2,130,196.2z M120,196.2h-4c-0.3,0-0.5-0.2-0.5-0.5s0.2-0.5,0.5-0.5h4
		c0.3,0,0.5,0.2,0.5,0.5S120.3,196.2,120,196.2z"/>
	<path class="st1" d="M545.7,196.2h-4c-0.3,0-0.5-0.2-0.5-0.5s0.2-0.5,0.5-0.5h4c0.3,0,0.5,0.2,0.5,0.5S546,196.2,545.7,196.2z
		 M535.7,196.2h-4c-0.3,0-0.5-0.2-0.5-0.5s0.2-0.5,0.5-0.5h4c0.3,0,0.5,0.2,0.5,0.5S536,196.2,535.7,196.2z M525.7,196.2h-4
		c-0.3,0-0.5-0.2-0.5-0.5s0.2-0.5,0.5-0.5h4c0.3,0,0.5,0.2,0.5,0.5S526,196.2,525.7,196.2z M515.7,196.2h-4c-0.3,0-0.5-0.2-0.5-0.5
		s0.2-0.5,0.5-0.5h4c0.3,0,0.5,0.2,0.5,0.5S516,196.2,515.7,196.2z M505.7,196.2h-4c-0.3,0-0.5-0.2-0.5-0.5s0.2-0.5,0.5-0.5h4
		c0.3,0,0.5,0.2,0.5,0.5S506,196.2,505.7,196.2z M495.7,196.2h-4c-0.3,0-0.5-0.2-0.5-0.5s0.2-0.5,0.5-0.5h4c0.3,0,0.5,0.2,0.5,0.5
		S496,196.2,495.7,196.2z M485.7,196.2h-4c-0.3,0-0.5-0.2-0.5-0.5s0.2-0.5,0.5-0.5h4c0.3,0,0.5,0.2,0.5,0.5S486,196.2,485.7,196.2z
		 M475.7,196.2h-4c-0.3,0-0.5-0.2-0.5-0.5s0.2-0.5,0.5-0.5h4c0.3,0,0.5,0.2,0.5,0.5S476,196.2,475.7,196.2z M465.7,196.2h-4
		c-0.3,0-0.5-0.2-0.5-0.5s0.2-0.5,0.5-0.5h4c0.3,0,0.5,0.2,0.5,0.5S466,196.2,465.7,196.2z M455.7,196.2h-4c-0.3,0-0.5-0.2-0.5-0.5
		s0.2-0.5,0.5-0.5h4c0.3,0,0.5,0.2,0.5,0.5S456,196.2,455.7,196.2z M445.7,196.2h-4c-0.3,0-0.5-0.2-0.5-0.5s0.2-0.5,0.5-0.5h4
		c0.3,0,0.5,0.2,0.5,0.5S446,196.2,445.7,196.2z M435.7,196.2h-4c-0.3,0-0.5-0.2-0.5-0.5s0.2-0.5,0.5-0.5h4c0.3,0,0.5,0.2,0.5,0.5
		S436,196.2,435.7,196.2z M425.7,196.2h-4c-0.3,0-0.5-0.2-0.5-0.5s0.2-0.5,0.5-0.5h4c0.3,0,0.5,0.2,0.5,0.5S426,196.2,425.7,196.2z
		 M415.7,196.2h-4c-0.3,0-0.5-0.2-0.5-0.5s0.2-0.5,0.5-0.5h4c0.3,0,0.5,0.2,0.5,0.5S416,196.2,415.7,196.2z M405.7,196.2h-4
		c-0.3,0-0.5-0.2-0.5-0.5s0.2-0.5,0.5-0.5h4c0.3,0,0.5,0.2,0.5,0.5S406,196.2,405.7,196.2z"/>
	<path class="st1" d="M545.7,628.2c-0.3,0-0.5-0.2-0.5-0.5v-2c0-0.3,0.2-0.5,0.5-0.5s0.5,0.2,0.5,0.5v2
		C546.2,628,546,628.2,545.7,628.2z M545.7,620.2c-0.3,0-0.5-0.2-0.5-0.5v-4c0-0.3,0.2-0.5,0.5-0.5s0.5,0.2,0.5,0.5v4
		C546.2,620,546,620.2,545.7,620.2z M545.7,610.2c-0.3,0-0.5-0.2-0.5-0.5v-4c0-0.3,0.2-0.5,0.5-0.5s0.5,0.2,0.5,0.5v4
		C546.2,610,546,610.2,545.7,610.2z M545.7,600.2c-0.3,0-0.5-0.2-0.5-0.5v-4c0-0.3,0.2-0.5,0.5-0.5s0.5,0.2,0.5,0.5v4
		C546.2,600,546,600.2,545.7,600.2z M545.7,590.2c-0.3,0-0.5-0.2-0.5-0.5v-4c0-0.3,0.2-0.5,0.5-0.5s0.5,0.2,0.5,0.5v4
		C546.2,590,546,590.2,545.7,590.2z M545.7,580.2c-0.3,0-0.5-0.2-0.5-0.5v-4c0-0.3,0.2-0.5,0.5-0.5s0.5,0.2,0.5,0.5v4
		C546.2,580,546,580.2,545.7,580.2z M545.7,570.2c-0.3,0-0.5-0.2-0.5-0.5v-4c0-0.3,0.2-0.5,0.5-0.5s0.5,0.2,0.5,0.5v4
		C546.2,570,546,570.2,545.7,570.2z M545.7,560.2c-0.3,0-0.5-0.2-0.5-0.5v-4c0-0.3,0.2-0.5,0.5-0.5s0.5,0.2,0.5,0.5v4
		C546.2,560,546,560.2,545.7,560.2z M545.7,550.2c-0.3,0-0.5-0.2-0.5-0.5v-4c0-0.3,0.2-0.5,0.5-0.5s0.5,0.2,0.5,0.5v4
		C546.2,550,546,550.2,545.7,550.2z M545.7,540.2c-0.3,0-0.5-0.2-0.5-0.5v-4c0-0.3,0.2-0.5,0.5-0.5s0.5,0.2,0.5,0.5v4
		C546.2,540,546,540.2,545.7,540.2z M545.7,530.2c-0.3,0-0.5-0.2-0.5-0.5v-4c0-0.3,0.2-0.5,0.5-0.5s0.5,0.2,0.5,0.5v4
		C546.2,530,546,530.2,545.7,530.2z M545.7,520.2c-0.3,0-0.5-0.2-0.5-0.5v-4c0-0.3,0.2-0.5,0.5-0.5s0.5,0.2,0.5,0.5v4
		C546.2,520,546,520.2,545.7,520.2z M545.7,510.2c-0.3,0-0.5-0.2-0.5-0.5v-4c0-0.3,0.2-0.5,0.5-0.5s0.5,0.2,0.5,0.5v4
		C546.2,510,546,510.2,545.7,510.2z M545.7,500.2c-0.3,0-0.5-0.2-0.5-0.5v-4c0-0.3,0.2-0.5,0.5-0.5s0.5,0.2,0.5,0.5v4
		C546.2,500,546,500.2,545.7,500.2z M545.7,490.2c-0.3,0-0.5-0.2-0.5-0.5v-4c0-0.3,0.2-0.5,0.5-0.5s0.5,0.2,0.5,0.5v4
		C546.2,490,546,490.2,545.7,490.2z M545.7,480.2c-0.3,0-0.5-0.2-0.5-0.5v-4c0-0.3,0.2-0.5,0.5-0.5s0.5,0.2,0.5,0.5v4
		C546.2,480,546,480.2,545.7,480.2z M545.7,470.2c-0.3,0-0.5-0.2-0.5-0.5v-4c0-0.3,0.2-0.5,0.5-0.5s0.5,0.2,0.5,0.5v4
		C546.2,470,546,470.2,545.7,470.2z M545.7,460.2c-0.3,0-0.5-0.2-0.5-0.5v-4c0-0.3,0.2-0.5,0.5-0.5s0.5,0.2,0.5,0.5v4
		C546.2,460,546,460.2,545.7,460.2z M545.7,450.2c-0.3,0-0.5-0.2-0.5-0.5v-4c0-0.3,0.2-0.5,0.5-0.5s0.5,0.2,0.5,0.5v4
		C546.2,450,546,450.2,545.7,450.2z M545.7,440.2c-0.3,0-0.5-0.2-0.5-0.5v-4c0-0.3,0.2-0.5,0.5-0.5s0.5,0.2,0.5,0.5v4
		C546.2,440,546,440.2,545.7,440.2z M545.7,430.2c-0.3,0-0.5-0.2-0.5-0.5v-4c0-0.3,0.2-0.5,0.5-0.5s0.5,0.2,0.5,0.5v4
		C546.2,430,546,430.2,545.7,430.2z M545.7,420.2c-0.3,0-0.5-0.2-0.5-0.5v-4c0-0.3,0.2-0.5,0.5-0.5s0.5,0.2,0.5,0.5v4
		C546.2,420,546,420.2,545.7,420.2z M545.7,410.2c-0.3,0-0.5-0.2-0.5-0.5v-4c0-0.3,0.2-0.5,0.5-0.5s0.5,0.2,0.5,0.5v4
		C546.2,410,546,410.2,545.7,410.2z M545.7,400.2c-0.3,0-0.5-0.2-0.5-0.5v-4c0-0.3,0.2-0.5,0.5-0.5s0.5,0.2,0.5,0.5v4
		C546.2,400,546,400.2,545.7,400.2z M545.7,390.2c-0.3,0-0.5-0.2-0.5-0.5v-4c0-0.3,0.2-0.5,0.5-0.5s0.5,0.2,0.5,0.5v4
		C546.2,390,546,390.2,545.7,390.2z M545.7,380.2c-0.3,0-0.5-0.2-0.5-0.5v-4c0-0.3,0.2-0.5,0.5-0.5s0.5,0.2,0.5,0.5v4
		C546.2,380,546,380.2,545.7,380.2z M545.7,370.2c-0.3,0-0.5-0.2-0.5-0.5v-4c0-0.3,0.2-0.5,0.5-0.5s0.5,0.2,0.5,0.5v4
		C546.2,370,546,370.2,545.7,370.2z M545.7,360.2c-0.3,0-0.5-0.2-0.5-0.5v-4c0-0.3,0.2-0.5,0.5-0.5s0.5,0.2,0.5,0.5v4
		C546.2,360,546,360.2,545.7,360.2z M545.7,350.2c-0.3,0-0.5-0.2-0.5-0.5v-4c0-0.3,0.2-0.5,0.5-0.5s0.5,0.2,0.5,0.5v4
		C546.2,350,546,350.2,545.7,350.2z M545.7,340.2c-0.3,0-0.5-0.2-0.5-0.5v-4c0-0.3,0.2-0.5,0.5-0.5s0.5,0.2,0.5,0.5v4
		C546.2,340,546,340.2,545.7,340.2z M545.7,330.2c-0.3,0-0.5-0.2-0.5-0.5v-4c0-0.3,0.2-0.5,0.5-0.5s0.5,0.2,0.5,0.5v4
		C546.2,330,546,330.2,545.7,330.2z M545.7,320.2c-0.3,0-0.5-0.2-0.5-0.5v-4c0-0.3,0.2-0.5,0.5-0.5s0.5,0.2,0.5,0.5v4
		C546.2,320,546,320.2,545.7,320.2z M545.7,310.2c-0.3,0-0.5-0.2-0.5-0.5v-4c0-0.3,0.2-0.5,0.5-0.5s0.5,0.2,0.5,0.5v4
		C546.2,310,546,310.2,545.7,310.2z M545.7,300.2c-0.3,0-0.5-0.2-0.5-0.5v-4c0-0.3,0.2-0.5,0.5-0.5s0.5,0.2,0.5,0.5v4
		C546.2,300,546,300.2,545.7,300.2z M545.7,290.2c-0.3,0-0.5-0.2-0.5-0.5v-4c0-0.3,0.2-0.5,0.5-0.5s0.5,0.2,0.5,0.5v4
		C546.2,290,546,290.2,545.7,290.2z M545.7,280.2c-0.3,0-0.5-0.2-0.5-0.5v-4c0-0.3,0.2-0.5,0.5-0.5s0.5,0.2,0.5,0.5v4
		C546.2,280,546,280.2,545.7,280.2z M545.7,270.2c-0.3,0-0.5-0.2-0.5-0.5v-4c0-0.3,0.2-0.5,0.5-0.5s0.5,0.2,0.5,0.5v4
		C546.2,270,546,270.2,545.7,270.2z M545.7,260.2c-0.3,0-0.5-0.2-0.5-0.5v-4c0-0.3,0.2-0.5,0.5-0.5s0.5,0.2,0.5,0.5v4
		C546.2,260,546,260.2,545.7,260.2z M545.7,250.2c-0.3,0-0.5-0.2-0.5-0.5v-4c0-0.3,0.2-0.5,0.5-0.5s0.5,0.2,0.5,0.5v4
		C546.2,250,546,250.2,545.7,250.2z M545.7,240.2c-0.3,0-0.5-0.2-0.5-0.5v-4c0-0.3,0.2-0.5,0.5-0.5s0.5,0.2,0.5,0.5v4
		C546.2,240,546,240.2,545.7,240.2z M545.7,230.2c-0.3,0-0.5-0.2-0.5-0.5v-4c0-0.3,0.2-0.5,0.5-0.5s0.5,0.2,0.5,0.5v4
		C546.2,230,546,230.2,545.7,230.2z M545.7,220.2c-0.3,0-0.5-0.2-0.5-0.5v-4c0-0.3,0.2-0.5,0.5-0.5s0.5,0.2,0.5,0.5v4
		C546.2,220,546,220.2,545.7,220.2z M545.7,210.2c-0.3,0-0.5-0.2-0.5-0.5v-4c0-0.3,0.2-0.5,0.5-0.5s0.5,0.2,0.5,0.5v4
		C546.2,210,546,210.2,545.7,210.2z M545.7,200.2c-0.3,0-0.5-0.2-0.5-0.5v-4c0-0.3,0.2-0.5,0.5-0.5s0.5,0.2,0.5,0.5v4
		C546.2,200,546,200.2,545.7,200.2z"/>
	<path class="st1" d="M545.7,628.2h-4c-0.3,0-0.5-0.2-0.5-0.5s0.2-0.5,0.5-0.5h4c0.3,0,0.5,0.2,0.5,0.5S546,628.2,545.7,628.2z
		 M535.7,628.2h-4c-0.3,0-0.5-0.2-0.5-0.5s0.2-0.5,0.5-0.5h4c0.3,0,0.5,0.2,0.5,0.5S536,628.2,535.7,628.2z M525.7,628.2h-4
		c-0.3,0-0.5-0.2-0.5-0.5s0.2-0.5,0.5-0.5h4c0.3,0,0.5,0.2,0.5,0.5S526,628.2,525.7,628.2z M515.7,628.2h-4c-0.3,0-0.5-0.2-0.5-0.5
		s0.2-0.5,0.5-0.5h4c0.3,0,0.5,0.2,0.5,0.5S516,628.2,515.7,628.2z M505.7,628.2h-4c-0.3,0-0.5-0.2-0.5-0.5s0.2-0.5,0.5-0.5h4
		c0.3,0,0.5,0.2,0.5,0.5S506,628.2,505.7,628.2z M495.7,628.2h-4c-0.3,0-0.5-0.2-0.5-0.5s0.2-0.5,0.5-0.5h4c0.3,0,0.5,0.2,0.5,0.5
		S496,628.2,495.7,628.2z M485.7,628.2h-4c-0.3,0-0.5-0.2-0.5-0.5s0.2-0.5,0.5-0.5h4c0.3,0,0.5,0.2,0.5,0.5S486,628.2,485.7,628.2z
		 M475.7,628.2h-4c-0.3,0-0.5-0.2-0.5-0.5s0.2-0.5,0.5-0.5h4c0.3,0,0.5,0.2,0.5,0.5S476,628.2,475.7,628.2z M465.7,628.2h-4
		c-0.3,0-0.5-0.2-0.5-0.5s0.2-0.5,0.5-0.5h4c0.3,0,0.5,0.2,0.5,0.5S466,628.2,465.7,628.2z M455.7,628.2h-4c-0.3,0-0.5-0.2-0.5-0.5
		s0.2-0.5,0.5-0.5h4c0.3,0,0.5,0.2,0.5,0.5S456,628.2,455.7,628.2z M445.7,628.2h-4c-0.3,0-0.5-0.2-0.5-0.5s0.2-0.5,0.5-0.5h4
		c0.3,0,0.5,0.2,0.5,0.5S446,628.2,445.7,628.2z M435.7,628.2h-4c-0.3,0-0.5-0.2-0.5-0.5s0.2-0.5,0.5-0.5h4c0.3,0,0.5,0.2,0.5,0.5
		S436,628.2,435.7,628.2z M425.7,628.2h-4c-0.3,0-0.5-0.2-0.5-0.5s0.2-0.5,0.5-0.5h4c0.3,0,0.5,0.2,0.5,0.5S426,628.2,425.7,628.2z
		 M415.7,628.2h-4c-0.3,0-0.5-0.2-0.5-0.5s0.2-0.5,0.5-0.5h4c0.3,0,0.5,0.2,0.5,0.5S416,628.2,415.7,628.2z M405.7,628.2h-4
		c-0.3,0-0.5-0.2-0.5-0.5s0.2-0.5,0.5-0.5h4c0.3,0,0.5,0.2,0.5,0.5S406,628.2,405.7,628.2z"/>
	<path class="st1" d="M829.7,628.2h-4c-0.3,0-0.5-0.2-0.5-0.5s0.2-0.5,0.5-0.5h4c0.3,0,0.5,0.2,0.5,0.5S830,628.2,829.7,628.2z
		 M819.7,628.2h-4c-0.3,0-0.5-0.2-0.5-0.5s0.2-0.5,0.5-0.5h4c0.3,0,0.5,0.2,0.5,0.5S820,628.2,819.7,628.2z M809.7,628.2h-4
		c-0.3,0-0.5-0.2-0.5-0.5s0.2-0.5,0.5-0.5h4c0.3,0,0.5,0.2,0.5,0.5S810,628.2,809.7,628.2z M799.7,628.2h-4c-0.3,0-0.5-0.2-0.5-0.5
		s0.2-0.5,0.5-0.5h4c0.3,0,0.5,0.2,0.5,0.5S800,628.2,799.7,628.2z M789.7,628.2h-4c-0.3,0-0.5-0.2-0.5-0.5s0.2-0.5,0.5-0.5h4
		c0.3,0,0.5,0.2,0.5,0.5S790,628.2,789.7,628.2z M779.7,628.2h-4c-0.3,0-0.5-0.2-0.5-0.5s0.2-0.5,0.5-0.5h4c0.3,0,0.5,0.2,0.5,0.5
		S780,628.2,779.7,628.2z M769.7,628.2h-4c-0.3,0-0.5-0.2-0.5-0.5s0.2-0.5,0.5-0.5h4c0.3,0,0.5,0.2,0.5,0.5S770,628.2,769.7,628.2z
		 M759.7,628.2h-4c-0.3,0-0.5-0.2-0.5-0.5s0.2-0.5,0.5-0.5h4c0.3,0,0.5,0.2,0.5,0.5S760,628.2,759.7,628.2z M749.7,628.2h-4
		c-0.3,0-0.5-0.2-0.5-0.5s0.2-0.5,0.5-0.5h4c0.3,0,0.5,0.2,0.5,0.5S750,628.2,749.7,628.2z M739.7,628.2h-4c-0.3,0-0.5-0.2-0.5-0.5
		s0.2-0.5,0.5-0.5h4c0.3,0,0.5,0.2,0.5,0.5S740,628.2,739.7,628.2z M729.7,628.2h-4c-0.3,0-0.5-0.2-0.5-0.5s0.2-0.5,0.5-0.5h4
		c0.3,0,0.5,0.2,0.5,0.5S730,628.2,729.7,628.2z M719.7,628.2h-4c-0.3,0-0.5-0.2-0.5-0.5s0.2-0.5,0.5-0.5h4c0.3,0,0.5,0.2,0.5,0.5
		S720,628.2,719.7,628.2z M709.7,628.2h-4c-0.3,0-0.5-0.2-0.5-0.5s0.2-0.5,0.5-0.5h4c0.3,0,0.5,0.2,0.5,0.5S710,628.2,709.7,628.2z
		 M699.7,628.2h-4c-0.3,0-0.5-0.2-0.5-0.5s0.2-0.5,0.5-0.5h4c0.3,0,0.5,0.2,0.5,0.5S700,628.2,699.7,628.2z M689.7,628.2h-4
		c-0.3,0-0.5-0.2-0.5-0.5s0.2-0.5,0.5-0.5h4c0.3,0,0.5,0.2,0.5,0.5S690,628.2,689.7,628.2z M679.7,628.2h-4c-0.3,0-0.5-0.2-0.5-0.5
		s0.2-0.5,0.5-0.5h4c0.3,0,0.5,0.2,0.5,0.5S680,628.2,679.7,628.2z M669.7,628.2h-4c-0.3,0-0.5-0.2-0.5-0.5s0.2-0.5,0.5-0.5h4
		c0.3,0,0.5,0.2,0.5,0.5S670,628.2,669.7,628.2z M659.7,628.2h-4c-0.3,0-0.5-0.2-0.5-0.5s0.2-0.5,0.5-0.5h4c0.3,0,0.5,0.2,0.5,0.5
		S660,628.2,659.7,628.2z M649.7,628.2h-4c-0.3,0-0.5-0.2-0.5-0.5s0.2-0.5,0.5-0.5h4c0.3,0,0.5,0.2,0.5,0.5S650,628.2,649.7,628.2z
		 M639.7,628.2h-4c-0.3,0-0.5-0.2-0.5-0.5s0.2-0.5,0.5-0.5h4c0.3,0,0.5,0.2,0.5,0.5S640,628.2,639.7,628.2z M629.7,628.2h-4
		c-0.3,0-0.5-0.2-0.5-0.5s0.2-0.5,0.5-0.5h4c0.3,0,0.5,0.2,0.5,0.5S630,628.2,629.7,628.2z M619.7,628.2h-4c-0.3,0-0.5-0.2-0.5-0.5
		s0.2-0.5,0.5-0.5h4c0.3,0,0.5,0.2,0.5,0.5S620,628.2,619.7,628.2z M609.7,628.2h-4c-0.3,0-0.5-0.2-0.5-0.5s0.2-0.5,0.5-0.5h4
		c0.3,0,0.5,0.2,0.5,0.5S610,628.2,609.7,628.2z M599.7,628.2h-4c-0.3,0-0.5-0.2-0.5-0.5s0.2-0.5,0.5-0.5h4c0.3,0,0.5,0.2,0.5,0.5
		S600,628.2,599.7,628.2z M589.7,628.2h-4c-0.3,0-0.5-0.2-0.5-0.5s0.2-0.5,0.5-0.5h4c0.3,0,0.5,0.2,0.5,0.5S590,628.2,589.7,628.2z
		 M579.7,628.2h-4c-0.3,0-0.5-0.2-0.5-0.5s0.2-0.5,0.5-0.5h4c0.3,0,0.5,0.2,0.5,0.5S580,628.2,579.7,628.2z M569.7,628.2h-4
		c-0.3,0-0.5-0.2-0.5-0.5s0.2-0.5,0.5-0.5h4c0.3,0,0.5,0.2,0.5,0.5S570,628.2,569.7,628.2z M559.7,628.2h-4c-0.3,0-0.5-0.2-0.5-0.5
		s0.2-0.5,0.5-0.5h4c0.3,0,0.5,0.2,0.5,0.5S560,628.2,559.7,628.2z M549.7,628.2h-4c-0.3,0-0.5-0.2-0.5-0.5s0.2-0.5,0.5-0.5h4
		c0.3,0,0.5,0.2,0.5,0.5S550,628.2,549.7,628.2z"/>
	<path class="st1" d="M833.7,628.2c-0.3,0-0.5-0.2-0.5-0.5v-4c0-0.3,0.2-0.5,0.5-0.5s0.5,0.2,0.5,0.5v4
		C834.2,628,834,628.2,833.7,628.2z M833.7,618.2c-0.3,0-0.5-0.2-0.5-0.5v-4c0-0.3,0.2-0.5,0.5-0.5s0.5,0.2,0.5,0.5v4
		C834.2,618,834,618.2,833.7,618.2z M833.7,608.2c-0.3,0-0.5-0.2-0.5-0.5v-4c0-0.3,0.2-0.5,0.5-0.5s0.5,0.2,0.5,0.5v4
		C834.2,608,834,608.2,833.7,608.2z M833.7,598.2c-0.3,0-0.5-0.2-0.5-0.5v-4c0-0.3,0.2-0.5,0.5-0.5s0.5,0.2,0.5,0.5v4
		C834.2,598,834,598.2,833.7,598.2z M833.7,588.2c-0.3,0-0.5-0.2-0.5-0.5v-4c0-0.3,0.2-0.5,0.5-0.5s0.5,0.2,0.5,0.5v4
		C834.2,588,834,588.2,833.7,588.2z M833.7,578.2c-0.3,0-0.5-0.2-0.5-0.5v-4c0-0.3,0.2-0.5,0.5-0.5s0.5,0.2,0.5,0.5v4
		C834.2,578,834,578.2,833.7,578.2z M833.7,568.2c-0.3,0-0.5-0.2-0.5-0.5v-4c0-0.3,0.2-0.5,0.5-0.5s0.5,0.2,0.5,0.5v4
		C834.2,568,834,568.2,833.7,568.2z M833.7,558.2c-0.3,0-0.5-0.2-0.5-0.5v-4c0-0.3,0.2-0.5,0.5-0.5s0.5,0.2,0.5,0.5v4
		C834.2,558,834,558.2,833.7,558.2z M833.7,548.2c-0.3,0-0.5-0.2-0.5-0.5v-4c0-0.3,0.2-0.5,0.5-0.5s0.5,0.2,0.5,0.5v4
		C834.2,548,834,548.2,833.7,548.2z M833.7,538.2c-0.3,0-0.5-0.2-0.5-0.5v-4c0-0.3,0.2-0.5,0.5-0.5s0.5,0.2,0.5,0.5v4
		C834.2,538,834,538.2,833.7,538.2z M833.7,528.2c-0.3,0-0.5-0.2-0.5-0.5v-4c0-0.3,0.2-0.5,0.5-0.5s0.5,0.2,0.5,0.5v4
		C834.2,528,834,528.2,833.7,528.2z M833.7,518.2c-0.3,0-0.5-0.2-0.5-0.5v-4c0-0.3,0.2-0.5,0.5-0.5s0.5,0.2,0.5,0.5v4
		C834.2,518,834,518.2,833.7,518.2z M833.7,508.2c-0.3,0-0.5-0.2-0.5-0.5v-4c0-0.3,0.2-0.5,0.5-0.5s0.5,0.2,0.5,0.5v4
		C834.2,508,834,508.2,833.7,508.2z M833.7,498.2c-0.3,0-0.5-0.2-0.5-0.5v-4c0-0.3,0.2-0.5,0.5-0.5s0.5,0.2,0.5,0.5v4
		C834.2,498,834,498.2,833.7,498.2z M833.7,488.2c-0.3,0-0.5-0.2-0.5-0.5v-4c0-0.3,0.2-0.5,0.5-0.5s0.5,0.2,0.5,0.5v4
		C834.2,488,834,488.2,833.7,488.2z M833.7,478.2c-0.3,0-0.5-0.2-0.5-0.5v-4c0-0.3,0.2-0.5,0.5-0.5s0.5,0.2,0.5,0.5v4
		C834.2,478,834,478.2,833.7,478.2z M833.7,468.2c-0.3,0-0.5-0.2-0.5-0.5v-4c0-0.3,0.2-0.5,0.5-0.5s0.5,0.2,0.5,0.5v4
		C834.2,468,834,468.2,833.7,468.2z M833.7,458.2c-0.3,0-0.5-0.2-0.5-0.5v-4c0-0.3,0.2-0.5,0.5-0.5s0.5,0.2,0.5,0.5v4
		C834.2,458,834,458.2,833.7,458.2z M833.7,448.2c-0.3,0-0.5-0.2-0.5-0.5v-4c0-0.3,0.2-0.5,0.5-0.5s0.5,0.2,0.5,0.5v4
		C834.2,448,834,448.2,833.7,448.2z M833.7,438.2c-0.3,0-0.5-0.2-0.5-0.5v-4c0-0.3,0.2-0.5,0.5-0.5s0.5,0.2,0.5,0.5v4
		C834.2,438,834,438.2,833.7,438.2z M833.7,428.2c-0.3,0-0.5-0.2-0.5-0.5v-4c0-0.3,0.2-0.5,0.5-0.5s0.5,0.2,0.5,0.5v4
		C834.2,428,834,428.2,833.7,428.2z M833.7,418.2c-0.3,0-0.5-0.2-0.5-0.5v-4c0-0.3,0.2-0.5,0.5-0.5s0.5,0.2,0.5,0.5v4
		C834.2,418,834,418.2,833.7,418.2z M833.7,408.2c-0.3,0-0.5-0.2-0.5-0.5v-4c0-0.3,0.2-0.5,0.5-0.5s0.5,0.2,0.5,0.5v4
		C834.2,408,834,408.2,833.7,408.2z M833.7,398.2c-0.3,0-0.5-0.2-0.5-0.5v-4c0-0.3,0.2-0.5,0.5-0.5s0.5,0.2,0.5,0.5v4
		C834.2,398,834,398.2,833.7,398.2z M833.7,388.2c-0.3,0-0.5-0.2-0.5-0.5v-4c0-0.3,0.2-0.5,0.5-0.5s0.5,0.2,0.5,0.5v4
		C834.2,388,834,388.2,833.7,388.2z M833.7,378.2c-0.3,0-0.5-0.2-0.5-0.5v-4c0-0.3,0.2-0.5,0.5-0.5s0.5,0.2,0.5,0.5v4
		C834.2,378,834,378.2,833.7,378.2z M833.7,368.2c-0.3,0-0.5-0.2-0.5-0.5v-4c0-0.3,0.2-0.5,0.5-0.5s0.5,0.2,0.5,0.5v4
		C834.2,368,834,368.2,833.7,368.2z M833.7,358.2c-0.3,0-0.5-0.2-0.5-0.5v-4c0-0.3,0.2-0.5,0.5-0.5s0.5,0.2,0.5,0.5v4
		C834.2,358,834,358.2,833.7,358.2z M833.7,348.2c-0.3,0-0.5-0.2-0.5-0.5v-4c0-0.3,0.2-0.5,0.5-0.5s0.5,0.2,0.5,0.5v4
		C834.2,348,834,348.2,833.7,348.2z M833.7,338.2c-0.3,0-0.5-0.2-0.5-0.5v-4c0-0.3,0.2-0.5,0.5-0.5s0.5,0.2,0.5,0.5v4
		C834.2,338,834,338.2,833.7,338.2z M833.7,328.2c-0.3,0-0.5-0.2-0.5-0.5v-4c0-0.3,0.2-0.5,0.5-0.5s0.5,0.2,0.5,0.5v4
		C834.2,328,834,328.2,833.7,328.2z M833.7,318.2c-0.3,0-0.5-0.2-0.5-0.5v-4c0-0.3,0.2-0.5,0.5-0.5s0.5,0.2,0.5,0.5v4
		C834.2,318,834,318.2,833.7,318.2z M833.7,308.2c-0.3,0-0.5-0.2-0.5-0.5v-4c0-0.3,0.2-0.5,0.5-0.5s0.5,0.2,0.5,0.5v4
		C834.2,308,834,308.2,833.7,308.2z M833.7,298.2c-0.3,0-0.5-0.2-0.5-0.5v-4c0-0.3,0.2-0.5,0.5-0.5s0.5,0.2,0.5,0.5v4
		C834.2,298,834,298.2,833.7,298.2z M833.7,288.2c-0.3,0-0.5-0.2-0.5-0.5v-4c0-0.3,0.2-0.5,0.5-0.5s0.5,0.2,0.5,0.5v4
		C834.2,288,834,288.2,833.7,288.2z M833.7,278.2c-0.3,0-0.5-0.2-0.5-0.5v-4c0-0.3,0.2-0.5,0.5-0.5s0.5,0.2,0.5,0.5v4
		C834.2,278,834,278.2,833.7,278.2z M833.7,268.2c-0.3,0-0.5-0.2-0.5-0.5v-4c0-0.3,0.2-0.5,0.5-0.5s0.5,0.2,0.5,0.5v4
		C834.2,268,834,268.2,833.7,268.2z M833.7,258.2c-0.3,0-0.5-0.2-0.5-0.5v-4c0-0.3,0.2-0.5,0.5-0.5s0.5,0.2,0.5,0.5v4
		C834.2,258,834,258.2,833.7,258.2z M833.7,248.2c-0.3,0-0.5-0.2-0.5-0.5v-4c0-0.3,0.2-0.5,0.5-0.5s0.5,0.2,0.5,0.5v4
		C834.2,248,834,248.2,833.7,248.2z M833.7,238.2c-0.3,0-0.5-0.2-0.5-0.5v-4c0-0.3,0.2-0.5,0.5-0.5s0.5,0.2,0.5,0.5v4
		C834.2,238,834,238.2,833.7,238.2z M833.7,228.2c-0.3,0-0.5-0.2-0.5-0.5v-4c0-0.3,0.2-0.5,0.5-0.5s0.5,0.2,0.5,0.5v4
		C834.2,228,834,228.2,833.7,228.2z M833.7,218.2c-0.3,0-0.5-0.2-0.5-0.5v-4c0-0.3,0.2-0.5,0.5-0.5s0.5,0.2,0.5,0.5v4
		C834.2,218,834,218.2,833.7,218.2z M833.7,208.2c-0.3,0-0.5-0.2-0.5-0.5v-4c0-0.3,0.2-0.5,0.5-0.5s0.5,0.2,0.5,0.5v4
		C834.2,208,834,208.2,833.7,208.2z M833.7,198.2c-0.3,0-0.5-0.2-0.5-0.5v-2c0-0.3,0.2-0.5,0.5-0.5s0.5,0.2,0.5,0.5v2
		C834.2,198,834,198.2,833.7,198.2z"/>
	<path class="st1" d="M829.7,196.2h-4c-0.3,0-0.5-0.2-0.5-0.5s0.2-0.5,0.5-0.5h4c0.3,0,0.5,0.2,0.5,0.5S830,196.2,829.7,196.2z
		 M819.7,196.2h-4c-0.3,0-0.5-0.2-0.5-0.5s0.2-0.5,0.5-0.5h4c0.3,0,0.5,0.2,0.5,0.5S820,196.2,819.7,196.2z M809.7,196.2h-4
		c-0.3,0-0.5-0.2-0.5-0.5s0.2-0.5,0.5-0.5h4c0.3,0,0.5,0.2,0.5,0.5S810,196.2,809.7,196.2z M799.7,196.2h-4c-0.3,0-0.5-0.2-0.5-0.5
		s0.2-0.5,0.5-0.5h4c0.3,0,0.5,0.2,0.5,0.5S800,196.2,799.7,196.2z M789.7,196.2h-4c-0.3,0-0.5-0.2-0.5-0.5s0.2-0.5,0.5-0.5h4
		c0.3,0,0.5,0.2,0.5,0.5S790,196.2,789.7,196.2z M779.7,196.2h-4c-0.3,0-0.5-0.2-0.5-0.5s0.2-0.5,0.5-0.5h4c0.3,0,0.5,0.2,0.5,0.5
		S780,196.2,779.7,196.2z M769.7,196.2h-4c-0.3,0-0.5-0.2-0.5-0.5s0.2-0.5,0.5-0.5h4c0.3,0,0.5,0.2,0.5,0.5S770,196.2,769.7,196.2z
		 M759.7,196.2h-4c-0.3,0-0.5-0.2-0.5-0.5s0.2-0.5,0.5-0.5h4c0.3,0,0.5,0.2,0.5,0.5S760,196.2,759.7,196.2z M749.7,196.2h-4
		c-0.3,0-0.5-0.2-0.5-0.5s0.2-0.5,0.5-0.5h4c0.3,0,0.5,0.2,0.5,0.5S750,196.2,749.7,196.2z M739.7,196.2h-4c-0.3,0-0.5-0.2-0.5-0.5
		s0.2-0.5,0.5-0.5h4c0.3,0,0.5,0.2,0.5,0.5S740,196.2,739.7,196.2z M729.7,196.2h-4c-0.3,0-0.5-0.2-0.5-0.5s0.2-0.5,0.5-0.5h4
		c0.3,0,0.5,0.2,0.5,0.5S730,196.2,729.7,196.2z M719.7,196.2h-4c-0.3,0-0.5-0.2-0.5-0.5s0.2-0.5,0.5-0.5h4c0.3,0,0.5,0.2,0.5,0.5
		S720,196.2,719.7,196.2z M709.7,196.2h-4c-0.3,0-0.5-0.2-0.5-0.5s0.2-0.5,0.5-0.5h4c0.3,0,0.5,0.2,0.5,0.5S710,196.2,709.7,196.2z
		 M699.7,196.2h-4c-0.3,0-0.5-0.2-0.5-0.5s0.2-0.5,0.5-0.5h4c0.3,0,0.5,0.2,0.5,0.5S700,196.2,699.7,196.2z M689.7,196.2h-4
		c-0.3,0-0.5-0.2-0.5-0.5s0.2-0.5,0.5-0.5h4c0.3,0,0.5,0.2,0.5,0.5S690,196.2,689.7,196.2z M679.7,196.2h-4c-0.3,0-0.5-0.2-0.5-0.5
		s0.2-0.5,0.5-0.5h4c0.3,0,0.5,0.2,0.5,0.5S680,196.2,679.7,196.2z M669.7,196.2h-4c-0.3,0-0.5-0.2-0.5-0.5s0.2-0.5,0.5-0.5h4
		c0.3,0,0.5,0.2,0.5,0.5S670,196.2,669.7,196.2z M659.7,196.2h-4c-0.3,0-0.5-0.2-0.5-0.5s0.2-0.5,0.5-0.5h4c0.3,0,0.5,0.2,0.5,0.5
		S660,196.2,659.7,196.2z M649.7,196.2h-4c-0.3,0-0.5-0.2-0.5-0.5s0.2-0.5,0.5-0.5h4c0.3,0,0.5,0.2,0.5,0.5S650,196.2,649.7,196.2z
		 M639.7,196.2h-4c-0.3,0-0.5-0.2-0.5-0.5s0.2-0.5,0.5-0.5h4c0.3,0,0.5,0.2,0.5,0.5S640,196.2,639.7,196.2z M629.7,196.2h-4
		c-0.3,0-0.5-0.2-0.5-0.5s0.2-0.5,0.5-0.5h4c0.3,0,0.5,0.2,0.5,0.5S630,196.2,629.7,196.2z M619.7,196.2h-4c-0.3,0-0.5-0.2-0.5-0.5
		s0.2-0.5,0.5-0.5h4c0.3,0,0.5,0.2,0.5,0.5S620,196.2,619.7,196.2z M609.7,196.2h-4c-0.3,0-0.5-0.2-0.5-0.5s0.2-0.5,0.5-0.5h4
		c0.3,0,0.5,0.2,0.5,0.5S610,196.2,609.7,196.2z M599.7,196.2h-4c-0.3,0-0.5-0.2-0.5-0.5s0.2-0.5,0.5-0.5h4c0.3,0,0.5,0.2,0.5,0.5
		S600,196.2,599.7,196.2z M589.7,196.2h-4c-0.3,0-0.5-0.2-0.5-0.5s0.2-0.5,0.5-0.5h4c0.3,0,0.5,0.2,0.5,0.5S590,196.2,589.7,196.2z
		 M579.7,196.2h-4c-0.3,0-0.5-0.2-0.5-0.5s0.2-0.5,0.5-0.5h4c0.3,0,0.5,0.2,0.5,0.5S580,196.2,579.7,196.2z M569.7,196.2h-4
		c-0.3,0-0.5-0.2-0.5-0.5s0.2-0.5,0.5-0.5h4c0.3,0,0.5,0.2,0.5,0.5S570,196.2,569.7,196.2z M559.7,196.2h-4c-0.3,0-0.5-0.2-0.5-0.5
		s0.2-0.5,0.5-0.5h4c0.3,0,0.5,0.2,0.5,0.5S560,196.2,559.7,196.2z M549.7,196.2h-4c-0.3,0-0.5-0.2-0.5-0.5s0.2-0.5,0.5-0.5h4
		c0.3,0,0.5,0.2,0.5,0.5S550,196.2,549.7,196.2z"/>
	<path class="st0" d="M977.7,628.2c-0.3,0-0.5-0.2-0.5-0.5v-432c0-0.3,0.2-0.5,0.5-0.5s0.5,0.2,0.5,0.5v432
		C978.2,628,978,628.2,977.7,628.2z"/>
	<path class="st1" d="M977.7,628.2h-4c-0.3,0-0.5-0.2-0.5-0.5s0.2-0.5,0.5-0.5h4c0.3,0,0.5,0.2,0.5,0.5S978,628.2,977.7,628.2z
		 M967.7,628.2h-4c-0.3,0-0.5-0.2-0.5-0.5s0.2-0.5,0.5-0.5h4c0.3,0,0.5,0.2,0.5,0.5S968,628.2,967.7,628.2z M957.7,628.2h-4
		c-0.3,0-0.5-0.2-0.5-0.5s0.2-0.5,0.5-0.5h4c0.3,0,0.5,0.2,0.5,0.5S958,628.2,957.7,628.2z M947.7,628.2h-4c-0.3,0-0.5-0.2-0.5-0.5
		s0.2-0.5,0.5-0.5h4c0.3,0,0.5,0.2,0.5,0.5S948,628.2,947.7,628.2z M937.7,628.2h-4c-0.3,0-0.5-0.2-0.5-0.5s0.2-0.5,0.5-0.5h4
		c0.3,0,0.5,0.2,0.5,0.5S938,628.2,937.7,628.2z M927.7,628.2h-4c-0.3,0-0.5-0.2-0.5-0.5s0.2-0.5,0.5-0.5h4c0.3,0,0.5,0.2,0.5,0.5
		S928,628.2,927.7,628.2z M917.7,628.2h-4c-0.3,0-0.5-0.2-0.5-0.5s0.2-0.5,0.5-0.5h4c0.3,0,0.5,0.2,0.5,0.5S918,628.2,917.7,628.2z
		 M907.7,628.2h-4c-0.3,0-0.5-0.2-0.5-0.5s0.2-0.5,0.5-0.5h4c0.3,0,0.5,0.2,0.5,0.5S908,628.2,907.7,628.2z M897.7,628.2h-4
		c-0.3,0-0.5-0.2-0.5-0.5s0.2-0.5,0.5-0.5h4c0.3,0,0.5,0.2,0.5,0.5S898,628.2,897.7,628.2z M887.7,628.2h-4c-0.3,0-0.5-0.2-0.5-0.5
		s0.2-0.5,0.5-0.5h4c0.3,0,0.5,0.2,0.5,0.5S888,628.2,887.7,628.2z M877.7,628.2h-4c-0.3,0-0.5-0.2-0.5-0.5s0.2-0.5,0.5-0.5h4
		c0.3,0,0.5,0.2,0.5,0.5S878,628.2,877.7,628.2z M867.7,628.2h-4c-0.3,0-0.5-0.2-0.5-0.5s0.2-0.5,0.5-0.5h4c0.3,0,0.5,0.2,0.5,0.5
		S868,628.2,867.7,628.2z M857.7,628.2h-4c-0.3,0-0.5-0.2-0.5-0.5s0.2-0.5,0.5-0.5h4c0.3,0,0.5,0.2,0.5,0.5S858,628.2,857.7,628.2z
		 M847.7,628.2h-4c-0.3,0-0.5-0.2-0.5-0.5s0.2-0.5,0.5-0.5h4c0.3,0,0.5,0.2,0.5,0.5S848,628.2,847.7,628.2z M837.7,628.2h-4
		c-0.3,0-0.5-0.2-0.5-0.5s0.2-0.5,0.5-0.5h4c0.3,0,0.5,0.2,0.5,0.5S838,628.2,837.7,628.2z"/>
	<path id="frontLeft" class="st2" d="M977.7,196.2h-4c-0.3,0-0.5-0.2-0.5-0.5s0.2-0.5,0.5-0.5h4c0.3,0,0.5,0.2,0.5,0.5
		S978,196.2,977.7,196.2z M967.7,196.2h-4c-0.3,0-0.5-0.2-0.5-0.5s0.2-0.5,0.5-0.5h4c0.3,0,0.5,0.2,0.5,0.5S968,196.2,967.7,196.2z
		 M957.7,196.2h-4c-0.3,0-0.5-0.2-0.5-0.5s0.2-0.5,0.5-0.5h4c0.3,0,0.5,0.2,0.5,0.5S958,196.2,957.7,196.2z M947.7,196.2h-4
		c-0.3,0-0.5-0.2-0.5-0.5s0.2-0.5,0.5-0.5h4c0.3,0,0.5,0.2,0.5,0.5S948,196.2,947.7,196.2z M937.7,196.2h-4c-0.3,0-0.5-0.2-0.5-0.5
		s0.2-0.5,0.5-0.5h4c0.3,0,0.5,0.2,0.5,0.5S938,196.2,937.7,196.2z M927.7,196.2h-4c-0.3,0-0.5-0.2-0.5-0.5s0.2-0.5,0.5-0.5h4
		c0.3,0,0.5,0.2,0.5,0.5S928,196.2,927.7,196.2z M917.7,196.2h-4c-0.3,0-0.5-0.2-0.5-0.5s0.2-0.5,0.5-0.5h4c0.3,0,0.5,0.2,0.5,0.5
		S918,196.2,917.7,196.2z M907.7,196.2h-4c-0.3,0-0.5-0.2-0.5-0.5s0.2-0.5,0.5-0.5h4c0.3,0,0.5,0.2,0.5,0.5S908,196.2,907.7,196.2z
		 M897.7,196.2h-4c-0.3,0-0.5-0.2-0.5-0.5s0.2-0.5,0.5-0.5h4c0.3,0,0.5,0.2,0.5,0.5S898,196.2,897.7,196.2z M887.7,196.2h-4
		c-0.3,0-0.5-0.2-0.5-0.5s0.2-0.5,0.5-0.5h4c0.3,0,0.5,0.2,0.5,0.5S888,196.2,887.7,196.2z M877.7,196.2h-4c-0.3,0-0.5-0.2-0.5-0.5
		s0.2-0.5,0.5-0.5h4c0.3,0,0.5,0.2,0.5,0.5S878,196.2,877.7,196.2z M867.7,196.2h-4c-0.3,0-0.5-0.2-0.5-0.5s0.2-0.5,0.5-0.5h4
		c0.3,0,0.5,0.2,0.5,0.5S868,196.2,867.7,196.2z M857.7,196.2h-4c-0.3,0-0.5-0.2-0.5-0.5s0.2-0.5,0.5-0.5h4c0.3,0,0.5,0.2,0.5,0.5
		S858,196.2,857.7,196.2z M847.7,196.2h-4c-0.3,0-0.5-0.2-0.5-0.5s0.2-0.5,0.5-0.5h4c0.3,0,0.5,0.2,0.5,0.5S848,196.2,847.7,196.2z
		 M837.7,196.2h-4c-0.3,0-0.5-0.2-0.5-0.5s0.2-0.5,0.5-0.5h4c0.3,0,0.5,0.2,0.5,0.5S838,196.2,837.7,196.2z M978.2,195.7v-126
		c0-0.3-0.2-0.5-0.5-0.5s-0.5,0.2-0.5,0.5v126c0,0.3,0.2,0.5,0.5,0.5S978.2,196,978.2,195.7z M978.2,69.7c0-0.3-0.2-0.5-0.5-0.5
		h-117c-0.3,0-0.5,0.2-0.5,0.5s0.2,0.5,0.5,0.5h117C978,70.2,978.2,70,978.2,69.7z M915.2,123.7c0-0.3-0.2-0.5-0.5-0.5
		c-14.2,0-28-5.7-37.9-15.7c-10-10.1-15.7-23.9-15.7-37.9c0-0.3-0.2-0.5-0.5-0.5s-0.5,0.2-0.5,0.5c0,14.3,5.8,28.3,15.9,38.5
		c10,10.1,24.1,15.9,38.5,15.9C915,124.2,915.2,124,915.2,123.7z M924.2,123.7c0-0.3-0.2-0.5-0.5-0.5h-18c-0.3,0-0.5,0.2-0.5,0.5
		s0.2,0.5,0.5,0.5h18C924,124.2,924.2,124,924.2,123.7z M834.2,195.7c0-19,7.6-37.4,21-50.6c13.5-13.5,31.5-21,50.6-21
		c0.3,0,0.5-0.2,0.5-0.5s-0.2-0.5-0.5-0.5c-19.3,0-37.5,7.5-51.2,21.2c-13.5,13.3-21.2,32-21.2,51.2c0,0.3,0.2,0.5,0.5,0.5
		S834.2,196,834.2,195.7z"/>
	<g id="bottomLeft" class="st3">
		<path class="st4" d="M761.7,124.2c-0.3,0-0.5-0.2-0.5-0.5v-9c0-0.3,0.2-0.5,0.5-0.5s0.5,0.2,0.5,0.5v9
			C762.2,124,762,124.2,761.7,124.2z"/>
		<path class="st4" d="M761.7,115.2c-0.3,0-0.5-0.2-0.5-0.5c0-4.7-3.8-8.5-8.5-8.5c-0.3,0-0.5-0.2-0.5-0.5s0.2-0.5,0.5-0.5
			c5.2,0,9.5,4.3,9.5,9.5C762.2,115,762,115.2,761.7,115.2z"/>
		<path class="st4" d="M752.7,106.2h-126c-0.3,0-0.5-0.2-0.5-0.5s0.2-0.5,0.5-0.5h126c0.3,0,0.5,0.2,0.5,0.5S753,106.2,752.7,106.2z
			"/>
		<path class="st4" d="M617.7,115.2c-0.3,0-0.5-0.2-0.5-0.5c0-5.1,4.3-9.5,9.5-9.5c0.3,0,0.5,0.2,0.5,0.5s-0.2,0.5-0.5,0.5
			c-4.6,0-8.5,3.9-8.5,8.5C618.2,115,618,115.2,617.7,115.2z"/>
		<path class="st4" d="M617.7,124.2c-0.3,0-0.5-0.2-0.5-0.5v-9c0-0.3,0.2-0.5,0.5-0.5s0.5,0.2,0.5,0.5v9
			C618.2,124,618,124.2,617.7,124.2z"/>
		<path class="st4" d="M833.7,196.2c-0.3,0-0.5-0.2-0.5-0.5v-144c0-0.3,0.2-0.5,0.5-0.5s0.5,0.2,0.5,0.5v144
			C834.2,196,834,196.2,833.7,196.2z"/>
		<path class="st4" d="M833.7,52.2h-288c-0.3,0-0.5-0.2-0.5-0.5s0.2-0.5,0.5-0.5h288c0.3,0,0.5,0.2,0.5,0.5S834,52.2,833.7,52.2z"/>
		<path class="st4" d="M545.7,196.2c-0.3,0-0.5-0.2-0.5-0.5v-144c0-0.3,0.2-0.5,0.5-0.5s0.5,0.2,0.5,0.5v144
			C546.2,196,546,196.2,545.7,196.2z"/>
	</g>
	<g id="backLeft" class="st3">
		<path class="st4" d="M545.7,196.2c-0.3,0-0.5-0.2-0.5-0.5c0-19.1-7.4-37-21-50.6c-13.1-13.3-31.6-21-50.6-21
			c-0.3,0-0.5-0.2-0.5-0.5s0.2-0.5,0.5-0.5c19.3,0,37.9,7.7,51.2,21.2c13.7,13.7,21.2,31.9,21.2,51.2
			C546.2,196,546,196.2,545.7,196.2z"/>
		<path class="st4" d="M473.7,124.2h-18c-0.3,0-0.5-0.2-0.5-0.5s0.2-0.5,0.5-0.5h18c0.3,0,0.5,0.2,0.5,0.5S474,124.2,473.7,124.2z"
			/>
		<path class="st4" d="M464.7,124.2c-0.3,0-0.5-0.2-0.5-0.5s0.2-0.5,0.5-0.5c14.2,0,28-5.7,37.9-15.7c10-10,15.7-23.8,15.7-37.9
			c0-0.3,0.2-0.5,0.5-0.5s0.5,0.2,0.5,0.5c0,14.4-5.8,28.4-15.9,38.5C493.2,118.4,479.2,124.2,464.7,124.2z"/>
		<path class="st4" d="M518.7,70.2h-117c-0.3,0-0.5-0.2-0.5-0.5s0.2-0.5,0.5-0.5h117c0.3,0,0.5,0.2,0.5,0.5S519,70.2,518.7,70.2z"/>
		<path class="st4" d="M401.7,196.2c-0.3,0-0.5-0.2-0.5-0.5v-126c0-0.3,0.2-0.5,0.5-0.5s0.5,0.2,0.5,0.5v126
			C402.2,196,402,196.2,401.7,196.2z"/>
	</g>
	<g id="topLeft" class="st3">
		<path class="st4" d="M392.7,178.2c-0.3,0-0.5-0.2-0.5-0.5c0-14.2-5.7-28-15.7-37.9c-9.9-10-23.7-15.7-37.9-15.7
			c-0.3,0-0.5-0.2-0.5-0.5s0.2-0.5,0.5-0.5c14.5,0,28.5,5.8,38.5,15.9c10.1,10,15.9,24.1,15.9,38.5C393.2,178,393,178.2,392.7,178.2
			z"/>
		<path class="st4" d="M338.7,124.2h-0.6c-0.3,0-0.5-0.2-0.5-0.5s0.2-0.5,0.5-0.5h0.6c0.3,0,0.5,0.2,0.5,0.5S339,124.2,338.7,124.2z
			"/>
		<path class="st4" d="M338.1,124.2c-4.8,0-8.7-3.4-9.4-8.1c0-0.3,0.1-0.5,0.4-0.5c0.3,0,0.5,0.1,0.5,0.4c0.6,4.3,4,7.3,8.4,7.3
			c0.3,0,0.5,0.2,0.5,0.5S338.4,124.2,338.1,124.2z"/>
		<path class="st4" d="M329.2,116.5c-0.2,0-0.4-0.2-0.5-0.4c-1.9-12.8-8.3-24.4-17.9-32.8c-9.7-8.4-22.2-13.1-35.1-13.1
			c-0.3,0-0.5-0.2-0.5-0.5s0.2-0.5,0.5-0.5c13.1,0,25.8,4.7,35.7,13.3c9.8,8.5,16.3,20.4,18.3,33.4
			C329.7,116.2,329.5,116.4,329.2,116.5C329.2,116.5,329.2,116.5,329.2,116.5z"/>
		<path class="st4" d="M188.5,116.9C188.5,116.9,188.5,116.9,188.5,116.9c-0.3,0-0.5-0.3-0.5-0.5c1.8-13.2,8.3-25.1,18.2-33.7
			C216,74,228.8,69.2,242,69.2c0.3,0,0.5,0.2,0.5,0.5s-0.2,0.5-0.5,0.5c-13,0-25.5,4.7-35.2,13.2c-9.7,8.4-16.1,20.2-17.8,33.1
			C188.9,116.7,188.7,116.9,188.5,116.9z"/>
		<path class="st4" d="M180.5,124.6c-0.2,0-0.5-0.2-0.5-0.4c0-0.3,0.2-0.5,0.4-0.5c3.8-0.4,6.9-3.4,7.5-7.3c0-0.3,0.3-0.4,0.5-0.4
			c0.3,0,0.4,0.3,0.4,0.5C188.2,120.8,184.8,124.2,180.5,124.6C180.5,124.6,180.5,124.6,180.5,124.6z"/>
		<path class="st4" d="M115.9,196.2c-0.3,0-0.5-0.2-0.5-0.5c0-17.9,6.6-35.1,18.6-48.5c12-13.3,28.4-21.6,46.4-23.6
			c0.3,0,0.5,0.2,0.5,0.4c0,0.3-0.2,0.5-0.4,0.5c-17.7,1.9-34,10.1-45.8,23.2c-11.8,13.2-18.4,30.2-18.4,47.9
			C116.4,196,116.2,196.2,115.9,196.2z"/>
		<path class="st4" d="M401.7,196.2c-5.1,0-9.5-4.3-9.5-9.5c0-0.3,0.2-0.5,0.5-0.5s0.5,0.2,0.5,0.5c0,4.6,3.9,8.5,8.5,8.5
			c0.3,0,0.5,0.2,0.5,0.5S402,196.2,401.7,196.2z"/>
		<path class="st4" d="M392.7,187.2c-0.3,0-0.5-0.2-0.5-0.5v-9c0-0.3,0.2-0.5,0.5-0.5s0.5,0.2,0.5,0.5v9
			C393.2,187,393,187.2,392.7,187.2z"/>
		<path class="st4" d="M275.7,70.2H242c-0.3,0-0.5-0.2-0.5-0.5s0.2-0.5,0.5-0.5h33.7c0.3,0,0.5,0.2,0.5,0.5S276,70.2,275.7,70.2z"/>
	</g>
	<g id="topFront" class="st3">
		<path class="st4" d="M44,571.9c-0.3,0-0.5-0.2-0.5-0.5V252c0-0.3,0.2-0.5,0.5-0.5s0.5,0.2,0.5,0.5v319.4
			C44.5,571.7,44.3,571.9,44,571.9z"/>
		<g class="st5">
			<path class="st6" d="M116,625.9H98c-0.3,0-0.5-0.2-0.5-0.5s0.2-0.5,0.5-0.5h18c0.3,0,0.5,0.2,0.5,0.5S116.3,625.9,116,625.9z"/>
			<path class="st6" d="M98,625.9c-14.5,0-28.5-5.8-38.5-15.9c-10.3-10.2-15.9-23.9-15.9-38.5c0-0.3,0.2-0.5,0.5-0.5
				s0.5,0.2,0.5,0.5c0,14.4,5.6,27.9,15.7,37.9c9.9,10,23.7,15.7,37.9,15.7c0.3,0,0.5,0.2,0.5,0.5S98.3,625.9,98,625.9z"/>
			<path class="st6" d="M44,252.5c-0.3,0-0.5-0.2-0.5-0.5c0-14.7,5.7-28.4,15.9-38.5c10-10.1,24.1-15.9,38.5-15.9
				c0.3,0,0.5,0.2,0.5,0.5s-0.2,0.5-0.5,0.5c-14.2,0-28,5.7-37.9,15.7c-10.1,10-15.7,23.4-15.7,37.9C44.5,252.3,44.3,252.5,44,252.5
				z"/>
			<path class="st6" d="M116,198.5H98c-0.3,0-0.5-0.2-0.5-0.5s0.2-0.5,0.5-0.5h18c0.3,0,0.5,0.2,0.5,0.5S116.3,198.5,116,198.5z"/>
		</g>
	</g>
	<g id="topRight" class="st3">
		<path class="st4" d="M180.6,699.8C180.6,699.8,180.6,699.8,180.6,699.8c-18-1.9-34.5-10.3-46.5-23.6c-12-13.4-18.6-30.7-18.6-48.5
			c0-0.3,0.2-0.5,0.5-0.5s0.5,0.2,0.5,0.5c0,17.6,6.5,34.6,18.4,47.9c11.8,13.1,28.1,21.4,45.8,23.2c0.3,0,0.5,0.3,0.4,0.5
			C181.1,699.6,180.8,699.8,180.6,699.8z"/>
		<path class="st4" d="M188.4,707.5c-0.2,0-0.4-0.2-0.5-0.4c-0.6-3.9-3.6-6.9-7.5-7.3c-0.3,0-0.5-0.3-0.4-0.5c0-0.3,0.3-0.5,0.5-0.4
			c4.3,0.4,7.7,3.8,8.3,8.1C188.9,707.2,188.7,707.4,188.4,707.5C188.4,707.5,188.4,707.5,188.4,707.5z"/>
		<path class="st4" d="M241.9,754.2c-13.2,0-26-4.8-35.8-13.4c-9.9-8.7-16.4-20.7-18.2-33.7c0-0.3,0.1-0.5,0.4-0.5
			c0.3,0,0.5,0.1,0.5,0.4c1.8,12.8,8.1,24.6,17.8,33.1c9.7,8.5,22.2,13.2,35.2,13.2c0.3,0,0.5,0.2,0.5,0.5S242.2,754.2,241.9,754.2z
			"/>
		<path class="st4" d="M275.7,754.2H242c-0.3,0-0.5-0.2-0.5-0.5s0.2-0.5,0.5-0.5h33.7c0.3,0,0.5,0.2,0.5,0.5S276,754.2,275.7,754.2z
			"/>
		<path class="st4" d="M275.7,754.2c-0.3,0-0.5-0.2-0.5-0.5s0.2-0.5,0.5-0.5c12.9,0,25.4-4.6,35.1-13.1c9.7-8.4,16-20,17.9-32.8
			c0-0.3,0.3-0.4,0.5-0.4c0.3,0,0.4,0.3,0.4,0.5c-1.9,13-8.4,24.9-18.3,33.4C301.5,749.5,288.8,754.2,275.7,754.2z"/>
		<path class="st4" d="M329.2,707.9C329.2,707.9,329.2,707.9,329.2,707.9c-0.3,0-0.5-0.3-0.5-0.5c0.6-4.7,4.6-8.1,9.4-8.1
			c0.3,0,0.5,0.2,0.5,0.5s-0.2,0.5-0.5,0.5c-4.3,0-7.8,3.1-8.4,7.3C329.6,707.7,329.4,707.9,329.2,707.9z"/>
		<path class="st4" d="M338.7,700.2h-0.6c-0.3,0-0.5-0.2-0.5-0.5s0.2-0.5,0.5-0.5h0.6c0.3,0,0.5,0.2,0.5,0.5S339,700.2,338.7,700.2z
			"/>
		<path class="st4" d="M338.7,700.2c-0.3,0-0.5-0.2-0.5-0.5s0.2-0.5,0.5-0.5c14.2,0,28-5.7,37.9-15.7c10-9.9,15.7-23.7,15.7-37.9
			c0-0.3,0.2-0.5,0.5-0.5s0.5,0.2,0.5,0.5c0,14.5-5.8,28.5-15.9,38.5C367.2,694.4,353.2,700.2,338.7,700.2z"/>
		<path class="st4" d="M392.7,646.2c-0.3,0-0.5-0.2-0.5-0.5v-9c0-0.3,0.2-0.5,0.5-0.5s0.5,0.2,0.5,0.5v9
			C393.2,646,393,646.2,392.7,646.2z"/>
		<path class="st4" d="M392.7,637.2c-0.3,0-0.5-0.2-0.5-0.5c0-5.1,4.3-9.5,9.5-9.5c0.3,0,0.5,0.2,0.5,0.5s-0.2,0.5-0.5,0.5
			c-4.6,0-8.5,3.9-8.5,8.5C393.2,637,393,637.2,392.7,637.2z"/>
	</g>
	<g id="backRight" class="st3">
		<path class="st4" d="M401.7,754.2c-0.3,0-0.5-0.2-0.5-0.5v-126c0-0.3,0.2-0.5,0.5-0.5s0.5,0.2,0.5,0.5v126
			C402.2,754,402,754.2,401.7,754.2z"/>
		<path class="st4" d="M518.7,754.2h-117c-0.3,0-0.5-0.2-0.5-0.5s0.2-0.5,0.5-0.5h117c0.3,0,0.5,0.2,0.5,0.5S519,754.2,518.7,754.2z
			"/>
		<path class="st4" d="M518.7,754.2c-0.3,0-0.5-0.2-0.5-0.5c0-14.2-5.7-28-15.7-37.9c-9.9-10-23.7-15.7-37.9-15.7
			c-0.3,0-0.5-0.2-0.5-0.5s0.2-0.5,0.5-0.5c14.5,0,28.5,5.8,38.5,15.9c10.1,10,15.9,24.1,15.9,38.5C519.2,754,519,754.2,518.7,754.2
			z"/>
		<path class="st4" d="M473.7,700.2h-18c-0.3,0-0.5-0.2-0.5-0.5s0.2-0.5,0.5-0.5h18c0.3,0,0.5,0.2,0.5,0.5S474,700.2,473.7,700.2z"
			/>
		<path class="st4" d="M473.7,700.2c-0.3,0-0.5-0.2-0.5-0.5s0.2-0.5,0.5-0.5c19.1,0,37-7.4,50.6-21c13.3-13.1,21-31.6,21-50.6
			c0-0.3,0.2-0.5,0.5-0.5s0.5,0.2,0.5,0.5c0,19.3-7.7,37.9-21.2,51.2C511.2,692.6,493,700.2,473.7,700.2z"/>
	</g>
	<g id="bottomRight" class="st3">
		<path class="st4" d="M545.7,772.2c-0.3,0-0.5-0.2-0.5-0.5v-144c0-0.3,0.2-0.5,0.5-0.5s0.5,0.2,0.5,0.5v144
			C546.2,772,546,772.2,545.7,772.2z"/>
		<path class="st4" d="M833.7,772.2h-288c-0.3,0-0.5-0.2-0.5-0.5s0.2-0.5,0.5-0.5h288c0.3,0,0.5,0.2,0.5,0.5S834,772.2,833.7,772.2z
			"/>
		<path class="st4" d="M833.7,772.2c-0.3,0-0.5-0.2-0.5-0.5v-144c0-0.3,0.2-0.5,0.5-0.5s0.5,0.2,0.5,0.5v144
			C834.2,772,834,772.2,833.7,772.2z"/>
		<path class="st4" d="M617.7,709.2c-0.3,0-0.5-0.2-0.5-0.5v-9c0-0.3,0.2-0.5,0.5-0.5s0.5,0.2,0.5,0.5v9
			C618.2,709,618,709.2,617.7,709.2z"/>
		<path class="st4" d="M626.7,718.2c-5.1,0-9.5-4.3-9.5-9.5c0-0.3,0.2-0.5,0.5-0.5s0.5,0.2,0.5,0.5c0,4.6,3.9,8.5,8.5,8.5
			c0.3,0,0.5,0.2,0.5,0.5S627,718.2,626.7,718.2z"/>
		<path class="st4" d="M752.7,718.2h-126c-0.3,0-0.5-0.2-0.5-0.5s0.2-0.5,0.5-0.5h126c0.3,0,0.5,0.2,0.5,0.5S753,718.2,752.7,718.2z
			"/>
		<path class="st4" d="M752.7,718.2c-0.3,0-0.5-0.2-0.5-0.5s0.2-0.5,0.5-0.5c4.7,0,8.5-3.8,8.5-8.5c0-0.3,0.2-0.5,0.5-0.5
			s0.5,0.2,0.5,0.5C762.2,713.9,757.9,718.2,752.7,718.2z"/>
		<path class="st4" d="M761.7,709.2c-0.3,0-0.5-0.2-0.5-0.5v-9c0-0.3,0.2-0.5,0.5-0.5s0.5,0.2,0.5,0.5v9
			C762.2,709,762,709.2,761.7,709.2z"/>
	</g>
	<g id="frontRight" class="st3">
		<path class="st4" d="M905.7,700.2c-19.3,0-37.9-7.7-51.2-21.2c-13.7-13.7-21.2-31.9-21.2-51.2c0-0.3,0.2-0.5,0.5-0.5
			s0.5,0.2,0.5,0.5c0,19.1,7.4,37,21,50.6c13.1,13.3,31.6,21,50.6,21c0.3,0,0.5,0.2,0.5,0.5S906,700.2,905.7,700.2z"/>
		<path class="st4" d="M923.7,700.2h-18c-0.3,0-0.5-0.2-0.5-0.5s0.2-0.5,0.5-0.5h18c0.3,0,0.5,0.2,0.5,0.5S924,700.2,923.7,700.2z"
			/>
		<path class="st4" d="M860.7,754.2c-0.3,0-0.5-0.2-0.5-0.5c0-14.4,5.8-28.4,15.9-38.5c10-10.1,24.1-15.9,38.5-15.9
			c0.3,0,0.5,0.2,0.5,0.5s-0.2,0.5-0.5,0.5c-14.2,0-28,5.7-37.9,15.7c-10,10-15.7,23.8-15.7,37.9C861.2,754,861,754.2,860.7,754.2z"
			/>
		<path class="st4" d="M977.7,754.2h-117c-0.3,0-0.5-0.2-0.5-0.5s0.2-0.5,0.5-0.5h117c0.3,0,0.5,0.2,0.5,0.5S978,754.2,977.7,754.2z
			"/>
		<path class="st4" d="M977.7,754.2c-0.3,0-0.5-0.2-0.5-0.5v-126c0-0.3,0.2-0.5,0.5-0.5s0.5,0.2,0.5,0.5v126
			C978.2,754,978,754.2,977.7,754.2z"/>
	</g>
	<g id="text" class="st3">
		<text transform="matrix(0 -1 1 0 458.4194 418.098)" class="st7 st8 st9">SIDE</text>
		<text transform="matrix(0 -1 1 0 469.2194 437.3578)" class="st7 st8 st9">Printable Area:</text>
		<text transform="matrix(0 -1 1 0 480.0194 420.5482)" class="st7 st8 st9">6&quot; x 2&quot;</text>
		<text transform="matrix(0 1 -1 0 272.7422 384.076)" class="st7 st8 st9">TOP LID</text>
		<text transform="matrix(0 1 -1 0 261.9414 371.816)" class="st7 st8 st9">Printable Area:</text>
		<text transform="matrix(0 1 -1 0 251.1426 388.626)" class="st7 st8 st9">6&quot; x 4&quot;</text>
		<text transform="matrix(0 1 -1 0 920.1836 388.2976)" class="st7 st8 st9">FRONT</text>
		<text transform="matrix(0 1 -1 0 909.3828 374.0276)" class="st7 st8 st9">Printable Area:</text>
		<text transform="matrix(0 1 -1 0 898.584 390.8476)" class="st7 st8 st9">6&quot; x 2&quot;</text>
		<text transform="matrix(0 -1 1 0 694.521 437.2045)" class="st7 st8 st9">Bottom of Box</text>
	</g>
</g>
</svg>
