<?xml version="1.0" encoding="utf-8"?>
<!-- Generator: Adobe Illustrator 23.0.4, SVG Export Plug-In . SVG Version: 6.00 Build 0)  -->
<svg version="1.1" xmlns="http://www.w3.org/2000/svg" xmlns:xlink="http://www.w3.org/1999/xlink" x="0px" y="0px"
	 viewBox="0 0 345.31 245.5" style="enable-background:new 0 0 345.31 245.5;" xml:space="preserve">
<style type="text/css">
	.st0{fill:#DCDDDE;stroke:#3953A4;stroke-width:0.96;stroke-linecap:round;stroke-linejoin:round;stroke-miterlimit:10;}
	.st1{fill:#FFFFFF;stroke:#020404;stroke-miterlimit:10;}
	.st2{fill:none;stroke:#3953A4;stroke-width:0.96;stroke-linecap:round;stroke-linejoin:round;stroke-miterlimit:10;}
	
		.st3{fill:none;stroke:#ED1F24;stroke-width:0.96;stroke-linecap:round;stroke-linejoin:round;stroke-miterlimit:10;stroke-dasharray:4,6;}
	.st4{fill:none;stroke:#01A64F;stroke-width:0.96;stroke-linecap:round;stroke-linejoin:round;stroke-miterlimit:10;}
	.st5{fill:#DCDDDE;}
	.st6{fill:#F05333;}
	.st7{fill:none;stroke:#ED1F24;stroke-width:0.96;stroke-linecap:round;stroke-linejoin:round;}
	.st8{fill:none;stroke:#ED1F24;stroke-width:0.96;stroke-linecap:round;stroke-linejoin:round;stroke-dasharray:4.2911,6.4366;}
	.st9{fill:none;stroke:#F4D011;stroke-width:0.96;stroke-linecap:round;stroke-linejoin:round;}
	.st10{fill:none;stroke:#F4D011;stroke-width:0.96;stroke-linecap:round;stroke-linejoin:round;stroke-dasharray:0.9965,2.9896;}
	.st11{fill:none;stroke:#231F20;stroke-width:0.5;stroke-linecap:round;stroke-linejoin:round;stroke-miterlimit:10;}
	.st12{clip-path:url(#SVGID_2_);fill:#FFFFFF;}
	.st13{opacity:0.1;clip-path:url(#SVGID_2_);}
	.st14{fill:#B9D332;}
	.st15{clip-path:url(#SVGID_4_);fill:#FFFFFF;}
	.st16{opacity:0.1;clip-path:url(#SVGID_4_);}
	.st17{opacity:0.15;}
	.st18{fill:#98268A;}
	.st19{fill:#7E8F39;}
	.st20{fill:none;stroke:#ED1F24;stroke-width:0.96;stroke-linecap:round;stroke-linejoin:round;stroke-dasharray:3.8302,5.7453;}
	.st21{fill:none;stroke:#F4D011;stroke-width:0.96;stroke-linecap:round;stroke-linejoin:round;stroke-dasharray:0.992,2.9759;}
	.st22{fill:#231F20;}
	.st23{fill:#FFFFFF;stroke:#020404;stroke-width:0.96;stroke-linecap:round;stroke-linejoin:round;stroke-miterlimit:10;}
	.st24{fill:#020404;stroke:#98268A;stroke-miterlimit:10;}
</style>
<g id="Non-Print_Area">
</g>
<g id="Die_Lines">
</g>
<g id="Legend">
</g>
<g id="Bleed">
	<g>
		<path class="st23" d="M310.11,169.46c-4.92,0-9-4.08-9-9"/>
		<line class="st23" x1="301.11" y1="160.46" x2="301.11" y2="151.46"/>
		<line class="st23" x1="184.11" y1="43.46" x2="150.39" y2="43.46"/>
		<g>
			<path class="st23" d="M301.11,151.46c0-14.28-5.64-28.08-15.84-38.16c-10.08-10.2-23.88-15.84-38.16-15.84"/>
			<line class="st23" x1="247.11" y1="97.46" x2="246.51" y2="97.46"/>
			<path class="st23" d="M246.51,97.46c-4.56,0-8.28-3.24-8.88-7.68"/>
			<path class="st23" d="M237.63,89.78c-1.92-12.84-8.28-24.6-18.12-33.12c-9.84-8.52-22.44-13.2-35.4-13.2"/>
			<path class="st23" d="M150.39,43.46c-13.08,0-25.68,4.68-35.52,13.32c-9.84,8.52-16.2,20.4-18,33.36"/>
			<path class="st23" d="M96.87,90.14c-0.6,4.08-3.84,7.32-7.92,7.68"/>
			<path class="st23" d="M88.95,97.82c-17.76,1.92-34.2,10.2-46.08,23.4c-11.88,13.32-18.48,30.48-18.48,48.24"/>
		</g>
		<line class="st1" x1="24.04" y1="169.73" x2="310.52" y2="169.73"/>
	</g>
</g>
<g id="Your_Art_Layer">
</g>
</svg>
