<?xml version="1.0" encoding="utf-8"?>
<!-- Generator: Adobe Illustrator 23.0.4, SVG Export Plug-In . SVG Version: 6.00 Build 0)  -->
<svg version="1.1" xmlns="http://www.w3.org/2000/svg" xmlns:xlink="http://www.w3.org/1999/xlink" x="0px" y="0px"
	 viewBox="0 0 1078 864" style="enable-background:new 0 0 1078 864;" xml:space="preserve">
<style type="text/css">
	.st0{fill:#DCDDDE;stroke:#3953A4;stroke-width:0.96;stroke-linecap:round;stroke-linejoin:round;stroke-miterlimit:10;}
	.st1{fill:#FFFFFF;stroke:#020404;stroke-miterlimit:10;}
	.st2{fill:none;stroke:#3953A4;stroke-width:0.96;stroke-linecap:round;stroke-linejoin:round;stroke-miterlimit:10;}
	
		.st3{fill:none;stroke:#ED1F24;stroke-width:0.96;stroke-linecap:round;stroke-linejoin:round;stroke-miterlimit:10;stroke-dasharray:4,6;}
	.st4{fill:none;stroke:#01A64F;stroke-width:0.96;stroke-linecap:round;stroke-linejoin:round;stroke-miterlimit:10;}
	.st5{fill:#00AEEF;}
	.st6{font-family:'ArialMT';}
	.st7{font-size:9px;}
	.st8{fill:#DCDDDE;}
	.st9{fill:#F05333;}
	.st10{fill:none;stroke:#ED1F24;stroke-width:0.96;stroke-linecap:round;stroke-linejoin:round;}
	.st11{fill:none;stroke:#ED1F24;stroke-width:0.96;stroke-linecap:round;stroke-linejoin:round;stroke-dasharray:4.2911,6.4366;}
	.st12{fill:none;stroke:#F4D011;stroke-width:0.96;stroke-linecap:round;stroke-linejoin:round;}
	.st13{fill:none;stroke:#F4D011;stroke-width:0.96;stroke-linecap:round;stroke-linejoin:round;stroke-dasharray:0.9965,2.9896;}
	.st14{fill:none;stroke:#231F20;stroke-width:0.5;stroke-linecap:round;stroke-linejoin:round;stroke-miterlimit:10;}
	.st15{clip-path:url(#SVGID_2_);fill:#FFFFFF;}
	.st16{opacity:0.1;clip-path:url(#SVGID_2_);}
	.st17{fill:#B9D332;}
	.st18{clip-path:url(#SVGID_4_);fill:#FFFFFF;}
	.st19{opacity:0.1;clip-path:url(#SVGID_4_);}
	.st20{opacity:0.15;}
	.st21{fill:#98268A;}
	.st22{fill:#7E8F39;}
	.st23{fill:none;stroke:#ED1F24;stroke-width:0.96;stroke-linecap:round;stroke-linejoin:round;stroke-dasharray:3.8302,5.7453;}
	.st24{fill:none;stroke:#F4D011;stroke-width:0.96;stroke-linecap:round;stroke-linejoin:round;stroke-dasharray:0.992,2.9759;}
	.st25{fill:#231F20;}
	.st26{fill:#FFFFFF;stroke:#020404;stroke-width:0.96;stroke-linecap:round;stroke-linejoin:round;stroke-miterlimit:10;}
	.st27{fill:#020404;stroke:#98268A;stroke-miterlimit:10;}
</style>
<g id="Non-Print_Area">
</g>
<g id="Die_Lines">
</g>
<g id="Legend">
</g>
<g id="Bleed">
	<line class="st2" x1="115.97" y1="627.7" x2="115.97" y2="625.42"/>
	<g>
		<line class="st2" x1="43.97" y1="571.42" x2="43.97" y2="251.98"/>
		<g>
			<line class="st2" x1="115.97" y1="625.42" x2="97.97" y2="625.42"/>
			<path class="st2" d="M97.97,625.42c-14.28,0-28.08-5.64-38.16-15.84c-10.2-10.08-15.84-23.76-15.84-38.16"/>
			<path class="st2" d="M43.97,251.98c0-14.4,5.64-28.08,15.84-38.16c10.08-10.2,23.88-15.84,38.16-15.84"/>
			<line class="st2" x1="97.97" y1="197.98" x2="115.97" y2="197.98"/>
		</g>
	</g>
	<line class="st2" x1="115.97" y1="195.7" x2="115.97" y2="197.98"/>
	<line class="st3" x1="115.97" y1="197.98" x2="115.97" y2="625.42"/>
	<line class="st3" x1="115.97" y1="627.7" x2="401.69" y2="627.7"/>
	<line class="st3" x1="401.69" y1="627.7" x2="401.69" y2="195.7"/>
	<line class="st3" x1="115.97" y1="195.7" x2="401.69" y2="195.7"/>
	<line class="st3" x1="401.69" y1="195.7" x2="545.69" y2="195.7"/>
	<line class="st3" x1="545.69" y1="195.7" x2="545.69" y2="627.7"/>
	<line class="st3" x1="401.69" y1="627.7" x2="545.69" y2="627.7"/>
	<line class="st3" x1="545.69" y1="627.7" x2="833.69" y2="627.7"/>
	<line class="st3" x1="833.69" y1="627.7" x2="833.69" y2="195.7"/>
	<line class="st3" x1="545.69" y1="195.7" x2="833.69" y2="195.7"/>
	<line class="st3" x1="833.69" y1="195.7" x2="977.69" y2="195.7"/>
	<line class="st2" x1="977.69" y1="195.7" x2="977.69" y2="627.7"/>
	<line class="st3" x1="977.69" y1="627.7" x2="833.69" y2="627.7"/>
	<line class="st2" x1="977.69" y1="195.7" x2="977.69" y2="69.7"/>
	<line class="st2" x1="977.69" y1="69.7" x2="860.69" y2="69.7"/>
	<path class="st2" d="M860.69,69.7c0,14.28,5.76,28.08,15.84,38.16c10.08,10.2,23.88,15.84,38.16,15.84"/>
	<line class="st2" x1="923.69" y1="123.7" x2="905.69" y2="123.7"/>
	<path class="st2" d="M905.69,123.7c-19.08,0-37.44,7.56-50.88,21.12c-13.56,13.44-21.12,31.8-21.12,50.88"/>
	<line class="st2" x1="761.69" y1="123.7" x2="761.69" y2="114.7"/>
	<path class="st2" d="M761.69,114.7c0-4.92-3.96-9-9-9"/>
	<line class="st2" x1="752.69" y1="105.7" x2="626.69" y2="105.7"/>
	<path class="st2" d="M626.69,105.7c-4.92,0-9,4.08-9,9"/>
	<line class="st2" x1="617.69" y1="114.7" x2="617.69" y2="123.7"/>
	<line class="st2" x1="833.69" y1="195.7" x2="833.69" y2="51.7"/>
	<line class="st2" x1="833.69" y1="51.7" x2="545.69" y2="51.7"/>
	<line class="st2" x1="545.69" y1="51.7" x2="545.69" y2="195.7"/>
	<g>
		<path class="st2" d="M545.69,195.7c0-19.08-7.56-37.44-21.12-50.88c-13.44-13.56-31.8-21.12-50.88-21.12"/>
		<line class="st2" x1="473.69" y1="123.7" x2="455.69" y2="123.7"/>
		<path class="st2" d="M464.69,123.7c14.28,0,28.08-5.64,38.16-15.84c10.2-10.08,15.84-23.88,15.84-38.16"/>
		<line class="st2" x1="518.69" y1="69.7" x2="401.69" y2="69.7"/>
		<line class="st2" x1="401.69" y1="69.7" x2="401.69" y2="195.7"/>
	</g>
	<path class="st2" d="M401.69,195.7c-4.92,0-9-4.08-9-9"/>
	<line class="st2" x1="392.69" y1="186.7" x2="392.69" y2="177.7"/>
	<line class="st2" x1="275.69" y1="69.7" x2="241.97" y2="69.7"/>
	<g>
		<path class="st2" d="M392.69,177.7c0-14.28-5.64-28.08-15.84-38.16c-10.08-10.2-23.88-15.84-38.16-15.84"/>
		<line class="st2" x1="338.69" y1="123.7" x2="338.09" y2="123.7"/>
		<path class="st2" d="M338.09,123.7c-4.56,0-8.28-3.24-8.88-7.68"/>
		<path class="st2" d="M329.21,116.02c-1.92-12.84-8.28-24.6-18.12-33.12c-9.84-8.52-22.44-13.2-35.4-13.2"/>
		<path class="st2" d="M241.97,69.7c-13.08,0-25.68,4.68-35.52,13.32c-9.84,8.52-16.2,20.4-18,33.36"/>
		<path class="st2" d="M188.45,116.38c-0.6,4.08-3.84,7.32-7.92,7.68"/>
		<path class="st2" d="M180.53,124.06c-17.76,1.92-34.2,10.2-46.08,23.4c-11.88,13.32-18.48,30.48-18.48,48.24"/>
	</g>
	<path class="st2" d="M115.97,627.7c0,17.76,6.6,34.92,18.48,48.24c11.88,13.2,28.32,21.48,46.08,23.4"/>
	<path class="st2" d="M180.53,699.34c4.08,0.36,7.32,3.6,7.92,7.68"/>
	<path class="st2" d="M188.45,707.02c1.8,12.96,8.16,24.84,18,33.36c9.84,8.64,22.44,13.32,35.52,13.32"/>
	<line class="st2" x1="241.97" y1="753.7" x2="275.69" y2="753.7"/>
	<path class="st2" d="M275.69,753.7c12.96,0,25.56-4.68,35.4-13.2c9.84-8.52,16.2-20.28,18.12-33.12"/>
	<path class="st2" d="M329.21,707.38c0.6-4.44,4.32-7.68,8.88-7.68"/>
	<line class="st2" x1="338.09" y1="699.7" x2="338.69" y2="699.7"/>
	<path class="st2" d="M338.69,699.7c14.28,0,28.08-5.64,38.16-15.84c10.2-10.08,15.84-23.88,15.84-38.16"/>
	<line class="st2" x1="392.69" y1="645.7" x2="392.69" y2="636.7"/>
	<path class="st2" d="M392.69,636.7c0-4.92,4.08-9,9-9"/>
	<line class="st2" x1="401.69" y1="627.7" x2="401.69" y2="753.7"/>
	<line class="st2" x1="401.69" y1="753.7" x2="518.69" y2="753.7"/>
	<path class="st2" d="M518.69,753.7c0-14.28-5.64-28.08-15.84-38.16c-10.08-10.2-23.88-15.84-38.16-15.84"/>
	<line class="st2" x1="455.69" y1="699.7" x2="473.69" y2="699.7"/>
	<path class="st2" d="M473.69,699.7c19.08,0,37.44-7.56,50.88-21.12c13.56-13.44,21.12-31.8,21.12-50.88"/>
	<line class="st2" x1="545.69" y1="627.7" x2="545.69" y2="771.7"/>
	<line class="st2" x1="545.69" y1="771.7" x2="833.69" y2="771.7"/>
	<line class="st2" x1="833.69" y1="771.7" x2="833.69" y2="627.7"/>
	<line class="st2" x1="617.69" y1="699.7" x2="617.69" y2="708.7"/>
	<path class="st2" d="M617.69,708.7c0,4.92,4.08,9,9,9"/>
	<line class="st2" x1="626.69" y1="717.7" x2="752.69" y2="717.7"/>
	<path class="st2" d="M752.69,717.7c5.04,0,9-4.08,9-9"/>
	<line class="st2" x1="761.69" y1="708.7" x2="761.69" y2="699.7"/>
	<path class="st2" d="M833.69,627.7c0,19.08,7.56,37.44,21.12,50.88c13.44,13.56,31.8,21.12,50.88,21.12"/>
	<line class="st2" x1="905.69" y1="699.7" x2="923.69" y2="699.7"/>
	<path class="st2" d="M914.69,699.7c-14.28,0-28.08,5.64-38.16,15.84c-10.08,10.08-15.84,23.88-15.84,38.16"/>
	<line class="st2" x1="860.69" y1="753.7" x2="977.69" y2="753.7"/>
	<line class="st2" x1="977.69" y1="753.7" x2="977.69" y2="627.7"/>
	<text transform="matrix(0 -1 1 0 458.4194 418.0982)"><tspan x="0" y="0" class="st5 st6 st7">SIDE</tspan><tspan x="-19.26" y="10.8" class="st5 st6 st7">Printable Area:</tspan><tspan x="-2.45" y="21.6" class="st5 st6 st7">6&quot; x 2&quot;</tspan></text>
	<text transform="matrix(0 1 -1 0 272.7422 384.076)"><tspan x="0" y="0" class="st5 st6 st7">TOP LID</tspan><tspan x="-12.26" y="10.8" class="st5 st6 st7">Printable Area:</tspan><tspan x="4.55" y="21.6" class="st5 st6 st7">6&quot; x 4&quot;</tspan></text>
	<text transform="matrix(0 1 -1 0 920.1836 388.2976)"><tspan x="0" y="0" class="st5 st6 st7">FRONT</tspan><tspan x="-14.27" y="10.8" class="st5 st6 st7">Printable Area:</tspan><tspan x="2.55" y="21.6" class="st5 st6 st7">6&quot; x 2&quot;</tspan></text>
	<text transform="matrix(0 -1 1 0 694.521 437.2045)" class="st5 st6 st7">Bottom of Box</text>
</g>
<g id="Your_Art_Layer">
</g>
</svg>
