<?xml version="1.0" encoding="utf-8"?>
<!-- Generator: Adobe Illustrator 23.0.4, SVG Export Plug-In . SVG Version: 6.00 Build 0)  -->
<svg version="1.1" xmlns="http://www.w3.org/2000/svg" xmlns:xlink="http://www.w3.org/1999/xlink" x="0px" y="0px"
	 viewBox="0 0 1078 864" style="enable-background:new 0 0 1078 864;" xml:space="preserve">
<style type="text/css">
	.st0{fill:#DCDDDE;stroke:#3953A4;stroke-width:0.96;stroke-linecap:round;stroke-linejoin:round;stroke-miterlimit:10;}
	.st1{fill:#FFFFFF;stroke:#020404;stroke-miterlimit:10;}
	.st2{fill:none;stroke:#3953A4;stroke-width:0.96;stroke-linecap:round;stroke-linejoin:round;stroke-miterlimit:10;}
	
		.st3{fill:none;stroke:#ED1F24;stroke-width:0.96;stroke-linecap:round;stroke-linejoin:round;stroke-miterlimit:10;stroke-dasharray:4,6;}
	.st4{fill:#00AEEF;}
	.st5{font-family:'ArialMT';}
	.st6{font-size:9px;}
	.st7{fill:none;stroke:#01A64F;stroke-width:0.96;stroke-linecap:round;stroke-linejoin:round;stroke-miterlimit:10;}
	.st8{fill:#DCDDDE;}
	.st9{fill:#F05333;}
	.st10{fill:none;stroke:#ED1F24;stroke-width:0.96;stroke-linecap:round;stroke-linejoin:round;}
	.st11{fill:none;stroke:#ED1F24;stroke-width:0.96;stroke-linecap:round;stroke-linejoin:round;stroke-dasharray:4.2911,6.4366;}
	.st12{fill:none;stroke:#F4D011;stroke-width:0.96;stroke-linecap:round;stroke-linejoin:round;}
	.st13{fill:none;stroke:#F4D011;stroke-width:0.96;stroke-linecap:round;stroke-linejoin:round;stroke-dasharray:0.9965,2.9896;}
	.st14{fill:none;stroke:#231F20;stroke-width:0.5;stroke-linecap:round;stroke-linejoin:round;stroke-miterlimit:10;}
	.st15{clip-path:url(#SVGID_2_);fill:#FFFFFF;}
	.st16{opacity:0.1;clip-path:url(#SVGID_2_);}
	.st17{fill:#B9D332;}
	.st18{clip-path:url(#SVGID_4_);fill:#FFFFFF;}
	.st19{opacity:0.1;clip-path:url(#SVGID_4_);}
	.st20{opacity:0.15;}
	.st21{fill:#98268A;}
	.st22{fill:#7E8F39;}
	.st23{fill:none;stroke:#ED1F24;stroke-width:0.96;stroke-linecap:round;stroke-linejoin:round;stroke-dasharray:3.8302,5.7453;}
	.st24{fill:none;stroke:#F4D011;stroke-width:0.96;stroke-linecap:round;stroke-linejoin:round;stroke-dasharray:0.992,2.9759;}
	.st25{fill:#231F20;}
	.st26{fill:#FFFFFF;stroke:#020404;stroke-width:0.96;stroke-linecap:round;stroke-linejoin:round;stroke-miterlimit:10;}
	.st27{fill:#020404;stroke:#98268A;stroke-miterlimit:10;}
</style>
<g id="Non-Print_Area">
</g>
<g id="Die_Lines">
</g>
<g id="Legend">
</g>
<g id="Bleed">
	<g>
		<line class="st2" x1="144" y1="648" x2="144" y2="645.72"/>
		<line class="st2" x1="144" y1="645.72" x2="126" y2="645.72"/>
		<path class="st2" d="M126,645.72c-14.28,0-28.08-5.64-38.16-15.84C77.64,619.8,72,606.12,72,591.72"/>
		<line class="st2" x1="72" y1="591.72" x2="72" y2="272.28"/>
		<path class="st2" d="M72,272.28c0-14.4,5.64-28.08,15.84-38.16c10.08-10.2,23.88-15.84,38.16-15.84"/>
		<line class="st2" x1="126" y1="218.28" x2="144" y2="218.28"/>
		<line class="st2" x1="144" y1="216" x2="144" y2="218.28"/>
		<line class="st3" x1="144" y1="218.28" x2="144" y2="645.72"/>
		<line class="st3" x1="144" y1="648" x2="429.72" y2="648"/>
		<line class="st3" x1="429.72" y1="648" x2="429.72" y2="216"/>
		<line class="st3" x1="144" y1="216" x2="429.72" y2="216"/>
		<line class="st3" x1="429.72" y1="216" x2="573.72" y2="216"/>
		<line class="st3" x1="573.72" y1="216" x2="573.72" y2="648"/>
		<line class="st3" x1="429.72" y1="648" x2="573.72" y2="648"/>
		<line class="st3" x1="573.72" y1="648" x2="861.72" y2="648"/>
		<line class="st3" x1="861.72" y1="648" x2="861.72" y2="216"/>
		<line class="st3" x1="573.72" y1="216" x2="861.72" y2="216"/>
		<line class="st3" x1="861.72" y1="216" x2="1005.72" y2="216"/>
		<line class="st2" x1="1005.72" y1="216" x2="1005.72" y2="648"/>
		<line class="st3" x1="1005.72" y1="648" x2="861.72" y2="648"/>
		<line class="st2" x1="1005.72" y1="216" x2="1005.72" y2="90"/>
		<line class="st2" x1="1005.72" y1="90" x2="888.72" y2="90"/>
		<path class="st2" d="M888.72,90c0,14.28,5.76,28.08,15.84,38.16c10.08,10.2,23.88,15.84,38.16,15.84"/>
		<line class="st2" x1="951.72" y1="144" x2="933.72" y2="144"/>
		<path class="st2" d="M933.72,144c-19.08,0-37.44,7.56-50.88,21.12c-13.56,13.44-21.12,31.8-21.12,50.88"/>
		<line class="st2" x1="789.72" y1="144" x2="789.72" y2="135"/>
		<path class="st2" d="M789.72,135c0-4.92-3.96-9-9-9"/>
		<line class="st2" x1="780.72" y1="126" x2="654.72" y2="126"/>
		<path class="st2" d="M654.72,126c-4.92,0-9,4.08-9,9"/>
		<line class="st2" x1="645.72" y1="135" x2="645.72" y2="144"/>
		<line class="st2" x1="861.72" y1="216" x2="861.72" y2="72"/>
		<line class="st2" x1="861.72" y1="72" x2="573.72" y2="72"/>
		<line class="st2" x1="573.72" y1="72" x2="573.72" y2="216"/>
		<path class="st2" d="M573.72,216c0-19.08-7.56-37.44-21.12-50.88C539.16,151.56,520.8,144,501.72,144"/>
		<line class="st2" x1="501.72" y1="144" x2="483.72" y2="144"/>
		<path class="st2" d="M492.72,144c14.28,0,28.08-5.64,38.16-15.84c10.2-10.08,15.84-23.88,15.84-38.16"/>
		<line class="st2" x1="546.72" y1="90" x2="429.72" y2="90"/>
		<line class="st2" x1="429.72" y1="90" x2="429.72" y2="216"/>
		<path class="st2" d="M429.72,216c-4.92,0-9-4.08-9-9"/>
		<line class="st2" x1="420.72" y1="207" x2="420.72" y2="198"/>
		<path class="st2" d="M420.72,198c0-14.28-5.64-28.08-15.84-38.16C394.8,149.64,381,144,366.72,144"/>
		<line class="st2" x1="366.72" y1="144" x2="366.12" y2="144"/>
		<path class="st2" d="M366.12,144c-4.56,0-8.28-3.24-8.88-7.68"/>
		<path class="st2" d="M357.24,136.32c-1.92-12.84-8.28-24.6-18.12-33.12c-9.84-8.52-22.44-13.2-35.4-13.2"/>
		<line class="st2" x1="303.72" y1="90" x2="270" y2="90"/>
		<path class="st2" d="M270,90c-13.08,0-25.68,4.68-35.52,13.32c-9.84,8.52-16.2,20.4-18,33.36"/>
		<path class="st2" d="M216.48,136.68c-0.6,4.08-3.84,7.32-7.92,7.68"/>
		<path class="st2" d="M208.56,144.36c-17.76,1.92-34.2,10.2-46.08,23.4C150.6,181.08,144,198.24,144,216"/>
		<path class="st2" d="M144,648c0,17.76,6.6,34.92,18.48,48.24c11.88,13.2,28.32,21.48,46.08,23.4"/>
		<path class="st2" d="M208.56,719.64c4.08,0.36,7.32,3.6,7.92,7.68"/>
		<path class="st2" d="M216.48,727.32c1.8,12.96,8.16,24.84,18,33.36C244.32,769.32,256.92,774,270,774"/>
		<line class="st2" x1="270" y1="774" x2="303.72" y2="774"/>
		<path class="st2" d="M303.72,774c12.96,0,25.56-4.68,35.4-13.2c9.84-8.52,16.2-20.28,18.12-33.12"/>
		<path class="st2" d="M357.24,727.68c0.6-4.44,4.32-7.68,8.88-7.68"/>
		<line class="st2" x1="366.12" y1="720" x2="366.72" y2="720"/>
		<path class="st2" d="M366.72,720c14.28,0,28.08-5.64,38.16-15.84c10.2-10.08,15.84-23.88,15.84-38.16"/>
		<line class="st2" x1="420.72" y1="666" x2="420.72" y2="657"/>
		<path class="st2" d="M420.72,657c0-4.92,4.08-9,9-9"/>
		<line class="st2" x1="429.72" y1="648" x2="429.72" y2="774"/>
		<line class="st2" x1="429.72" y1="774" x2="546.72" y2="774"/>
		<path class="st2" d="M546.72,774c0-14.28-5.64-28.08-15.84-38.16C520.8,725.64,507,720,492.72,720"/>
		<line class="st2" x1="483.72" y1="720" x2="501.72" y2="720"/>
		<path class="st2" d="M501.72,720c19.08,0,37.44-7.56,50.88-21.12c13.56-13.44,21.12-31.8,21.12-50.88"/>
		<line class="st2" x1="573.72" y1="648" x2="573.72" y2="792"/>
		<line class="st2" x1="573.72" y1="792" x2="861.72" y2="792"/>
		<line class="st2" x1="861.72" y1="792" x2="861.72" y2="648"/>
		<line class="st2" x1="645.72" y1="720" x2="645.72" y2="729"/>
		<path class="st2" d="M645.72,729c0,4.92,4.08,9,9,9"/>
		<line class="st2" x1="654.72" y1="738" x2="780.72" y2="738"/>
		<path class="st2" d="M780.72,738c5.04,0,9-4.08,9-9"/>
		<line class="st2" x1="789.72" y1="729" x2="789.72" y2="720"/>
		<path class="st2" d="M861.72,648c0,19.08,7.56,37.44,21.12,50.88c13.44,13.56,31.8,21.12,50.88,21.12"/>
		<line class="st2" x1="933.72" y1="720" x2="951.72" y2="720"/>
		<path class="st2" d="M942.72,720c-14.28,0-28.08,5.64-38.16,15.84c-10.08,10.08-15.84,23.88-15.84,38.16"/>
		<line class="st2" x1="888.72" y1="774" x2="1005.72" y2="774"/>
		<line class="st2" x1="1005.72" y1="774" x2="1005.72" y2="648"/>
		<text transform="matrix(0 -1 1 0 486.4523 438.397)"><tspan x="0" y="0" class="st4 st5 st6">SIDE</tspan><tspan x="-19.26" y="10.8" class="st4 st5 st6">Printable Area:</tspan><tspan x="-2.45" y="21.6" class="st4 st5 st6">6&quot; x 2&quot;</tspan></text>
		<text transform="matrix(0 1 -1 0 300.7753 404.3755)"><tspan x="0" y="0" class="st4 st5 st6">TOP LID</tspan><tspan x="-12.26" y="10.8" class="st4 st5 st6">Printable Area:</tspan><tspan x="4.55" y="21.6" class="st4 st5 st6">6&quot; x 4&quot;</tspan></text>
		<text transform="matrix(0 1 -1 0 948.2167 408.5971)"><tspan x="0" y="0" class="st4 st5 st6">FRONT</tspan><tspan x="-14.27" y="10.8" class="st4 st5 st6">Printable Area:</tspan><tspan x="2.55" y="21.6" class="st4 st5 st6">6&quot; x 2&quot;</tspan></text>
		<text transform="matrix(0 -1 1 0 722.5538 457.5033)" class="st4 st5 st6">Bottom of Box</text>
		<path class="st7" d="M63.05,593.84c0,22.76,10.3,36.56,19.51,45.64c9.08,9.21,25.47,17.25,44.58,17.09l7.69-0.01
			c0,0,3.8,31.62,23.46,50.66c12.51,12.12,25.58,19.21,42.19,21.02c4.41,0.52,7.52,4.89,8.3,9.17
			c1.82,11.42,12.22,25.62,21.04,33.14c8.69,7.52,23.87,13.24,38.77,13.65c7.2,0.2,31.45,2.97,61.43-3.82
			c20.48-4.64,33.43-29.8,36.31-41.1c1.47-4.84,4.8-8.04,9.6-8.04h0.78c29.92-3.01,42.69-26.75,44.14-27.57v80.26h135.23
			c3.82-12.56-5.46-48.6-25.39-58.97c9.04-0.23,27.51-12.09,33.31-24.3l-0.07,101.32h306.87L871,701.42
			c5.79,12.21,23.52,22.18,32.62,22.18c-17.18,12.42-26.75,36.04-24.84,60.83h137.05V80.55H878.78
			c-1.91,24.8,7.67,48.42,24.84,60.83c-9.11,0-26.83,9.97-32.62,22.18l-0.21-100.56H563.92l0.07,101.32
			c-5.79-12.21-24.26-24.07-33.31-24.3c19.93-10.37,29.21-46.41,25.39-58.97H420.84v80.26c-1.45-0.83-14.21-24.57-44.14-27.57h-0.78
			c-4.8,0-8.13-3.2-9.6-8.04c-2.88-11.3-15.83-36.46-36.31-41.1c-29.98-6.8-54.23-4.02-61.43-3.82
			c-14.9,0.41-30.07,6.13-38.77,13.65c-8.82,7.53-19.22,21.72-21.04,33.14c-0.78,4.28-3.89,8.65-8.3,9.17
			c-16.61,1.82-29.68,8.91-42.19,21.02c-19.66,19.04-23.46,50.66-23.46,50.66l-7.69-0.01c-19.1-0.16-35.5,7.88-44.58,17.09
			c-9.21,9.08-19.51,22.88-19.51,45.64V593.84z"/>
	</g>
	<g>
		<g>
			<path class="st25" d="M830.84,601.27c0,0.26,0,0.48,0,0.67s0,0.38,0,0.57s0,0.42,0,0.68h-4.93v-1.89c0-0.45,0.11-0.81,0.33-1.07
				s0.52-0.39,0.9-0.39c0.25,0,0.48,0.08,0.69,0.25c0.21,0.17,0.33,0.37,0.37,0.6h0.05c0.04-0.34,0.17-0.61,0.39-0.8
				c0.22-0.2,0.49-0.3,0.81-0.3c0.43,0,0.77,0.15,1.02,0.44S830.84,600.74,830.84,601.27z M826.45,602.58c0.32,0,0.58,0,0.79,0
				c0.21,0,0.47,0,0.79,0v-0.98c0-0.37-0.07-0.65-0.2-0.84c-0.13-0.19-0.33-0.28-0.59-0.28c-0.25,0-0.45,0.08-0.58,0.25
				c-0.14,0.17-0.21,0.41-0.21,0.71V602.58z M830.3,602.58c0-0.25,0-0.45,0-0.61c0-0.16,0-0.36,0-0.61c0-0.37-0.07-0.65-0.22-0.84
				s-0.36-0.29-0.65-0.29s-0.5,0.1-0.64,0.3s-0.22,0.5-0.22,0.89v1.16H830.3z"/>
			<path class="st25" d="M826.28,598.65c-0.08,0.08-0.18,0.12-0.29,0.12c-0.11,0-0.21-0.04-0.29-0.12s-0.12-0.18-0.12-0.29
				c0-0.11,0.04-0.21,0.12-0.29s0.18-0.12,0.29-0.12c0.11,0,0.21,0.04,0.29,0.12s0.12,0.18,0.12,0.29
				C826.41,598.47,826.36,598.57,826.28,598.65z M830.84,598.65c-0.5,0-0.93,0-1.29,0c-0.37,0-0.73,0-1.1,0c-0.37,0-0.8,0-1.29,0
				v-0.59h3.68V598.65z"/>
			<path class="st25" d="M826.2,596.7c0-0.12,0-0.22,0-0.29c0-0.08,0-0.18,0-0.29h0.95v-0.82h0.49v0.82h2.08
				c0.22,0,0.37-0.04,0.47-0.13c0.1-0.09,0.15-0.23,0.15-0.42c0-0.05,0-0.1,0-0.13c0-0.04-0.01-0.08-0.01-0.14h0.5
				c0.01,0.06,0.02,0.11,0.03,0.17c0.01,0.06,0.01,0.12,0.01,0.17c0,0.38-0.08,0.65-0.23,0.82c-0.15,0.17-0.41,0.25-0.76,0.25h-2.24
				v0.6h-0.49v-0.6H826.2z"/>
			<path class="st25" d="M826.2,594.15c0-0.12,0-0.22,0-0.29c0-0.08,0-0.18,0-0.29h0.95v-0.82h0.49v0.82h2.08
				c0.22,0,0.37-0.04,0.47-0.13c0.1-0.09,0.15-0.23,0.15-0.42c0-0.05,0-0.1,0-0.13c0-0.04-0.01-0.08-0.01-0.14h0.5
				c0.01,0.06,0.02,0.11,0.03,0.17c0.01,0.06,0.01,0.12,0.01,0.17c0,0.38-0.08,0.65-0.23,0.82c-0.15,0.17-0.41,0.25-0.76,0.25h-2.24
				v0.6h-0.49v-0.6H826.2z"/>
			<path class="st25" d="M826.28,591.84c-0.08,0.08-0.18,0.12-0.29,0.12c-0.11,0-0.21-0.04-0.29-0.12s-0.12-0.18-0.12-0.29
				c0-0.11,0.04-0.21,0.12-0.29s0.18-0.12,0.29-0.12c0.11,0,0.21,0.04,0.29,0.12s0.12,0.18,0.12,0.29
				C826.41,591.66,826.36,591.76,826.28,591.84z M830.84,591.84c-0.5,0-0.93,0-1.29,0c-0.37,0-0.73,0-1.1,0c-0.37,0-0.8,0-1.29,0
				v-0.59h3.68V591.84z"/>
			<path class="st25" d="M830.84,588.14c0,0.26,0,0.49,0,0.67c0,0.19,0,0.38,0,0.57s0,0.42,0,0.68h-4.93v-1.89
				c0-0.45,0.11-0.81,0.33-1.07s0.52-0.39,0.9-0.39c0.25,0,0.48,0.08,0.69,0.25s0.33,0.37,0.37,0.6h0.05
				c0.04-0.34,0.17-0.6,0.39-0.8c0.22-0.2,0.49-0.3,0.81-0.3c0.43,0,0.77,0.15,1.02,0.44C830.72,587.2,830.84,587.61,830.84,588.14z
				 M826.45,589.45c0.32,0,0.58,0,0.79,0c0.21,0,0.47,0,0.79,0v-0.98c0-0.37-0.07-0.66-0.2-0.84c-0.13-0.19-0.33-0.28-0.59-0.28
				c-0.25,0-0.45,0.08-0.58,0.25c-0.14,0.17-0.21,0.41-0.21,0.71V589.45z M830.3,589.45c0-0.25,0-0.45,0-0.61c0-0.16,0-0.36,0-0.61
				c0-0.37-0.07-0.65-0.22-0.84s-0.36-0.29-0.65-0.29s-0.5,0.1-0.64,0.3c-0.14,0.2-0.22,0.5-0.22,0.89v1.16H830.3z"/>
			<path class="st25" d="M826.28,585.52c-0.08,0.08-0.18,0.12-0.29,0.12c-0.11,0-0.21-0.04-0.29-0.12
				c-0.08-0.08-0.12-0.18-0.12-0.29c0-0.11,0.04-0.21,0.12-0.29s0.18-0.12,0.29-0.12c0.11,0,0.21,0.04,0.29,0.12
				s0.12,0.18,0.12,0.29C826.41,585.34,826.36,585.44,826.28,585.52z M830.84,585.52c-0.5,0-0.93,0-1.29,0c-0.37,0-0.73,0-1.1,0
				c-0.37,0-0.8,0-1.29,0v-0.59h3.68V585.52z"/>
			<path class="st25" d="M826.2,583.57c0-0.12,0-0.22,0-0.29c0-0.08,0-0.17,0-0.29h0.95v-0.82h0.49v0.82h2.08
				c0.22,0,0.37-0.04,0.47-0.13c0.1-0.09,0.15-0.22,0.15-0.42c0-0.05,0-0.1,0-0.14c0-0.04-0.01-0.08-0.01-0.14h0.5
				c0.01,0.06,0.02,0.11,0.03,0.17c0.01,0.06,0.01,0.12,0.01,0.17c0,0.38-0.08,0.65-0.23,0.82c-0.15,0.17-0.41,0.25-0.76,0.25h-2.24
				v0.59h-0.49v-0.59H826.2z"/>
			<path class="st25" d="M829.89,578.83c0-0.12,0-0.22,0-0.29c0-0.08,0-0.18,0-0.29c0.32,0.09,0.57,0.27,0.75,0.54
				c0.18,0.27,0.27,0.61,0.27,1.01c0,0.51-0.17,0.91-0.51,1.21s-0.81,0.45-1.39,0.45c-0.58,0-1.04-0.15-1.39-0.45
				s-0.52-0.7-0.52-1.21c0-0.5,0.17-0.89,0.5-1.17c0.33-0.28,0.78-0.43,1.36-0.43h0.22v2.65h0.03c0.37-0.02,0.65-0.12,0.87-0.31
				c0.21-0.19,0.32-0.44,0.32-0.75c0-0.24-0.04-0.44-0.13-0.6C830.17,579.02,830.05,578.91,829.89,578.83z M827.91,580.52
				c0.2,0.19,0.46,0.29,0.79,0.32v-2.03c-0.33,0.01-0.59,0.1-0.79,0.28s-0.3,0.42-0.3,0.71
				C827.61,580.09,827.71,580.34,827.91,580.52z"/>
			<path class="st25" d="M830.84,573.3c0,0.26,0,0.48,0,0.67s0,0.38,0,0.57s0,0.42,0,0.68h-4.93v-1.89c0-0.45,0.11-0.81,0.33-1.07
				s0.52-0.39,0.9-0.39c0.25,0,0.48,0.08,0.69,0.25c0.21,0.17,0.33,0.37,0.37,0.6h0.05c0.04-0.34,0.17-0.61,0.39-0.8
				c0.22-0.2,0.49-0.3,0.81-0.3c0.43,0,0.77,0.15,1.02,0.44S830.84,572.77,830.84,573.3z M826.45,574.6c0.32,0,0.58,0,0.79,0
				c0.21,0,0.47,0,0.79,0v-0.98c0-0.37-0.07-0.65-0.2-0.84c-0.13-0.19-0.33-0.28-0.59-0.28c-0.25,0-0.45,0.08-0.58,0.25
				c-0.14,0.17-0.21,0.41-0.21,0.71V574.6z M830.3,574.6c0-0.25,0-0.45,0-0.61c0-0.16,0-0.36,0-0.61c0-0.37-0.07-0.65-0.22-0.84
				s-0.36-0.29-0.65-0.29s-0.5,0.1-0.64,0.3s-0.22,0.5-0.22,0.89v1.16H830.3z"/>
			<path class="st25" d="M830.39,570.42c-0.34,0.3-0.81,0.46-1.4,0.46c-0.59,0-1.06-0.15-1.4-0.46c-0.34-0.3-0.51-0.72-0.51-1.24
				s0.17-0.94,0.51-1.24c0.34-0.3,0.81-0.46,1.4-0.46c0.59,0,1.05,0.15,1.4,0.46c0.34,0.3,0.51,0.72,0.51,1.24
				S830.73,570.12,830.39,570.42z M830.01,568.37c-0.24-0.19-0.58-0.28-1.01-0.28c-0.44,0-0.78,0.09-1.02,0.28s-0.36,0.46-0.36,0.81
				s0.12,0.62,0.36,0.81s0.58,0.28,1.02,0.28c0.43,0,0.77-0.09,1.01-0.28s0.36-0.46,0.36-0.81S830.25,568.56,830.01,568.37z"/>
			<path class="st25" d="M829.45,565.25v0.05l1.39,0.88v0.67l-1.84-1.26l-1.84,1.27v-0.7l1.37-0.88v-0.05l-1.37-0.87v-0.67
				l1.82,1.25l1.87-1.27v0.7L829.45,565.25z"/>
			<path class="st25" d="M829.89,560.44c0-0.12,0-0.22,0-0.29c0-0.08,0-0.18,0-0.29c0.32,0.09,0.57,0.27,0.75,0.54
				c0.18,0.27,0.27,0.61,0.27,1.01c0,0.51-0.17,0.91-0.51,1.21s-0.81,0.45-1.39,0.45c-0.58,0-1.04-0.15-1.39-0.45
				s-0.52-0.7-0.52-1.21c0-0.5,0.17-0.89,0.5-1.17c0.33-0.28,0.78-0.43,1.36-0.43h0.22v2.65h0.03c0.37-0.02,0.65-0.12,0.87-0.31
				c0.21-0.19,0.32-0.44,0.32-0.75c0-0.24-0.04-0.44-0.13-0.6C830.17,560.64,830.05,560.52,829.89,560.44z M827.91,562.14
				c0.2,0.19,0.46,0.29,0.79,0.32v-2.03c-0.33,0.01-0.59,0.1-0.79,0.28s-0.3,0.42-0.3,0.71
				C827.61,561.71,827.71,561.95,827.91,562.14z"/>
			<path class="st25" d="M827.4,558.57c-0.21-0.26-0.31-0.59-0.31-0.98c0-0.39,0.09-0.71,0.27-0.96c0.18-0.25,0.42-0.39,0.72-0.43
				v0.58c-0.15,0.04-0.27,0.13-0.36,0.27s-0.13,0.32-0.13,0.54c0,0.22,0.05,0.4,0.15,0.55s0.23,0.22,0.4,0.22
				c0.12,0,0.23-0.05,0.31-0.16c0.08-0.11,0.15-0.27,0.2-0.48l0.14-0.57c0.08-0.35,0.21-0.6,0.36-0.77s0.37-0.25,0.63-0.25
				c0.33,0,0.6,0.14,0.8,0.42c0.21,0.28,0.31,0.63,0.31,1.05c0,0.41-0.09,0.75-0.27,1.01c-0.18,0.26-0.43,0.41-0.73,0.44v-0.61
				c0.15-0.05,0.28-0.15,0.37-0.29c0.09-0.15,0.14-0.34,0.14-0.57c0-0.25-0.05-0.45-0.16-0.61c-0.11-0.16-0.24-0.24-0.41-0.24
				c-0.13,0-0.23,0.05-0.32,0.15c-0.09,0.1-0.15,0.24-0.2,0.44l-0.15,0.63c-0.08,0.34-0.21,0.6-0.36,0.76
				c-0.16,0.16-0.37,0.24-0.63,0.24C827.86,558.97,827.6,558.84,827.4,558.57z"/>
			<path class="st25" d="M834.15,598.63c0.5,0.14,0.93,0.26,1.29,0.36c0.37,0.1,0.73,0.21,1.1,0.31c0.37,0.1,0.8,0.22,1.29,0.36v0.6
				l-2.85,0.82v0.05l2.85,0.82v0.6l-3.68,1.03v-0.59l2.95-0.72v-0.05l-2.95-0.82v-0.56l2.95-0.82v-0.05l-2.95-0.72V598.63z"/>
			<path class="st25" d="M834.15,593.21c0.5,0.14,0.93,0.26,1.29,0.36c0.37,0.1,0.73,0.21,1.1,0.31c0.37,0.1,0.8,0.22,1.29,0.36v0.6
				l-2.85,0.82v0.05l2.85,0.82v0.59l-3.68,1.03v-0.6l2.95-0.72v-0.05l-2.95-0.82v-0.56l2.95-0.82v-0.05l-2.95-0.72V593.21z"/>
			<path class="st25" d="M834.15,587.79c0.5,0.14,0.93,0.26,1.29,0.36c0.37,0.1,0.73,0.21,1.1,0.31c0.37,0.1,0.8,0.22,1.29,0.36v0.6
				l-2.85,0.82v0.05l2.85,0.82v0.6l-3.68,1.03v-0.59l2.95-0.72v-0.05l-2.95-0.82v-0.56l2.95-0.82v-0.05l-2.95-0.72V587.79z"/>
			<path class="st25" d="M837.74,586.83c-0.09,0.09-0.19,0.13-0.31,0.13c-0.12,0-0.23-0.04-0.31-0.13s-0.13-0.19-0.13-0.31
				c0-0.12,0.04-0.23,0.13-0.31c0.09-0.09,0.19-0.13,0.31-0.13c0.12,0,0.22,0.04,0.31,0.13c0.09,0.09,0.13,0.19,0.13,0.31
				C837.87,586.64,837.83,586.74,837.74,586.83z"/>
			<path class="st25" d="M837.73,583.79c-0.12,0.21-0.28,0.37-0.48,0.49v0.05h0.59v0.56h-5.15v-0.59h2.04v-0.05
				c-0.2-0.1-0.36-0.25-0.47-0.46c-0.12-0.21-0.17-0.44-0.17-0.69c0-0.47,0.17-0.84,0.52-1.12c0.35-0.28,0.81-0.42,1.39-0.42
				c0.58,0,1.04,0.14,1.39,0.42c0.35,0.28,0.52,0.66,0.52,1.12C837.9,583.35,837.85,583.58,837.73,583.79z M834.99,584.03
				c0.25,0.2,0.58,0.29,1.01,0.29c0.43,0,0.76-0.1,1.01-0.29c0.25-0.19,0.37-0.46,0.37-0.79c0-0.34-0.12-0.6-0.37-0.79
				c-0.24-0.19-0.58-0.28-1.01-0.28c-0.43,0-0.77,0.09-1.01,0.28c-0.24,0.19-0.37,0.45-0.37,0.79
				C834.62,583.57,834.74,583.83,834.99,584.03z"/>
			<path class="st25" d="M833.28,580.61c-0.08,0.08-0.18,0.12-0.29,0.12c-0.11,0-0.21-0.04-0.29-0.12
				c-0.08-0.08-0.12-0.18-0.12-0.29c0-0.11,0.04-0.21,0.12-0.29s0.18-0.12,0.29-0.12c0.11,0,0.21,0.04,0.29,0.12
				s0.12,0.18,0.12,0.29C833.41,580.43,833.36,580.53,833.28,580.61z M837.84,580.61c-0.5,0-0.93,0-1.29,0c-0.37,0-0.73,0-1.1,0
				c-0.37,0-0.8,0-1.29,0v-0.59h3.68V580.61z"/>
			<path class="st25" d="M833.2,578.66c0-0.12,0-0.22,0-0.29c0-0.08,0-0.17,0-0.29h0.95v-0.82h0.49v0.82h2.08
				c0.22,0,0.37-0.04,0.47-0.13c0.1-0.09,0.15-0.22,0.15-0.42c0-0.05,0-0.1,0-0.14c0-0.04-0.01-0.08-0.01-0.14h0.5
				c0.01,0.06,0.02,0.11,0.03,0.17c0.01,0.06,0.01,0.12,0.01,0.17c0,0.38-0.08,0.65-0.23,0.82c-0.15,0.17-0.41,0.25-0.76,0.25h-2.24
				v0.59h-0.49v-0.59H833.2z"/>
			<path class="st25" d="M833.2,576.12c0-0.12,0-0.22,0-0.29c0-0.08,0-0.17,0-0.29h0.95v-0.82h0.49v0.82h2.08
				c0.22,0,0.37-0.04,0.47-0.13c0.1-0.09,0.15-0.22,0.15-0.42c0-0.05,0-0.1,0-0.14c0-0.04-0.01-0.08-0.01-0.14h0.5
				c0.01,0.06,0.02,0.11,0.03,0.17c0.01,0.06,0.01,0.12,0.01,0.17c0,0.38-0.08,0.65-0.23,0.82c-0.15,0.17-0.41,0.25-0.76,0.25h-2.24
				v0.59h-0.49v-0.59H833.2z"/>
			<path class="st25" d="M833.28,573.8c-0.08,0.08-0.18,0.12-0.29,0.12c-0.11,0-0.21-0.04-0.29-0.12c-0.08-0.08-0.12-0.18-0.12-0.29
				c0-0.11,0.04-0.21,0.12-0.29s0.18-0.12,0.29-0.12c0.11,0,0.21,0.04,0.29,0.12s0.12,0.18,0.12,0.29
				C833.41,573.62,833.36,573.72,833.28,573.8z M837.84,573.81c-0.5,0-0.93,0-1.29,0c-0.37,0-0.73,0-1.1,0c-0.37,0-0.8,0-1.29,0
				v-0.59h3.68V573.81z"/>
			<path class="st25" d="M837.73,570.96c-0.12,0.21-0.28,0.37-0.48,0.49v0.05h0.59v0.56h-5.15v-0.59h2.04v-0.05
				c-0.2-0.1-0.36-0.25-0.47-0.46c-0.12-0.21-0.17-0.44-0.17-0.69c0-0.47,0.17-0.84,0.52-1.12c0.35-0.28,0.81-0.42,1.39-0.42
				c0.58,0,1.04,0.14,1.39,0.42s0.52,0.66,0.52,1.12C837.9,570.52,837.85,570.75,837.73,570.96z M834.99,571.19
				c0.25,0.2,0.58,0.29,1.01,0.29c0.43,0,0.76-0.1,1.01-0.29c0.25-0.19,0.37-0.46,0.37-0.79c0-0.34-0.12-0.6-0.37-0.79
				c-0.24-0.19-0.58-0.28-1.01-0.28c-0.43,0-0.77,0.1-1.01,0.28c-0.24,0.19-0.37,0.45-0.37,0.79
				C834.62,570.73,834.74,571,834.99,571.19z"/>
			<path class="st25" d="M833.28,567.78c-0.08,0.08-0.18,0.12-0.29,0.12c-0.11,0-0.21-0.04-0.29-0.12s-0.12-0.18-0.12-0.29
				c0-0.11,0.04-0.21,0.12-0.29s0.18-0.12,0.29-0.12c0.11,0,0.21,0.04,0.29,0.12s0.12,0.18,0.12,0.29
				C833.41,567.6,833.36,567.7,833.28,567.78z M837.84,567.78c-0.5,0-0.93,0-1.29,0c-0.37,0-0.73,0-1.1,0c-0.37,0-0.8,0-1.29,0
				v-0.59h3.68V567.78z"/>
			<path class="st25" d="M833.2,565.83c0-0.12,0-0.22,0-0.29c0-0.08,0-0.18,0-0.29h0.95v-0.82h0.49v0.82h2.08
				c0.22,0,0.37-0.04,0.47-0.13c0.1-0.09,0.15-0.23,0.15-0.42c0-0.05,0-0.1,0-0.13c0-0.04-0.01-0.08-0.01-0.14h0.5
				c0.01,0.06,0.02,0.11,0.03,0.17c0.01,0.06,0.01,0.12,0.01,0.17c0,0.38-0.08,0.65-0.23,0.82c-0.15,0.17-0.41,0.25-0.76,0.25h-2.24
				v0.6h-0.49v-0.6H833.2z"/>
			<path class="st25" d="M836.89,561.09c0-0.12,0-0.22,0-0.29c0-0.08,0-0.17,0-0.29c0.32,0.09,0.57,0.27,0.75,0.54
				c0.18,0.27,0.27,0.61,0.27,1.01c0,0.51-0.17,0.92-0.51,1.21s-0.81,0.45-1.39,0.45c-0.58,0-1.04-0.15-1.39-0.45
				s-0.52-0.71-0.52-1.21c0-0.5,0.17-0.89,0.5-1.17c0.33-0.29,0.78-0.43,1.36-0.43h0.22v2.65h0.03c0.37-0.02,0.65-0.12,0.87-0.31
				c0.21-0.19,0.32-0.44,0.32-0.75c0-0.24-0.04-0.43-0.13-0.59C837.17,561.29,837.05,561.17,836.89,561.09z M834.91,562.79
				c0.2,0.19,0.46,0.29,0.79,0.32v-2.03c-0.33,0.01-0.59,0.1-0.79,0.28s-0.3,0.42-0.3,0.71
				C834.61,562.35,834.71,562.6,834.91,562.79z"/>
			<path class="st25" d="M837.74,559.36c-0.09,0.09-0.19,0.13-0.31,0.13c-0.12,0-0.23-0.04-0.31-0.13
				c-0.09-0.09-0.13-0.19-0.13-0.31c0-0.12,0.04-0.23,0.13-0.31c0.09-0.09,0.19-0.13,0.31-0.13c0.12,0,0.22,0.04,0.31,0.13
				c0.09,0.09,0.13,0.19,0.13,0.31C837.87,559.17,837.83,559.27,837.74,559.36z"/>
			<path class="st25" d="M835.28,554.4c0,0.12,0,0.22,0,0.3s0,0.18,0,0.3c-0.18,0.05-0.34,0.15-0.47,0.31
				c-0.13,0.16-0.19,0.37-0.19,0.64c0,0.33,0.12,0.59,0.37,0.79c0.25,0.2,0.58,0.29,1,0.29c0.43,0,0.76-0.1,1.01-0.29
				c0.25-0.2,0.38-0.46,0.38-0.79c0-0.25-0.06-0.46-0.17-0.62c-0.11-0.17-0.27-0.28-0.48-0.33v-0.59c0.34,0.05,0.62,0.21,0.84,0.48
				c0.22,0.27,0.33,0.62,0.33,1.06c0,0.52-0.17,0.93-0.52,1.23s-0.81,0.46-1.4,0.46c-0.57,0-1.03-0.15-1.38-0.46
				c-0.34-0.31-0.52-0.72-0.52-1.23c0-0.45,0.12-0.81,0.35-1.07S834.95,554.45,835.28,554.4z"/>
			<path class="st25" d="M837.39,553.26c-0.34,0.3-0.81,0.46-1.4,0.46c-0.59,0-1.06-0.15-1.4-0.46c-0.34-0.3-0.51-0.72-0.51-1.24
				s0.17-0.94,0.51-1.24c0.34-0.3,0.81-0.46,1.4-0.46c0.59,0,1.05,0.15,1.4,0.46c0.34,0.3,0.51,0.72,0.51,1.24
				S837.73,552.96,837.39,553.26z M837.01,551.22c-0.24-0.19-0.58-0.28-1.01-0.28c-0.44,0-0.78,0.09-1.02,0.28s-0.36,0.46-0.36,0.81
				s0.12,0.62,0.36,0.81s0.58,0.28,1.02,0.28c0.43,0,0.77-0.09,1.01-0.28s0.36-0.46,0.36-0.81S837.25,551.4,837.01,551.22z"/>
			<path class="st25" d="M837.84,549.4c-0.5,0-0.93,0-1.29,0c-0.37,0-0.73,0-1.1,0c-0.37,0-0.8,0-1.29,0v-0.56h0.58v-0.05
				c-0.21-0.08-0.36-0.22-0.48-0.39c-0.11-0.18-0.17-0.39-0.17-0.64c0-0.25,0.06-0.46,0.18-0.63c0.12-0.17,0.28-0.3,0.47-0.38v-0.05
				c-0.2-0.1-0.35-0.25-0.47-0.45c-0.12-0.2-0.18-0.42-0.18-0.68c0-0.38,0.1-0.67,0.31-0.87s0.5-0.3,0.89-0.3h2.55v0.59h-2.41
				c-0.27,0-0.47,0.06-0.61,0.19c-0.13,0.13-0.2,0.32-0.2,0.58c0,0.26,0.08,0.46,0.25,0.62c0.17,0.16,0.37,0.24,0.6,0.24h2.37v0.59
				h-2.5c-0.22,0-0.39,0.07-0.52,0.21c-0.13,0.14-0.19,0.33-0.19,0.56c0,0.24,0.09,0.45,0.27,0.61s0.4,0.25,0.66,0.25h2.28V549.4z"
				/>
			<path class="st25" d="M845.05,602.22c-0.24,0.41-0.56,0.73-0.97,0.97s-0.87,0.36-1.38,0.36c-0.51,0-0.97-0.12-1.38-0.36
				s-0.73-0.56-0.97-0.97s-0.36-0.87-0.36-1.38c0-0.51,0.12-0.97,0.36-1.38c0.24-0.41,0.56-0.73,0.97-0.97s0.87-0.36,1.39-0.36
				c0.51,0,0.97,0.12,1.38,0.36s0.73,0.56,0.97,0.97c0.24,0.41,0.36,0.87,0.36,1.38C845.41,601.35,845.29,601.81,845.05,602.22z
				 M844.64,599.71c-0.2-0.34-0.46-0.6-0.8-0.8c-0.34-0.2-0.72-0.29-1.14-0.29c-0.42,0-0.8,0.1-1.14,0.29
				c-0.34,0.2-0.6,0.46-0.8,0.8c-0.2,0.34-0.29,0.72-0.29,1.14c0,0.42,0.1,0.8,0.29,1.14s0.46,0.6,0.8,0.8s0.72,0.29,1.14,0.29
				c0.42,0,0.8-0.1,1.14-0.29c0.34-0.2,0.6-0.46,0.8-0.8s0.3-0.71,0.3-1.13C844.93,600.42,844.84,600.04,844.64,599.71z
				 M842.21,599.55c0,0.16,0,0.32,0,0.48c-0.16,0.04-0.29,0.13-0.39,0.27c-0.1,0.14-0.15,0.3-0.15,0.49c0,0.26,0.09,0.47,0.27,0.63
				c0.18,0.16,0.43,0.23,0.74,0.23c0.31,0,0.56-0.08,0.75-0.23c0.19-0.16,0.28-0.37,0.28-0.63c0-0.2-0.04-0.37-0.13-0.5
				c-0.09-0.13-0.22-0.22-0.38-0.26v-0.48c0.29,0.04,0.51,0.18,0.68,0.4c0.17,0.22,0.25,0.5,0.25,0.83c0,0.41-0.13,0.74-0.39,0.99
				c-0.26,0.25-0.61,0.37-1.06,0.37c-0.44,0-0.79-0.12-1.05-0.37c-0.26-0.24-0.39-0.57-0.39-0.98c0-0.33,0.09-0.6,0.26-0.83
				C841.7,599.73,841.93,599.6,842.21,599.55z"/>
			<path class="st25" d="M840.21,596.9c-0.28-0.3-0.42-0.67-0.42-1.13c0-0.44,0.13-0.81,0.4-1.11s0.59-0.45,0.99-0.45
				c0.25,0,0.51,0.07,0.76,0.22c0.25,0.15,0.59,0.42,1.03,0.83l1.27,1.19h0.05v-2.31h0.55v3.19h-0.42l-1.86-1.71
				c-0.35-0.32-0.61-0.53-0.79-0.63s-0.37-0.16-0.57-0.16c-0.25,0-0.45,0.09-0.62,0.28c-0.17,0.19-0.25,0.41-0.25,0.69
				c0,0.29,0.09,0.52,0.26,0.7s0.41,0.27,0.7,0.27h0v0.6h0C840.86,597.35,840.5,597.2,840.21,596.9z"/>
			<path class="st25" d="M844.28,592.72c-0.45,0.3-1.09,0.46-1.91,0.46c-0.81,0-1.45-0.15-1.9-0.46c-0.45-0.31-0.68-0.74-0.68-1.29
				c0-0.55,0.23-0.98,0.68-1.28c0.45-0.31,1.09-0.46,1.91-0.46c0.82,0,1.45,0.15,1.9,0.46c0.45,0.3,0.67,0.73,0.67,1.29
				C844.95,591.99,844.73,592.42,844.28,592.72z M843.89,590.6c-0.35-0.19-0.86-0.29-1.52-0.29c-0.65,0-1.16,0.1-1.51,0.29
				c-0.35,0.2-0.53,0.47-0.53,0.83s0.18,0.64,0.53,0.83c0.35,0.2,0.86,0.3,1.51,0.3c0.66,0,1.16-0.1,1.52-0.29s0.53-0.47,0.53-0.84
				S844.24,590.79,843.89,590.6z"/>
			<path class="st25" d="M844.84,587.5c-0.41,0-0.78,0-1.1,0s-0.66,0-1.03,0s-0.7,0-1.03,0s-0.69,0-1.1,0v0.05
				c0.18,0.25,0.33,0.46,0.45,0.63c0.12,0.17,0.27,0.38,0.45,0.63h-0.65c-0.19-0.26-0.35-0.48-0.47-0.66
				c-0.12-0.17-0.28-0.39-0.47-0.66v-0.61h4.93V587.5z"/>
			<path class="st25" d="M844.55,585.01c-0.27,0.33-0.61,0.5-1.03,0.5c-0.32,0-0.6-0.09-0.83-0.28c-0.23-0.19-0.37-0.43-0.43-0.74
				h-0.05c-0.07,0.25-0.2,0.45-0.4,0.6c-0.2,0.15-0.43,0.22-0.7,0.22c-0.38,0-0.7-0.15-0.95-0.44s-0.37-0.67-0.37-1.13
				c0-0.46,0.12-0.84,0.37-1.13c0.25-0.29,0.56-0.44,0.95-0.44c0.27,0,0.5,0.07,0.7,0.22c0.2,0.15,0.33,0.35,0.4,0.6h0.05
				c0.06-0.31,0.2-0.56,0.43-0.75c0.23-0.19,0.51-0.28,0.83-0.28c0.42,0,0.77,0.16,1.03,0.5s0.4,0.76,0.4,1.28
				C844.95,584.25,844.82,584.68,844.55,585.01z M841.77,583.03c-0.15-0.18-0.36-0.27-0.61-0.27c-0.26,0-0.46,0.09-0.62,0.27
				c-0.16,0.18-0.23,0.41-0.23,0.71c0,0.29,0.08,0.53,0.23,0.7c0.15,0.18,0.36,0.27,0.62,0.27c0.25,0,0.45-0.09,0.61-0.27
				c0.15-0.18,0.23-0.41,0.23-0.7C842,583.44,841.92,583.2,841.77,583.03z M844.16,582.9c-0.18-0.21-0.41-0.32-0.69-0.32
				c-0.28,0-0.51,0.11-0.69,0.32c-0.18,0.21-0.26,0.49-0.26,0.83s0.09,0.62,0.26,0.83c0.18,0.21,0.41,0.32,0.69,0.32
				c0.28,0,0.51-0.11,0.69-0.32c0.18-0.21,0.26-0.49,0.26-0.83S844.34,583.11,844.16,582.9z"/>
			<path class="st25" d="M840.95,576.15c0.38,0.11,0.71,0.21,1.01,0.29s0.61,0.18,0.94,0.27c0.33,0.1,0.64,0.19,0.94,0.27
				s0.63,0.18,1.01,0.29v0.58l-4.93,1.34v-0.64l4.01-0.98v-0.04l-4.01-1.1v-0.62l4.01-1.1v-0.04l-4.01-0.98v-0.64l4.93,1.34v0.58
				l-3.89,1.13V576.15z"/>
			<path class="st25" d="M840.28,572.17c-0.08,0.08-0.18,0.12-0.29,0.12c-0.11,0-0.21-0.04-0.29-0.12
				c-0.08-0.08-0.12-0.18-0.12-0.29c0-0.11,0.04-0.21,0.12-0.29s0.18-0.12,0.29-0.12c0.11,0,0.21,0.04,0.29,0.12
				s0.12,0.18,0.12,0.29C840.41,572,840.36,572.09,840.28,572.17z M844.84,572.18c-0.5,0-0.93,0-1.29,0c-0.37,0-0.73,0-1.1,0
				c-0.37,0-0.8,0-1.29,0v-0.59h3.68V572.18z"/>
			<path class="st25" d="M841.4,570.16c-0.21-0.26-0.31-0.59-0.31-0.98c0-0.39,0.09-0.71,0.27-0.96c0.18-0.25,0.42-0.39,0.72-0.43
				v0.58c-0.15,0.04-0.27,0.13-0.36,0.27s-0.13,0.32-0.13,0.54c0,0.22,0.05,0.4,0.15,0.55s0.23,0.23,0.4,0.23
				c0.12,0,0.23-0.05,0.31-0.16c0.08-0.1,0.15-0.27,0.2-0.48l0.14-0.57c0.08-0.35,0.21-0.6,0.36-0.77c0.16-0.17,0.37-0.25,0.63-0.25
				c0.33,0,0.6,0.14,0.8,0.42c0.21,0.28,0.31,0.63,0.31,1.05c0,0.41-0.09,0.75-0.27,1.01c-0.18,0.26-0.43,0.41-0.73,0.44v-0.6
				c0.15-0.05,0.28-0.15,0.37-0.29c0.09-0.15,0.14-0.34,0.14-0.57c0-0.25-0.05-0.45-0.16-0.61c-0.11-0.16-0.24-0.24-0.41-0.24
				c-0.13,0-0.23,0.05-0.32,0.15c-0.09,0.1-0.15,0.24-0.2,0.44l-0.15,0.63c-0.08,0.34-0.21,0.6-0.36,0.76
				c-0.16,0.16-0.37,0.24-0.63,0.24C841.86,570.55,841.6,570.42,841.4,570.16z"/>
			<path class="st25" d="M843.89,564.36c0-0.12,0-0.22,0-0.29c0-0.08,0-0.18,0-0.29c0.32,0.09,0.57,0.27,0.75,0.54
				c0.18,0.27,0.27,0.61,0.27,1.01c0,0.51-0.17,0.91-0.51,1.21s-0.81,0.45-1.39,0.45c-0.58,0-1.04-0.15-1.39-0.45
				s-0.52-0.7-0.52-1.21c0-0.5,0.17-0.89,0.5-1.17c0.33-0.28,0.78-0.43,1.36-0.43h0.22v2.65h0.03c0.37-0.02,0.65-0.12,0.87-0.31
				c0.21-0.19,0.32-0.44,0.32-0.75c0-0.24-0.04-0.44-0.13-0.6C844.17,564.56,844.05,564.44,843.89,564.36z M841.91,566.06
				c0.2,0.19,0.46,0.29,0.79,0.32v-2.03c-0.33,0.01-0.59,0.1-0.79,0.28s-0.3,0.42-0.3,0.71
				C841.61,565.63,841.71,565.87,841.91,566.06z"/>
			<path class="st25" d="M844.84,562.81c-0.5,0-0.93,0-1.29,0c-0.37,0-0.73,0-1.1,0c-0.37,0-0.8,0-1.29,0v-0.56h0.55v-0.05
				c-0.18-0.05-0.33-0.18-0.44-0.37c-0.11-0.19-0.17-0.41-0.17-0.65c0-0.05,0-0.1,0.01-0.16c0-0.06,0.01-0.1,0.01-0.14h0.59
				c-0.01,0.02-0.01,0.08-0.02,0.16c-0.01,0.08-0.01,0.16-0.01,0.21c0,0.28,0.08,0.51,0.25,0.69c0.17,0.18,0.38,0.27,0.64,0.27h2.28
				V562.81z"/>
			<path class="st25" d="M840.95,557.33c0.38,0.11,0.71,0.21,1.01,0.29s0.61,0.18,0.94,0.27c0.33,0.1,0.64,0.19,0.94,0.27
				s0.63,0.18,1.01,0.29v0.58l-4.93,1.34v-0.64l4.01-0.98v-0.04l-4.01-1.1v-0.62l4.01-1.1v-0.04l-4.01-0.98v-0.64l4.93,1.34v0.58
				l-3.89,1.13V557.33z"/>
			<path class="st25" d="M844.61,553.23c-0.2,0.24-0.46,0.35-0.8,0.35c-0.67,0-1.04-0.45-1.09-1.34l-0.06-1.06h-0.33
				c-0.47,0-0.7,0.28-0.7,0.83c0,0.22,0.04,0.4,0.12,0.55c0.08,0.15,0.19,0.24,0.34,0.28v0.59c-0.3-0.04-0.53-0.19-0.71-0.46
				s-0.27-0.6-0.27-0.99c0-0.45,0.11-0.79,0.33-1.04c0.22-0.24,0.52-0.36,0.9-0.36h2.52v0.56h-0.54v0.05
				c0.2,0.12,0.35,0.28,0.45,0.47c0.1,0.2,0.16,0.42,0.16,0.66C844.9,552.7,844.81,552.99,844.61,553.23z M844.12,551.48
				c-0.18-0.2-0.4-0.3-0.66-0.3h-0.34l0.07,0.99c0.04,0.54,0.24,0.81,0.6,0.81c0.19,0,0.33-0.07,0.44-0.21
				c0.1-0.14,0.16-0.32,0.16-0.53C844.39,551.93,844.3,551.68,844.12,551.48z"/>
			<path class="st25" d="M846.17,549.27c0,0.03,0,0.06-0.01,0.09c0,0.03-0.01,0.06-0.01,0.09h-0.5c0.01-0.04,0.01-0.08,0.01-0.12
				c0-0.04,0-0.09,0-0.13c0-0.17-0.04-0.3-0.13-0.41c-0.09-0.1-0.25-0.19-0.47-0.27l-0.22-0.07l-3.69,1.36v-0.64l3.03-1.01v-0.05
				l-3.03-1.01v-0.62l3.91,1.44c0.43,0.16,0.72,0.33,0.88,0.5s0.23,0.43,0.23,0.76C846.17,549.21,846.17,549.24,846.17,549.27z"/>
			<path class="st25" d="M844.4,540.09c0.37,0.38,0.56,0.89,0.56,1.52c0,0.68-0.23,1.22-0.7,1.63c-0.47,0.41-1.1,0.61-1.88,0.61
				c-0.78,0-1.4-0.2-1.88-0.61s-0.71-0.95-0.71-1.62c0-0.55,0.14-1.01,0.43-1.38c0.28-0.37,0.67-0.6,1.16-0.69v0.62
				c-0.33,0.11-0.58,0.28-0.76,0.52c-0.17,0.24-0.26,0.55-0.26,0.92c0,0.49,0.18,0.88,0.55,1.17c0.36,0.29,0.85,0.44,1.47,0.44
				c0.62,0,1.11-0.14,1.47-0.43c0.36-0.29,0.54-0.68,0.54-1.17c0-0.44-0.13-0.8-0.39-1.07c-0.26-0.27-0.59-0.41-1.01-0.41h-0.12
				v1.39h-0.54v-2h0.6C843.54,539.51,844.03,539.7,844.4,540.09z"/>
			<path class="st25" d="M844.84,538.5c-0.5,0-0.93,0-1.29,0c-0.37,0-0.73,0-1.1,0c-0.37,0-0.8,0-1.29,0v-0.56h0.55v-0.05
				c-0.18-0.05-0.33-0.18-0.44-0.37c-0.11-0.19-0.17-0.41-0.17-0.65c0-0.05,0-0.1,0.01-0.16c0-0.06,0.01-0.1,0.01-0.14h0.59
				c-0.01,0.02-0.01,0.08-0.02,0.16s-0.01,0.16-0.01,0.22c0,0.28,0.08,0.51,0.25,0.69s0.38,0.27,0.64,0.27h2.28V538.5z"/>
			<path class="st25" d="M844.39,535.56c-0.34,0.3-0.81,0.46-1.4,0.46c-0.59,0-1.06-0.15-1.4-0.46s-0.51-0.72-0.51-1.24
				c0-0.52,0.17-0.94,0.51-1.24c0.34-0.3,0.81-0.46,1.4-0.46c0.59,0,1.05,0.15,1.4,0.46c0.34,0.3,0.51,0.72,0.51,1.24
				C844.9,534.84,844.73,535.26,844.39,535.56z M844.01,533.51c-0.24-0.19-0.58-0.28-1.01-0.28c-0.44,0-0.78,0.09-1.02,0.28
				c-0.24,0.19-0.36,0.46-0.36,0.81c0,0.35,0.12,0.62,0.36,0.81c0.24,0.19,0.58,0.28,1.02,0.28c0.43,0,0.77-0.09,1.01-0.28
				c0.24-0.19,0.36-0.46,0.36-0.81C844.37,533.97,844.25,533.7,844.01,533.51z"/>
			<path class="st25" d="M841.15,528.72c0.5,0,0.93,0,1.29,0c0.37,0,0.73,0,1.1,0c0.37,0,0.8,0,1.29,0v0.56h-0.58v0.05
				c0.21,0.09,0.36,0.23,0.48,0.43c0.11,0.19,0.17,0.43,0.17,0.71c0,0.41-0.12,0.72-0.36,0.94c-0.24,0.21-0.57,0.32-1.01,0.32h-2.39
				v-0.59h2.24c0.33,0,0.58-0.07,0.73-0.2c0.16-0.13,0.24-0.34,0.24-0.64c0-0.33-0.09-0.57-0.27-0.75
				c-0.18-0.17-0.44-0.26-0.76-0.26h-2.18V528.72z"/>
			<path class="st25" d="M841.61,524.69c0.35-0.28,0.81-0.42,1.39-0.42c0.58,0,1.04,0.14,1.39,0.42s0.52,0.66,0.52,1.13
				c0,0.26-0.05,0.49-0.16,0.7c-0.11,0.2-0.26,0.35-0.45,0.45v0.05h1.78v0.59h-4.92v-0.56h0.62V527c-0.21-0.12-0.38-0.28-0.5-0.49
				c-0.12-0.21-0.18-0.44-0.18-0.69C841.09,525.35,841.26,524.97,841.61,524.69z M844.01,525.16c-0.24-0.19-0.58-0.29-1.01-0.29
				c-0.43,0-0.77,0.09-1.01,0.29c-0.24,0.19-0.37,0.45-0.37,0.79c0,0.33,0.12,0.6,0.37,0.79c0.25,0.2,0.58,0.29,1.01,0.29
				c0.42,0,0.76-0.1,1-0.29c0.25-0.2,0.37-0.46,0.37-0.79C844.37,525.62,844.25,525.35,844.01,525.16z"/>
		</g>
		<g>
			<polygon class="st21" points="824.4,629.18 824.4,622.69 823.76,622.69 823.76,629.91 829.8,629.91 829.8,629.18 			"/>
			<polygon class="st21" points="824.4,606.39 824.4,612.88 823.76,612.88 823.76,605.65 829.8,605.65 829.8,606.39 			"/>
			<polygon class="st21" points="845.43,629.35 845.43,622.86 846.08,622.86 846.08,630.09 840.04,630.09 840.04,629.35 			"/>
			<polygon class="st21" points="845.43,606.56 845.43,613.05 846.08,613.05 846.08,605.82 840.04,605.82 840.04,606.56 			"/>
			<g>
				<g>
					<path class="st17" d="M818.35,612.54c0,0,0.92,1.19,1.29,1.88c0.39,0.74,0.57,1.73,1.18,2.34c1.04,1.05,2.74,1.42,4.41,1.11
						c-1.23-0.34-2.31-1.03-2.97-1.99c-0.32-0.47-0.51-1.02-0.84-1.48c-0.36-0.5-0.87-0.94-1.43-1.27c0.56,0.29,1.06,0.66,1.46,1.11
						c0.4,0.44,0.62,0.98,0.99,1.44c0.74,0.93,1.86,1.54,3.14,1.84c-0.07-0.27-0.24-0.52-0.37-0.76c-0.17-0.32-0.34-0.64-0.52-0.96
						c-0.33-0.59-0.68-1.16-1.08-1.72c-0.81-1.11-1.93-1.54-3.13-1.83C819.4,612.01,818.65,612.46,818.35,612.54z"/>
					<path class="st17" d="M817.69,615.81c-0.62-0.19-1.3-0.29-1.98-0.29c0.71,0.03,1.42,0.18,2.04,0.43
						c0.57,0.24,1.04,0.6,1.61,0.85c0.39,0.17,1.35,0.48,1.4,0.52c-0.99-0.05-2.45,0.91-4.67-0.6c-0.99-0.76-2.25-0.99-2.25-0.99
						c0.48-0.4,1.05-0.69,1.63-0.95l0,0c0,0,0,0,0,0c0.01,0,0.01-0.01,0.02-0.01c0,0,0.01,0,0.01,0c1.19-0.49,3.45-1.34,4.21,0.57
						c0.17,0.43,0.58,1.23,0.84,1.62c-0.3-0.06-0.86-0.3-1.14-0.4C818.81,616.35,818.3,616,817.69,615.81z"/>
					<path class="st17" d="M815.13,617.74c-0.48,0.02-0.96,0.1-1.42,0.26c0.49-0.13,1.01-0.2,1.5-0.18
						c0.45,0.02,0.88,0.14,1.33,0.17c0.31,0.02,1.04,0,1.09,0.02c-0.68,0.18-1.4,1.09-3.33,0.64c-0.89-0.25-1.8-0.12-1.8-0.12
						c0.22-0.35,0.51-0.65,0.83-0.93l0,0c0,0,0,0,0,0c0,0,0.01-0.01,0.01-0.01c0,0,0,0,0.01-0.01c0.67-0.56,1.98-1.13,2.83-0.48
						c0.24,0.23,0.68,0.49,1.54,0.63c-0.22,0.03-0.99,0.11-1.21,0.11C816.04,617.83,815.6,617.72,815.13,617.74z"/>
					<path class="st17" d="M816.44,612.65c-0.42-0.15-0.88-0.23-1.35-0.25c0.48,0.04,0.97,0.16,1.38,0.35
						c0.38,0.18,0.7,0.44,1.08,0.63c0.26,0.13,1.22,0.59,1.26,0.62c-1.1-0.45-2.03,0.34-3.5-0.76c-0.66-0.55-1.51-0.74-1.51-0.74
						c0.34-0.26,0.74-0.45,1.15-0.62c0,0,0,0,0,0l0,0c0,0,0.01,0,0.02-0.01c0,0,0.01,0,0.01,0c0.45-0.17,1.34-0.42,2.16,0.04
						c0.71,0.39,1.51,1.47,1.65,1.75c-0.2-0.05-0.99-0.37-1.18-0.45C817.19,613.05,816.85,612.8,816.44,612.65z"/>
					<path class="st17" d="M816.54,618.9c-0.49,0.41-0.95,0.84-1.29,1.35c0,0,1.72,0.09,2.59,0.25c0.94,0.18,1.9,0.63,2.89,0.59
						c1.69-0.07,3.31-0.96,4.33-2.23c-1.24,0.61-2.65,0.91-3.97,0.78c-0.65-0.06-1.25-0.26-1.9-0.31c-0.7-0.06-1.46,0.02-2.17,0.19
						c0.68-0.2,1.38-0.31,2.06-0.31c0.68,0,1.31,0.17,1.98,0.19c1.36,0.06,2.74-0.32,3.97-0.98c-0.28-0.11-0.62-0.14-0.93-0.2
						c-0.4-0.08-0.81-0.15-1.21-0.22c-0.76-0.13-1.51-0.23-2.29-0.29C819.21,617.61,817.7,618.05,816.54,618.9
						C816.04,619.32,817.74,618.02,816.54,618.9z"/>
				</g>
			</g>
		</g>
	</g>
</g>
<g id="Your_Art_Layer">
</g>
</svg>
